<?xml version="1.0" encoding="utf-8" standalone="no"?>
<!DOCTYPE svg PUBLIC "-//W3C//DTD SVG 1.1//EN"
  "http://www.w3.org/Graphics/SVG/1.1/DTD/svg11.dtd">
<svg xmlns:xlink="http://www.w3.org/1999/xlink" width="1000.074687pt" height="426.270571pt" viewBox="0 0 1000.074687 426.270571" xmlns="http://www.w3.org/2000/svg" version="1.1">
 <metadata>
  <rdf:RDF xmlns:dc="http://purl.org/dc/elements/1.1/" xmlns:cc="http://creativecommons.org/ns#" xmlns:rdf="http://www.w3.org/1999/02/22-rdf-syntax-ns#">
   <cc:Work>
    <dc:type rdf:resource="http://purl.org/dc/dcmitype/StillImage"/>
    <dc:date>2025-08-16T10:29:14.112464</dc:date>
    <dc:format>image/svg+xml</dc:format>
    <dc:creator>
     <cc:Agent>
      <dc:title>Matplotlib v3.10.5, https://matplotlib.org/</dc:title>
     </cc:Agent>
    </dc:creator>
   </cc:Work>
  </rdf:RDF>
 </metadata>
 <defs>
  <style type="text/css">*{stroke-linejoin: round; stroke-linecap: butt}</style>
 </defs>
 <g id="figure_1">
  <g id="patch_1">
   <path d="M 0 426.270571 
L 1000.074687 426.270571 
L 1000.074687 0 
L 0 0 
z
" style="fill: #ffffff"/>
  </g>
  <g id="axes_1">
   <g id="patch_2">
    <path d="M 40.704688 346.892825 
L 497.667397 346.892825 
L 497.667397 49.92 
L 40.704688 49.92 
z
" style="fill: #ffffff"/>
   </g>
   <g id="matplotlib.axis_1">
    <g id="xtick_1">
     <g id="line2d_1">
      <path d="M 82.779343 346.892825 
L 82.779343 49.92 
" clip-path="url(#pdfd9359e51)" style="fill: none; stroke: #cccccc; stroke-opacity: 0.3; stroke-width: 0.8; stroke-linecap: round"/>
     </g>
     <g id="line2d_2"/>
     <g id="text_1">
      <!-- Friedreich Ataxia -->
      <g style="fill: #262626" transform="translate(28.650318 408.178917) rotate(-45) scale(0.1 -0.1)">
       <defs>
        <path id="LiberationSans-46" d="M 1122 3916 
L 1122 2278 
L 3578 2278 
L 3578 1784 
L 1122 1784 
L 1122 0 
L 525 0 
L 525 4403 
L 3653 4403 
L 3653 3916 
L 1122 3916 
z
" transform="scale(0.015625)"/>
        <path id="LiberationSans-72" d="M 444 0 
L 444 2594 
Q 444 2950 425 3381 
L 956 3381 
Q 981 2806 981 2691 
L 994 2691 
Q 1128 3125 1303 3284 
Q 1478 3444 1797 3444 
Q 1909 3444 2025 3413 
L 2025 2897 
Q 1913 2928 1725 2928 
Q 1375 2928 1190 2626 
Q 1006 2325 1006 1763 
L 1006 0 
L 444 0 
z
" transform="scale(0.015625)"/>
        <path id="LiberationSans-69" d="M 428 4100 
L 428 4638 
L 991 4638 
L 991 4100 
L 428 4100 
z
M 428 0 
L 428 3381 
L 991 3381 
L 991 0 
L 428 0 
z
" transform="scale(0.015625)"/>
        <path id="LiberationSans-65" d="M 863 1572 
Q 863 991 1103 675 
Q 1344 359 1806 359 
Q 2172 359 2392 506 
Q 2613 653 2691 878 
L 3184 738 
Q 2881 -63 1806 -63 
Q 1056 -63 664 384 
Q 272 831 272 1713 
Q 272 2550 664 2997 
Q 1056 3444 1784 3444 
Q 3275 3444 3275 1647 
L 3275 1572 
L 863 1572 
z
M 2694 2003 
Q 2647 2538 2422 2783 
Q 2197 3028 1775 3028 
Q 1366 3028 1127 2754 
Q 888 2481 869 2003 
L 2694 2003 
z
" transform="scale(0.015625)"/>
        <path id="LiberationSans-64" d="M 2566 544 
Q 2409 219 2151 78 
Q 1894 -63 1513 -63 
Q 872 -63 570 368 
Q 269 800 269 1675 
Q 269 3444 1513 3444 
Q 1897 3444 2153 3303 
Q 2409 3163 2566 2856 
L 2572 2856 
L 2566 3234 
L 2566 4638 
L 3128 4638 
L 3128 697 
Q 3128 169 3147 0 
L 2609 0 
Q 2600 50 2589 231 
Q 2578 413 2578 544 
L 2566 544 
z
M 859 1694 
Q 859 984 1046 678 
Q 1234 372 1656 372 
Q 2134 372 2350 703 
Q 2566 1034 2566 1731 
Q 2566 2403 2350 2715 
Q 2134 3028 1663 3028 
Q 1238 3028 1048 2714 
Q 859 2400 859 1694 
z
" transform="scale(0.015625)"/>
        <path id="LiberationSans-63" d="M 859 1706 
Q 859 1031 1071 706 
Q 1284 381 1713 381 
Q 2013 381 2214 543 
Q 2416 706 2463 1044 
L 3031 1006 
Q 2966 519 2616 228 
Q 2266 -63 1728 -63 
Q 1019 -63 645 385 
Q 272 834 272 1694 
Q 272 2547 647 2995 
Q 1022 3444 1722 3444 
Q 2241 3444 2583 3175 
Q 2925 2906 3013 2434 
L 2434 2391 
Q 2391 2672 2212 2837 
Q 2034 3003 1706 3003 
Q 1259 3003 1059 2706 
Q 859 2409 859 1706 
z
" transform="scale(0.015625)"/>
        <path id="LiberationSans-68" d="M 991 2803 
Q 1172 3134 1426 3289 
Q 1681 3444 2072 3444 
Q 2622 3444 2883 3170 
Q 3144 2897 3144 2253 
L 3144 0 
L 2578 0 
L 2578 2144 
Q 2578 2500 2512 2673 
Q 2447 2847 2297 2928 
Q 2147 3009 1881 3009 
Q 1484 3009 1245 2734 
Q 1006 2459 1006 1994 
L 1006 0 
L 444 0 
L 444 4638 
L 1006 4638 
L 1006 3431 
Q 1006 3241 995 3037 
Q 984 2834 981 2803 
L 991 2803 
z
" transform="scale(0.015625)"/>
        <path id="LiberationSans-20" transform="scale(0.015625)"/>
        <path id="LiberationSans-41" d="M 3647 0 
L 3144 1288 
L 1138 1288 
L 631 0 
L 13 0 
L 1809 4403 
L 2488 4403 
L 4256 0 
L 3647 0 
z
M 2141 3953 
L 2113 3866 
Q 2034 3606 1881 3200 
L 1319 1753 
L 2966 1753 
L 2400 3206 
Q 2313 3422 2225 3694 
L 2141 3953 
z
" transform="scale(0.015625)"/>
        <path id="LiberationSans-74" d="M 1731 25 
Q 1453 -50 1163 -50 
Q 488 -50 488 716 
L 488 2972 
L 97 2972 
L 97 3381 
L 509 3381 
L 675 4138 
L 1050 4138 
L 1050 3381 
L 1675 3381 
L 1675 2972 
L 1050 2972 
L 1050 838 
Q 1050 594 1129 495 
Q 1209 397 1406 397 
Q 1519 397 1731 441 
L 1731 25 
z
" transform="scale(0.015625)"/>
        <path id="LiberationSans-61" d="M 1294 -63 
Q 784 -63 528 206 
Q 272 475 272 944 
Q 272 1469 617 1750 
Q 963 2031 1731 2050 
L 2491 2063 
L 2491 2247 
Q 2491 2659 2316 2837 
Q 2141 3016 1766 3016 
Q 1388 3016 1216 2887 
Q 1044 2759 1009 2478 
L 422 2531 
Q 566 3444 1778 3444 
Q 2416 3444 2737 3151 
Q 3059 2859 3059 2306 
L 3059 850 
Q 3059 600 3125 473 
Q 3191 347 3375 347 
Q 3456 347 3559 369 
L 3559 19 
Q 3347 -31 3125 -31 
Q 2813 -31 2670 133 
Q 2528 297 2509 647 
L 2491 647 
Q 2275 259 1989 98 
Q 1703 -63 1294 -63 
z
M 1422 359 
Q 1731 359 1972 500 
Q 2213 641 2352 886 
Q 2491 1131 2491 1391 
L 2491 1669 
L 1875 1656 
Q 1478 1650 1273 1575 
Q 1069 1500 959 1344 
Q 850 1188 850 934 
Q 850 659 998 509 
Q 1147 359 1422 359 
z
" transform="scale(0.015625)"/>
        <path id="LiberationSans-78" d="M 2503 0 
L 1594 1388 
L 678 0 
L 72 0 
L 1275 1738 
L 128 3381 
L 750 3381 
L 1594 2066 
L 2431 3381 
L 3059 3381 
L 1913 1744 
L 3131 0 
L 2503 0 
z
" transform="scale(0.015625)"/>
       </defs>
       <use xlink:href="#LiberationSans-46"/>
       <use xlink:href="#LiberationSans-72" transform="translate(61.083984 0)"/>
       <use xlink:href="#LiberationSans-69" transform="translate(94.384766 0)"/>
       <use xlink:href="#LiberationSans-65" transform="translate(116.601562 0)"/>
       <use xlink:href="#LiberationSans-64" transform="translate(172.216797 0)"/>
       <use xlink:href="#LiberationSans-72" transform="translate(227.832031 0)"/>
       <use xlink:href="#LiberationSans-65" transform="translate(261.132812 0)"/>
       <use xlink:href="#LiberationSans-69" transform="translate(316.748047 0)"/>
       <use xlink:href="#LiberationSans-63" transform="translate(338.964844 0)"/>
       <use xlink:href="#LiberationSans-68" transform="translate(388.964844 0)"/>
       <use xlink:href="#LiberationSans-20" transform="translate(444.580078 0)"/>
       <use xlink:href="#LiberationSans-41" transform="translate(466.863281 0)"/>
       <use xlink:href="#LiberationSans-74" transform="translate(533.5625 0)"/>
       <use xlink:href="#LiberationSans-61" transform="translate(561.345703 0)"/>
       <use xlink:href="#LiberationSans-78" transform="translate(616.960938 0)"/>
       <use xlink:href="#LiberationSans-69" transform="translate(666.960938 0)"/>
       <use xlink:href="#LiberationSans-61" transform="translate(689.177734 0)"/>
      </g>
     </g>
    </g>
    <g id="xtick_2">
     <g id="line2d_3">
      <path d="M 136.0384 346.892825 
L 136.0384 49.92 
" clip-path="url(#pdfd9359e51)" style="fill: none; stroke: #cccccc; stroke-opacity: 0.3; stroke-width: 0.8; stroke-linecap: round"/>
     </g>
     <g id="line2d_4"/>
     <g id="text_2">
      <!-- Fragile X -->
      <g style="fill: #262626" transform="translate(106.278043 383.810249) rotate(-45) scale(0.1 -0.1)">
       <defs>
        <path id="LiberationSans-67" d="M 1713 -1328 
Q 1159 -1328 831 -1111 
Q 503 -894 409 -494 
L 975 -413 
Q 1031 -647 1223 -773 
Q 1416 -900 1728 -900 
Q 2569 -900 2569 84 
L 2569 628 
L 2563 628 
Q 2403 303 2125 139 
Q 1847 -25 1475 -25 
Q 853 -25 561 387 
Q 269 800 269 1684 
Q 269 2581 583 3007 
Q 897 3434 1538 3434 
Q 1897 3434 2161 3270 
Q 2425 3106 2569 2803 
L 2575 2803 
Q 2575 2897 2587 3128 
Q 2600 3359 2613 3381 
L 3147 3381 
Q 3128 3213 3128 2681 
L 3128 97 
Q 3128 -1328 1713 -1328 
z
M 2569 1691 
Q 2569 2103 2456 2401 
Q 2344 2700 2139 2858 
Q 1934 3016 1675 3016 
Q 1244 3016 1047 2703 
Q 850 2391 850 1691 
Q 850 997 1034 694 
Q 1219 391 1666 391 
Q 1931 391 2137 547 
Q 2344 703 2456 995 
Q 2569 1288 2569 1691 
z
" transform="scale(0.015625)"/>
        <path id="LiberationSans-6c" d="M 431 0 
L 431 4638 
L 994 4638 
L 994 0 
L 431 0 
z
" transform="scale(0.015625)"/>
        <path id="LiberationSans-58" d="M 3475 0 
L 2153 1925 
L 803 0 
L 144 0 
L 1819 2288 
L 272 4403 
L 931 4403 
L 2156 2675 
L 3347 4403 
L 4006 4403 
L 2500 2309 
L 4134 0 
L 3475 0 
z
" transform="scale(0.015625)"/>
       </defs>
       <use xlink:href="#LiberationSans-46"/>
       <use xlink:href="#LiberationSans-72" transform="translate(61.083984 0)"/>
       <use xlink:href="#LiberationSans-61" transform="translate(94.384766 0)"/>
       <use xlink:href="#LiberationSans-67" transform="translate(150 0)"/>
       <use xlink:href="#LiberationSans-69" transform="translate(205.615234 0)"/>
       <use xlink:href="#LiberationSans-6c" transform="translate(227.832031 0)"/>
       <use xlink:href="#LiberationSans-65" transform="translate(250.048828 0)"/>
       <use xlink:href="#LiberationSans-20" transform="translate(305.664062 0)"/>
       <use xlink:href="#LiberationSans-58" transform="translate(333.447266 0)"/>
      </g>
     </g>
    </g>
    <g id="xtick_3">
     <g id="line2d_5">
      <path d="M 189.297457 346.892825 
L 189.297457 49.92 
" clip-path="url(#pdfd9359e51)" style="fill: none; stroke: #cccccc; stroke-opacity: 0.3; stroke-width: 0.8; stroke-linecap: round"/>
     </g>
     <g id="line2d_6"/>
     <g id="text_3">
      <!-- Huntington -->
      <g style="fill: #262626" transform="translate(153.630549 389.716801) rotate(-45) scale(0.1 -0.1)">
       <defs>
        <path id="LiberationSans-48" d="M 3503 0 
L 3503 2041 
L 1122 2041 
L 1122 0 
L 525 0 
L 525 4403 
L 1122 4403 
L 1122 2541 
L 3503 2541 
L 3503 4403 
L 4100 4403 
L 4100 0 
L 3503 0 
z
" transform="scale(0.015625)"/>
        <path id="LiberationSans-75" d="M 981 3381 
L 981 1238 
Q 981 903 1047 718 
Q 1113 534 1256 453 
Q 1400 372 1678 372 
Q 2084 372 2318 650 
Q 2553 928 2553 1422 
L 2553 3381 
L 3116 3381 
L 3116 722 
Q 3116 131 3134 0 
L 2603 0 
Q 2600 16 2597 84 
Q 2594 153 2589 242 
Q 2584 331 2578 578 
L 2569 578 
Q 2375 228 2120 82 
Q 1866 -63 1488 -63 
Q 931 -63 673 214 
Q 416 491 416 1128 
L 416 3381 
L 981 3381 
z
" transform="scale(0.015625)"/>
        <path id="LiberationSans-6e" d="M 2578 0 
L 2578 2144 
Q 2578 2478 2512 2662 
Q 2447 2847 2303 2928 
Q 2159 3009 1881 3009 
Q 1475 3009 1240 2731 
Q 1006 2453 1006 1959 
L 1006 0 
L 444 0 
L 444 2659 
Q 444 3250 425 3381 
L 956 3381 
Q 959 3366 962 3297 
Q 966 3228 970 3139 
Q 975 3050 981 2803 
L 991 2803 
Q 1184 3153 1439 3298 
Q 1694 3444 2072 3444 
Q 2628 3444 2886 3167 
Q 3144 2891 3144 2253 
L 3144 0 
L 2578 0 
z
" transform="scale(0.015625)"/>
        <path id="LiberationSans-6f" d="M 3291 1694 
Q 3291 806 2900 371 
Q 2509 -63 1766 -63 
Q 1025 -63 647 389 
Q 269 841 269 1694 
Q 269 3444 1784 3444 
Q 2559 3444 2925 3017 
Q 3291 2591 3291 1694 
z
M 2700 1694 
Q 2700 2394 2492 2711 
Q 2284 3028 1794 3028 
Q 1300 3028 1079 2704 
Q 859 2381 859 1694 
Q 859 1025 1076 689 
Q 1294 353 1759 353 
Q 2266 353 2483 678 
Q 2700 1003 2700 1694 
z
" transform="scale(0.015625)"/>
       </defs>
       <use xlink:href="#LiberationSans-48"/>
       <use xlink:href="#LiberationSans-75" transform="translate(72.216797 0)"/>
       <use xlink:href="#LiberationSans-6e" transform="translate(127.832031 0)"/>
       <use xlink:href="#LiberationSans-74" transform="translate(183.447266 0)"/>
       <use xlink:href="#LiberationSans-69" transform="translate(211.230469 0)"/>
       <use xlink:href="#LiberationSans-6e" transform="translate(233.447266 0)"/>
       <use xlink:href="#LiberationSans-67" transform="translate(289.0625 0)"/>
       <use xlink:href="#LiberationSans-74" transform="translate(344.677734 0)"/>
       <use xlink:href="#LiberationSans-6f" transform="translate(372.460938 0)"/>
       <use xlink:href="#LiberationSans-6e" transform="translate(428.076172 0)"/>
      </g>
     </g>
    </g>
    <g id="xtick_4">
     <g id="line2d_7">
      <path d="M 242.556514 346.892825 
L 242.556514 49.92 
" clip-path="url(#pdfd9359e51)" style="fill: none; stroke: #cccccc; stroke-opacity: 0.3; stroke-width: 0.8; stroke-linecap: round"/>
     </g>
     <g id="line2d_8"/>
     <g id="text_4">
      <!-- Myotonic Dystrophy -->
      <g style="fill: #262626" transform="translate(179.003082 417.603324) rotate(-45) scale(0.1 -0.1)">
       <defs>
        <path id="LiberationSans-4d" d="M 4269 0 
L 4269 2938 
Q 4269 3425 4297 3875 
Q 4144 3316 4022 3000 
L 2884 0 
L 2466 0 
L 1313 3000 
L 1138 3531 
L 1034 3875 
L 1044 3528 
L 1056 2938 
L 1056 0 
L 525 0 
L 525 4403 
L 1309 4403 
L 2481 1350 
Q 2544 1166 2601 955 
Q 2659 744 2678 650 
Q 2703 775 2783 1029 
Q 2863 1284 2891 1350 
L 4041 4403 
L 4806 4403 
L 4806 0 
L 4269 0 
z
" transform="scale(0.015625)"/>
        <path id="LiberationSans-79" d="M 597 -1328 
Q 366 -1328 209 -1294 
L 209 -872 
Q 328 -891 472 -891 
Q 997 -891 1303 -119 
L 1356 16 
L 16 3381 
L 616 3381 
L 1328 1513 
Q 1344 1469 1366 1408 
Q 1388 1347 1506 1000 
Q 1625 653 1634 613 
L 1853 1228 
L 2594 3381 
L 3188 3381 
L 1888 0 
Q 1678 -541 1497 -805 
Q 1316 -1069 1095 -1198 
Q 875 -1328 597 -1328 
z
" transform="scale(0.015625)"/>
        <path id="LiberationSans-44" d="M 4316 2247 
Q 4316 1566 4050 1055 
Q 3784 544 3296 272 
Q 2809 0 2172 0 
L 525 0 
L 525 4403 
L 1981 4403 
Q 3100 4403 3708 3842 
Q 4316 3281 4316 2247 
z
M 3716 2247 
Q 3716 3066 3267 3495 
Q 2819 3925 1969 3925 
L 1122 3925 
L 1122 478 
L 2103 478 
Q 2588 478 2955 690 
Q 3322 903 3519 1303 
Q 3716 1703 3716 2247 
z
" transform="scale(0.015625)"/>
        <path id="LiberationSans-73" d="M 2969 934 
Q 2969 456 2608 196 
Q 2247 -63 1597 -63 
Q 966 -63 623 145 
Q 281 353 178 794 
L 675 891 
Q 747 619 972 492 
Q 1197 366 1597 366 
Q 2025 366 2223 497 
Q 2422 628 2422 891 
Q 2422 1091 2284 1216 
Q 2147 1341 1841 1422 
L 1438 1528 
Q 953 1653 748 1773 
Q 544 1894 428 2066 
Q 313 2238 313 2488 
Q 313 2950 642 3192 
Q 972 3434 1603 3434 
Q 2163 3434 2492 3237 
Q 2822 3041 2909 2606 
L 2403 2544 
Q 2356 2769 2151 2889 
Q 1947 3009 1603 3009 
Q 1222 3009 1040 2893 
Q 859 2778 859 2544 
Q 859 2400 934 2306 
Q 1009 2213 1156 2147 
Q 1303 2081 1775 1966 
Q 2222 1853 2419 1758 
Q 2616 1663 2730 1547 
Q 2844 1431 2906 1279 
Q 2969 1128 2969 934 
z
" transform="scale(0.015625)"/>
        <path id="LiberationSans-70" d="M 3291 1706 
Q 3291 -63 2047 -63 
Q 1266 -63 997 525 
L 981 525 
Q 994 500 994 -6 
L 994 -1328 
L 431 -1328 
L 431 2691 
Q 431 3213 413 3381 
L 956 3381 
Q 959 3369 965 3292 
Q 972 3216 980 3056 
Q 988 2897 988 2838 
L 1000 2838 
Q 1150 3150 1397 3295 
Q 1644 3441 2047 3441 
Q 2672 3441 2981 3022 
Q 3291 2603 3291 1706 
z
M 2700 1694 
Q 2700 2400 2509 2703 
Q 2319 3006 1903 3006 
Q 1569 3006 1380 2865 
Q 1191 2725 1092 2426 
Q 994 2128 994 1650 
Q 994 984 1206 668 
Q 1419 353 1897 353 
Q 2316 353 2508 661 
Q 2700 969 2700 1694 
z
" transform="scale(0.015625)"/>
       </defs>
       <use xlink:href="#LiberationSans-4d"/>
       <use xlink:href="#LiberationSans-79" transform="translate(83.300781 0)"/>
       <use xlink:href="#LiberationSans-6f" transform="translate(133.300781 0)"/>
       <use xlink:href="#LiberationSans-74" transform="translate(188.916016 0)"/>
       <use xlink:href="#LiberationSans-6f" transform="translate(216.699219 0)"/>
       <use xlink:href="#LiberationSans-6e" transform="translate(272.314453 0)"/>
       <use xlink:href="#LiberationSans-69" transform="translate(327.929688 0)"/>
       <use xlink:href="#LiberationSans-63" transform="translate(350.146484 0)"/>
       <use xlink:href="#LiberationSans-20" transform="translate(400.146484 0)"/>
       <use xlink:href="#LiberationSans-44" transform="translate(427.929688 0)"/>
       <use xlink:href="#LiberationSans-79" transform="translate(500.146484 0)"/>
       <use xlink:href="#LiberationSans-73" transform="translate(550.146484 0)"/>
       <use xlink:href="#LiberationSans-74" transform="translate(600.146484 0)"/>
       <use xlink:href="#LiberationSans-72" transform="translate(627.929688 0)"/>
       <use xlink:href="#LiberationSans-6f" transform="translate(661.230469 0)"/>
       <use xlink:href="#LiberationSans-70" transform="translate(716.845703 0)"/>
       <use xlink:href="#LiberationSans-68" transform="translate(772.460938 0)"/>
       <use xlink:href="#LiberationSans-79" transform="translate(828.076172 0)"/>
      </g>
     </g>
    </g>
    <g id="xtick_5">
     <g id="line2d_9">
      <path d="M 295.815571 346.892825 
L 295.815571 49.92 
" clip-path="url(#pdfd9359e51)" style="fill: none; stroke: #cccccc; stroke-opacity: 0.3; stroke-width: 0.8; stroke-linecap: round"/>
     </g>
     <g id="line2d_10"/>
     <g id="text_5">
      <!-- SCA1 -->
      <g style="fill: #262626" transform="translate(275.876264 373.989199) rotate(-45) scale(0.1 -0.1)">
       <defs>
        <path id="LiberationSans-53" d="M 3975 1216 
Q 3975 606 3498 271 
Q 3022 -63 2156 -63 
Q 547 -63 291 1056 
L 869 1172 
Q 969 775 1294 589 
Q 1619 403 2178 403 
Q 2756 403 3070 601 
Q 3384 800 3384 1184 
Q 3384 1400 3286 1534 
Q 3188 1669 3009 1756 
Q 2831 1844 2584 1903 
Q 2338 1963 2038 2031 
Q 1516 2147 1245 2262 
Q 975 2378 819 2520 
Q 663 2663 580 2853 
Q 497 3044 497 3291 
Q 497 3856 930 4162 
Q 1363 4469 2169 4469 
Q 2919 4469 3316 4239 
Q 3713 4009 3872 3456 
L 3284 3353 
Q 3188 3703 2916 3861 
Q 2644 4019 2163 4019 
Q 1634 4019 1356 3844 
Q 1078 3669 1078 3322 
Q 1078 3119 1186 2986 
Q 1294 2853 1497 2761 
Q 1700 2669 2306 2534 
Q 2509 2488 2711 2439 
Q 2913 2391 3097 2323 
Q 3281 2256 3442 2165 
Q 3603 2075 3722 1944 
Q 3841 1813 3908 1634 
Q 3975 1456 3975 1216 
z
" transform="scale(0.015625)"/>
        <path id="LiberationSans-43" d="M 2475 3981 
Q 1744 3981 1337 3511 
Q 931 3041 931 2222 
Q 931 1413 1354 920 
Q 1778 428 2500 428 
Q 3425 428 3891 1344 
L 4378 1100 
Q 4106 531 3614 234 
Q 3122 -63 2472 -63 
Q 1806 -63 1320 214 
Q 834 491 579 1005 
Q 325 1519 325 2222 
Q 325 3275 894 3872 
Q 1463 4469 2469 4469 
Q 3172 4469 3644 4194 
Q 4116 3919 4338 3378 
L 3772 3191 
Q 3619 3575 3280 3778 
Q 2941 3981 2475 3981 
z
" transform="scale(0.015625)"/>
        <path id="LiberationSans-31" d="M 488 0 
L 488 478 
L 1609 478 
L 1609 3866 
L 616 3156 
L 616 3688 
L 1656 4403 
L 2175 4403 
L 2175 478 
L 3247 478 
L 3247 0 
L 488 0 
z
" transform="scale(0.015625)"/>
       </defs>
       <use xlink:href="#LiberationSans-53"/>
       <use xlink:href="#LiberationSans-43" transform="translate(66.699219 0)"/>
       <use xlink:href="#LiberationSans-41" transform="translate(138.916016 0)"/>
       <use xlink:href="#LiberationSans-31" transform="translate(205.615234 0)"/>
      </g>
     </g>
    </g>
    <g id="xtick_6">
     <g id="line2d_11">
      <path d="M 349.074628 346.892825 
L 349.074628 49.92 
" clip-path="url(#pdfd9359e51)" style="fill: none; stroke: #cccccc; stroke-opacity: 0.3; stroke-width: 0.8; stroke-linecap: round"/>
     </g>
     <g id="line2d_12"/>
     <g id="text_6">
      <!-- SCA2 -->
      <g style="fill: #262626" transform="translate(329.135321 373.989199) rotate(-45) scale(0.1 -0.1)">
       <defs>
        <path id="LiberationSans-32" d="M 322 0 
L 322 397 
Q 481 763 711 1042 
Q 941 1322 1194 1548 
Q 1447 1775 1695 1969 
Q 1944 2163 2144 2356 
Q 2344 2550 2467 2762 
Q 2591 2975 2591 3244 
Q 2591 3606 2378 3806 
Q 2166 4006 1788 4006 
Q 1428 4006 1195 3811 
Q 963 3616 922 3263 
L 347 3316 
Q 409 3844 795 4156 
Q 1181 4469 1788 4469 
Q 2453 4469 2811 4155 
Q 3169 3841 3169 3263 
Q 3169 3006 3051 2753 
Q 2934 2500 2703 2247 
Q 2472 1994 1819 1463 
Q 1459 1169 1246 933 
Q 1034 697 941 478 
L 3238 478 
L 3238 0 
L 322 0 
z
" transform="scale(0.015625)"/>
       </defs>
       <use xlink:href="#LiberationSans-53"/>
       <use xlink:href="#LiberationSans-43" transform="translate(66.699219 0)"/>
       <use xlink:href="#LiberationSans-41" transform="translate(138.916016 0)"/>
       <use xlink:href="#LiberationSans-32" transform="translate(205.615234 0)"/>
      </g>
     </g>
    </g>
    <g id="xtick_7">
     <g id="line2d_13">
      <path d="M 402.333685 346.892825 
L 402.333685 49.92 
" clip-path="url(#pdfd9359e51)" style="fill: none; stroke: #cccccc; stroke-opacity: 0.3; stroke-width: 0.8; stroke-linecap: round"/>
     </g>
     <g id="line2d_14"/>
     <g id="text_7">
      <!-- FXTAS -->
      <g style="fill: #262626" transform="translate(378.600309 377.783269) rotate(-45) scale(0.1 -0.1)">
       <defs>
        <path id="LiberationSans-54" d="M 2250 3916 
L 2250 0 
L 1656 0 
L 1656 3916 
L 144 3916 
L 144 4403 
L 3763 4403 
L 3763 3916 
L 2250 3916 
z
" transform="scale(0.015625)"/>
       </defs>
       <use xlink:href="#LiberationSans-46"/>
       <use xlink:href="#LiberationSans-58" transform="translate(61.083984 0)"/>
       <use xlink:href="#LiberationSans-54" transform="translate(127.783203 0)"/>
       <use xlink:href="#LiberationSans-41" transform="translate(181.492188 0)"/>
       <use xlink:href="#LiberationSans-53" transform="translate(248.191406 0)"/>
      </g>
     </g>
    </g>
    <g id="xtick_8">
     <g id="line2d_15">
      <path d="M 455.592742 346.892825 
L 455.592742 49.92 
" clip-path="url(#pdfd9359e51)" style="fill: none; stroke: #cccccc; stroke-opacity: 0.3; stroke-width: 0.8; stroke-linecap: round"/>
     </g>
     <g id="line2d_16"/>
     <g id="text_8">
      <!-- FRDA -->
      <g style="fill: #262626" transform="translate(434.876723 374.765912) rotate(-45) scale(0.1 -0.1)">
       <defs>
        <path id="LiberationSans-52" d="M 3638 0 
L 2494 1828 
L 1122 1828 
L 1122 0 
L 525 0 
L 525 4403 
L 2597 4403 
Q 3341 4403 3745 4070 
Q 4150 3738 4150 3144 
Q 4150 2653 3864 2318 
Q 3578 1984 3075 1897 
L 4325 0 
L 3638 0 
z
M 3550 3138 
Q 3550 3522 3289 3723 
Q 3028 3925 2538 3925 
L 1122 3925 
L 1122 2300 
L 2563 2300 
Q 3034 2300 3292 2520 
Q 3550 2741 3550 3138 
z
" transform="scale(0.015625)"/>
       </defs>
       <use xlink:href="#LiberationSans-46"/>
       <use xlink:href="#LiberationSans-52" transform="translate(61.083984 0)"/>
       <use xlink:href="#LiberationSans-44" transform="translate(133.300781 0)"/>
       <use xlink:href="#LiberationSans-41" transform="translate(205.517578 0)"/>
      </g>
     </g>
    </g>
   </g>
   <g id="matplotlib.axis_2">
    <g id="ytick_1">
     <g id="line2d_17">
      <path d="M 40.704688 346.892825 
L 497.667397 346.892825 
" clip-path="url(#pdfd9359e51)" style="fill: none; stroke: #cccccc; stroke-opacity: 0.3; stroke-width: 0.8; stroke-linecap: round"/>
     </g>
     <g id="line2d_18"/>
     <g id="text_9">
      <!-- 90 -->
      <g style="fill: #262626" transform="translate(26.082813 350.516262) scale(0.1 -0.1)">
       <defs>
        <path id="LiberationSans-39" d="M 3256 2291 
Q 3256 1156 2842 546 
Q 2428 -63 1663 -63 
Q 1147 -63 836 154 
Q 525 372 391 856 
L 928 941 
Q 1097 391 1672 391 
Q 2156 391 2422 841 
Q 2688 1291 2700 2125 
Q 2575 1844 2272 1673 
Q 1969 1503 1606 1503 
Q 1013 1503 656 1909 
Q 300 2316 300 2988 
Q 300 3678 687 4073 
Q 1075 4469 1766 4469 
Q 2500 4469 2878 3925 
Q 3256 3381 3256 2291 
z
M 2644 2834 
Q 2644 3366 2400 3689 
Q 2156 4013 1747 4013 
Q 1341 4013 1106 3736 
Q 872 3459 872 2988 
Q 872 2506 1106 2226 
Q 1341 1947 1741 1947 
Q 1984 1947 2193 2058 
Q 2403 2169 2523 2372 
Q 2644 2575 2644 2834 
z
" transform="scale(0.015625)"/>
        <path id="LiberationSans-30" d="M 3309 2203 
Q 3309 1100 2920 518 
Q 2531 -63 1772 -63 
Q 1013 -63 631 515 
Q 250 1094 250 2203 
Q 250 3338 620 3903 
Q 991 4469 1791 4469 
Q 2569 4469 2939 3897 
Q 3309 3325 3309 2203 
z
M 2738 2203 
Q 2738 3156 2517 3584 
Q 2297 4013 1791 4013 
Q 1272 4013 1045 3591 
Q 819 3169 819 2203 
Q 819 1266 1048 831 
Q 1278 397 1778 397 
Q 2275 397 2506 840 
Q 2738 1284 2738 2203 
z
" transform="scale(0.015625)"/>
       </defs>
       <use xlink:href="#LiberationSans-39"/>
       <use xlink:href="#LiberationSans-30" transform="translate(55.615234 0)"/>
      </g>
     </g>
    </g>
    <g id="ytick_2">
     <g id="line2d_19">
      <path d="M 40.704688 292.897766 
L 497.667397 292.897766 
" clip-path="url(#pdfd9359e51)" style="fill: none; stroke: #cccccc; stroke-opacity: 0.3; stroke-width: 0.8; stroke-linecap: round"/>
     </g>
     <g id="line2d_20"/>
     <g id="text_10">
      <!-- 92 -->
      <g style="fill: #262626" transform="translate(26.082813 296.521203) scale(0.1 -0.1)">
       <use xlink:href="#LiberationSans-39"/>
       <use xlink:href="#LiberationSans-32" transform="translate(55.615234 0)"/>
      </g>
     </g>
    </g>
    <g id="ytick_3">
     <g id="line2d_21">
      <path d="M 40.704688 238.902707 
L 497.667397 238.902707 
" clip-path="url(#pdfd9359e51)" style="fill: none; stroke: #cccccc; stroke-opacity: 0.3; stroke-width: 0.8; stroke-linecap: round"/>
     </g>
     <g id="line2d_22"/>
     <g id="text_11">
      <!-- 94 -->
      <g style="fill: #262626" transform="translate(26.082813 242.526144) scale(0.1 -0.1)">
       <defs>
        <path id="LiberationSans-34" d="M 2753 997 
L 2753 0 
L 2222 0 
L 2222 997 
L 147 997 
L 147 1434 
L 2163 4403 
L 2753 4403 
L 2753 1441 
L 3372 1441 
L 3372 997 
L 2753 997 
z
M 2222 3769 
Q 2216 3750 2134 3603 
Q 2053 3456 2013 3397 
L 884 1734 
L 716 1503 
L 666 1441 
L 2222 1441 
L 2222 3769 
z
" transform="scale(0.015625)"/>
       </defs>
       <use xlink:href="#LiberationSans-39"/>
       <use xlink:href="#LiberationSans-34" transform="translate(55.615234 0)"/>
      </g>
     </g>
    </g>
    <g id="ytick_4">
     <g id="line2d_23">
      <path d="M 40.704688 184.907648 
L 497.667397 184.907648 
" clip-path="url(#pdfd9359e51)" style="fill: none; stroke: #cccccc; stroke-opacity: 0.3; stroke-width: 0.8; stroke-linecap: round"/>
     </g>
     <g id="line2d_24"/>
     <g id="text_12">
      <!-- 96 -->
      <g style="fill: #262626" transform="translate(26.082813 188.531085) scale(0.1 -0.1)">
       <defs>
        <path id="LiberationSans-36" d="M 3278 1441 
Q 3278 744 2900 340 
Q 2522 -63 1856 -63 
Q 1113 -63 719 490 
Q 325 1044 325 2100 
Q 325 3244 734 3856 
Q 1144 4469 1900 4469 
Q 2897 4469 3156 3572 
L 2619 3475 
Q 2453 4013 1894 4013 
Q 1413 4013 1148 3564 
Q 884 3116 884 2266 
Q 1038 2550 1316 2698 
Q 1594 2847 1953 2847 
Q 2563 2847 2920 2465 
Q 3278 2084 3278 1441 
z
M 2706 1416 
Q 2706 1894 2472 2153 
Q 2238 2413 1819 2413 
Q 1425 2413 1183 2183 
Q 941 1953 941 1550 
Q 941 1041 1192 716 
Q 1444 391 1838 391 
Q 2244 391 2475 664 
Q 2706 938 2706 1416 
z
" transform="scale(0.015625)"/>
       </defs>
       <use xlink:href="#LiberationSans-39"/>
       <use xlink:href="#LiberationSans-36" transform="translate(55.615234 0)"/>
      </g>
     </g>
    </g>
    <g id="ytick_5">
     <g id="line2d_25">
      <path d="M 40.704688 130.912589 
L 497.667397 130.912589 
" clip-path="url(#pdfd9359e51)" style="fill: none; stroke: #cccccc; stroke-opacity: 0.3; stroke-width: 0.8; stroke-linecap: round"/>
     </g>
     <g id="line2d_26"/>
     <g id="text_13">
      <!-- 98 -->
      <g style="fill: #262626" transform="translate(26.082813 134.536026) scale(0.1 -0.1)">
       <defs>
        <path id="LiberationSans-38" d="M 3281 1228 
Q 3281 619 2893 278 
Q 2506 -63 1781 -63 
Q 1075 -63 676 271 
Q 278 606 278 1222 
Q 278 1653 525 1947 
Q 772 2241 1156 2303 
L 1156 2316 
Q 797 2400 589 2681 
Q 381 2963 381 3341 
Q 381 3844 757 4156 
Q 1134 4469 1769 4469 
Q 2419 4469 2795 4162 
Q 3172 3856 3172 3334 
Q 3172 2956 2962 2675 
Q 2753 2394 2391 2322 
L 2391 2309 
Q 2813 2241 3047 1952 
Q 3281 1663 3281 1228 
z
M 2588 3303 
Q 2588 4050 1769 4050 
Q 1372 4050 1164 3862 
Q 956 3675 956 3303 
Q 956 2925 1170 2726 
Q 1384 2528 1775 2528 
Q 2172 2528 2380 2711 
Q 2588 2894 2588 3303 
z
M 2697 1281 
Q 2697 1691 2453 1898 
Q 2209 2106 1769 2106 
Q 1341 2106 1100 1882 
Q 859 1659 859 1269 
Q 859 359 1788 359 
Q 2247 359 2472 579 
Q 2697 800 2697 1281 
z
" transform="scale(0.015625)"/>
       </defs>
       <use xlink:href="#LiberationSans-39"/>
       <use xlink:href="#LiberationSans-38" transform="translate(55.615234 0)"/>
      </g>
     </g>
    </g>
    <g id="ytick_6">
     <g id="line2d_27">
      <path d="M 40.704688 76.91753 
L 497.667397 76.91753 
" clip-path="url(#pdfd9359e51)" style="fill: none; stroke: #cccccc; stroke-opacity: 0.3; stroke-width: 0.8; stroke-linecap: round"/>
     </g>
     <g id="line2d_28"/>
     <g id="text_14">
      <!-- 100 -->
      <g style="fill: #262626" transform="translate(20.521875 80.540967) scale(0.1 -0.1)">
       <use xlink:href="#LiberationSans-31"/>
       <use xlink:href="#LiberationSans-30" transform="translate(55.615234 0)"/>
       <use xlink:href="#LiberationSans-30" transform="translate(111.230469 0)"/>
      </g>
     </g>
    </g>
    <g id="text_15">
     <!-- Detection Rate (%) -->
     <g style="fill: #262626" transform="translate(14.446875 240.643131) rotate(-90) scale(0.1 -0.1)">
      <defs>
       <path id="LiberationSans-28" d="M 397 1663 
Q 397 2566 680 3284 
Q 963 4003 1550 4638 
L 2094 4638 
Q 1509 3988 1236 3256 
Q 963 2525 963 1656 
Q 963 791 1233 62 
Q 1503 -666 2094 -1325 
L 1550 -1325 
Q 959 -688 678 32 
Q 397 753 397 1650 
L 397 1663 
z
" transform="scale(0.015625)"/>
       <path id="LiberationSans-25" d="M 5463 1356 
Q 5463 684 5209 323 
Q 4956 -38 4463 -38 
Q 3975 -38 3726 314 
Q 3478 666 3478 1356 
Q 3478 2069 3717 2417 
Q 3956 2766 4475 2766 
Q 4988 2766 5225 2408 
Q 5463 2050 5463 1356 
z
M 1647 0 
L 1163 0 
L 4044 4403 
L 4534 4403 
L 1647 0 
z
M 1231 4441 
Q 1728 4441 1968 4091 
Q 2209 3741 2209 3047 
Q 2209 2369 1961 2003 
Q 1713 1638 1219 1638 
Q 725 1638 476 2000 
Q 228 2363 228 3047 
Q 228 3744 468 4092 
Q 709 4441 1231 4441 
z
M 5000 1356 
Q 5000 1916 4879 2167 
Q 4759 2419 4475 2419 
Q 4191 2419 4064 2172 
Q 3938 1925 3938 1356 
Q 3938 822 4061 564 
Q 4184 306 4469 306 
Q 4744 306 4872 567 
Q 5000 828 5000 1356 
z
M 1750 3047 
Q 1750 3597 1631 3850 
Q 1513 4103 1231 4103 
Q 938 4103 813 3854 
Q 688 3606 688 3047 
Q 688 2506 813 2248 
Q 938 1991 1225 1991 
Q 1497 1991 1623 2253 
Q 1750 2516 1750 3047 
z
" transform="scale(0.015625)"/>
       <path id="LiberationSans-29" d="M 1734 1650 
Q 1734 747 1451 28 
Q 1169 -691 581 -1325 
L 38 -1325 
Q 625 -669 897 57 
Q 1169 784 1169 1656 
Q 1169 2528 895 3256 
Q 622 3984 38 4638 
L 581 4638 
Q 1172 4000 1453 3279 
Q 1734 2559 1734 1663 
L 1734 1650 
z
" transform="scale(0.015625)"/>
      </defs>
      <use xlink:href="#LiberationSans-44"/>
      <use xlink:href="#LiberationSans-65" transform="translate(72.216797 0)"/>
      <use xlink:href="#LiberationSans-74" transform="translate(127.832031 0)"/>
      <use xlink:href="#LiberationSans-65" transform="translate(155.615234 0)"/>
      <use xlink:href="#LiberationSans-63" transform="translate(211.230469 0)"/>
      <use xlink:href="#LiberationSans-74" transform="translate(261.230469 0)"/>
      <use xlink:href="#LiberationSans-69" transform="translate(289.013672 0)"/>
      <use xlink:href="#LiberationSans-6f" transform="translate(311.230469 0)"/>
      <use xlink:href="#LiberationSans-6e" transform="translate(366.845703 0)"/>
      <use xlink:href="#LiberationSans-20" transform="translate(422.460938 0)"/>
      <use xlink:href="#LiberationSans-52" transform="translate(450.244141 0)"/>
      <use xlink:href="#LiberationSans-61" transform="translate(522.460938 0)"/>
      <use xlink:href="#LiberationSans-74" transform="translate(578.076172 0)"/>
      <use xlink:href="#LiberationSans-65" transform="translate(605.859375 0)"/>
      <use xlink:href="#LiberationSans-20" transform="translate(661.474609 0)"/>
      <use xlink:href="#LiberationSans-28" transform="translate(689.257812 0)"/>
      <use xlink:href="#LiberationSans-25" transform="translate(722.558594 0)"/>
      <use xlink:href="#LiberationSans-29" transform="translate(811.474609 0)"/>
     </g>
    </g>
   </g>
   <g id="patch_3">
    <path d="M 61.47572 2776.670482 
L 104.082965 2776.670482 
L 104.082965 76.91753 
L 61.47572 76.91753 
z
" clip-path="url(#pdfd9359e51)" style="fill: #008000; opacity: 0.7"/>
   </g>
   <g id="patch_4">
    <path d="M 114.734777 2776.670482 
L 157.342022 2776.670482 
L 157.342022 130.912589 
L 114.734777 130.912589 
z
" clip-path="url(#pdfd9359e51)" style="fill: #008000; opacity: 0.7"/>
   </g>
   <g id="patch_5">
    <path d="M 167.993834 2776.670482 
L 210.601079 2776.670482 
L 210.601079 103.915059 
L 167.993834 103.915059 
z
" clip-path="url(#pdfd9359e51)" style="fill: #008000; opacity: 0.7"/>
   </g>
   <g id="patch_6">
    <path d="M 221.252891 2776.670482 
L 263.860137 2776.670482 
L 263.860137 157.910118 
L 221.252891 157.910118 
z
" clip-path="url(#pdfd9359e51)" style="fill: #008000; opacity: 0.7"/>
   </g>
   <g id="patch_7">
    <path d="M 274.511948 2776.670482 
L 317.119194 2776.670482 
L 317.119194 184.907648 
L 274.511948 184.907648 
z
" clip-path="url(#pdfd9359e51)" style="fill: #008000; opacity: 0.7"/>
   </g>
   <g id="patch_8">
    <path d="M 327.771005 2776.670482 
L 370.378251 2776.670482 
L 370.378251 130.912589 
L 327.771005 130.912589 
z
" clip-path="url(#pdfd9359e51)" style="fill: #008000; opacity: 0.7"/>
   </g>
   <g id="patch_9">
    <path d="M 381.030062 2776.670482 
L 423.637308 2776.670482 
L 423.637308 211.905177 
L 381.030062 211.905177 
z
" clip-path="url(#pdfd9359e51)" style="fill: #008000; opacity: 0.7"/>
   </g>
   <g id="patch_10">
    <path d="M 434.289119 2776.670482 
L 476.896365 2776.670482 
L 476.896365 76.91753 
L 434.289119 76.91753 
z
" clip-path="url(#pdfd9359e51)" style="fill: #008000; opacity: 0.7"/>
   </g>
   <g id="patch_11">
    <path d="M 40.704688 346.892825 
L 40.704688 49.92 
" style="fill: none; stroke: #cccccc; stroke-linejoin: miter; stroke-linecap: square"/>
   </g>
   <g id="patch_12">
    <path d="M 497.667397 346.892825 
L 497.667397 49.92 
" style="fill: none; stroke: #cccccc; stroke-linejoin: miter; stroke-linecap: square"/>
   </g>
   <g id="patch_13">
    <path d="M 40.704688 346.892825 
L 497.667397 346.892825 
" style="fill: none; stroke: #cccccc; stroke-linejoin: miter; stroke-linecap: square"/>
   </g>
   <g id="patch_14">
    <path d="M 40.704688 49.92 
L 497.667397 49.92 
" style="fill: none; stroke: #cccccc; stroke-linejoin: miter; stroke-linecap: square"/>
   </g>
   <g id="text_16">
    <!-- 100% -->
    <g style="fill: #262626" transform="translate(69.991843 69.443024) scale(0.1 -0.1)">
     <defs>
      <path id="LiberationSans-Bold-31" d="M 403 0 
L 403 653 
L 1494 653 
L 1494 3656 
L 438 2997 
L 438 3688 
L 1541 4403 
L 2372 4403 
L 2372 653 
L 3381 653 
L 3381 0 
L 403 0 
z
" transform="scale(0.015625)"/>
      <path id="LiberationSans-Bold-30" d="M 3297 2203 
Q 3297 1088 2914 512 
Q 2531 -63 1766 -63 
Q 253 -63 253 2203 
Q 253 2994 418 3494 
Q 584 3994 915 4231 
Q 1247 4469 1791 4469 
Q 2572 4469 2934 3903 
Q 3297 3338 3297 2203 
z
M 2416 2203 
Q 2416 2813 2356 3150 
Q 2297 3488 2165 3634 
Q 2034 3781 1784 3781 
Q 1519 3781 1383 3632 
Q 1247 3484 1189 3148 
Q 1131 2813 1131 2203 
Q 1131 1600 1192 1261 
Q 1253 922 1386 775 
Q 1519 628 1772 628 
Q 2022 628 2158 783 
Q 2294 938 2355 1278 
Q 2416 1619 2416 2203 
z
" transform="scale(0.015625)"/>
      <path id="LiberationSans-Bold-25" d="M 5522 1350 
Q 5522 669 5240 309 
Q 4959 -50 4416 -50 
Q 3866 -50 3587 306 
Q 3309 663 3309 1350 
Q 3309 2050 3578 2401 
Q 3847 2753 4428 2753 
Q 4991 2753 5256 2398 
Q 5522 2044 5522 1350 
z
M 1725 0 
L 1081 0 
L 3956 4403 
L 4609 4403 
L 1725 0 
z
M 1275 4453 
Q 1834 4453 2104 4100 
Q 2375 3747 2375 3053 
Q 2375 2372 2092 2011 
Q 1809 1650 1259 1650 
Q 716 1650 437 2008 
Q 159 2366 159 3053 
Q 159 3763 428 4108 
Q 697 4453 1275 4453 
z
M 4850 1350 
Q 4850 1847 4754 2059 
Q 4659 2272 4428 2272 
Q 4178 2272 4083 2056 
Q 3988 1841 3988 1350 
Q 3988 850 4088 645 
Q 4188 441 4422 441 
Q 4650 441 4750 653 
Q 4850 866 4850 1350 
z
M 1697 3053 
Q 1697 3544 1601 3756 
Q 1506 3969 1275 3969 
Q 1025 3969 928 3758 
Q 831 3547 831 3053 
Q 831 2559 932 2348 
Q 1034 2138 1269 2138 
Q 1500 2138 1598 2350 
Q 1697 2563 1697 3053 
z
" transform="scale(0.015625)"/>
     </defs>
     <use xlink:href="#LiberationSans-Bold-31"/>
     <use xlink:href="#LiberationSans-Bold-30" transform="translate(55.615234 0)"/>
     <use xlink:href="#LiberationSans-Bold-30" transform="translate(111.230469 0)"/>
     <use xlink:href="#LiberationSans-Bold-25" transform="translate(166.845703 0)"/>
    </g>
   </g>
   <g id="text_17">
    <!-- 98% -->
    <g style="fill: #262626" transform="translate(126.031368 123.438083) scale(0.1 -0.1)">
     <defs>
      <path id="LiberationSans-Bold-39" d="M 3322 2272 
Q 3322 1100 2894 518 
Q 2466 -63 1678 -63 
Q 1097 -63 767 185 
Q 438 434 300 972 
L 1125 1088 
Q 1247 628 1688 628 
Q 2056 628 2254 981 
Q 2453 1334 2459 2028 
Q 2341 1794 2070 1661 
Q 1800 1528 1488 1528 
Q 906 1528 564 1923 
Q 222 2319 222 2994 
Q 222 3688 623 4078 
Q 1025 4469 1759 4469 
Q 2550 4469 2936 3920 
Q 3322 3372 3322 2272 
z
M 2394 2888 
Q 2394 3297 2214 3539 
Q 2034 3781 1738 3781 
Q 1447 3781 1280 3570 
Q 1113 3359 1113 2988 
Q 1113 2622 1278 2401 
Q 1444 2181 1741 2181 
Q 2022 2181 2208 2373 
Q 2394 2566 2394 2888 
z
" transform="scale(0.015625)"/>
      <path id="LiberationSans-Bold-38" d="M 3363 1241 
Q 3363 622 2953 279 
Q 2544 -63 1784 -63 
Q 1031 -63 617 278 
Q 203 619 203 1234 
Q 203 1656 447 1945 
Q 691 2234 1100 2303 
L 1100 2316 
Q 744 2394 525 2669 
Q 306 2944 306 3303 
Q 306 3844 689 4156 
Q 1072 4469 1772 4469 
Q 2488 4469 2870 4164 
Q 3253 3859 3253 3297 
Q 3253 2938 3036 2666 
Q 2819 2394 2453 2322 
L 2453 2309 
Q 2878 2241 3120 1961 
Q 3363 1681 3363 1241 
z
M 2350 3250 
Q 2350 3563 2206 3708 
Q 2063 3853 1772 3853 
Q 1203 3853 1203 3250 
Q 1203 2619 1778 2619 
Q 2066 2619 2208 2766 
Q 2350 2913 2350 3250 
z
M 2453 1313 
Q 2453 2003 1766 2003 
Q 1447 2003 1276 1822 
Q 1106 1641 1106 1300 
Q 1106 913 1275 734 
Q 1444 556 1791 556 
Q 2131 556 2292 734 
Q 2453 913 2453 1313 
z
" transform="scale(0.015625)"/>
     </defs>
     <use xlink:href="#LiberationSans-Bold-39"/>
     <use xlink:href="#LiberationSans-Bold-38" transform="translate(55.615234 0)"/>
     <use xlink:href="#LiberationSans-Bold-25" transform="translate(111.230469 0)"/>
    </g>
   </g>
   <g id="text_18">
    <!-- 99% -->
    <g style="fill: #262626" transform="translate(179.290425 96.440553) scale(0.1 -0.1)">
     <use xlink:href="#LiberationSans-Bold-39"/>
     <use xlink:href="#LiberationSans-Bold-39" transform="translate(55.615234 0)"/>
     <use xlink:href="#LiberationSans-Bold-25" transform="translate(111.230469 0)"/>
    </g>
   </g>
   <g id="text_19">
    <!-- 97% -->
    <g style="fill: #262626" transform="translate(232.549482 150.435612) scale(0.1 -0.1)">
     <defs>
      <path id="LiberationSans-Bold-37" d="M 3278 3706 
Q 2981 3238 2717 2797 
Q 2453 2356 2256 1911 
Q 2059 1466 1945 995 
Q 1831 525 1831 0 
L 916 0 
Q 916 550 1059 1064 
Q 1203 1578 1475 2111 
Q 1747 2644 2463 3681 
L 275 3681 
L 275 4403 
L 3278 4403 
L 3278 3706 
z
" transform="scale(0.015625)"/>
     </defs>
     <use xlink:href="#LiberationSans-Bold-39"/>
     <use xlink:href="#LiberationSans-Bold-37" transform="translate(55.615234 0)"/>
     <use xlink:href="#LiberationSans-Bold-25" transform="translate(111.230469 0)"/>
    </g>
   </g>
   <g id="text_20">
    <!-- 96% -->
    <g style="fill: #262626" transform="translate(285.808539 177.433142) scale(0.1 -0.1)">
     <defs>
      <path id="LiberationSans-Bold-36" d="M 3328 1441 
Q 3328 738 2934 337 
Q 2541 -63 1847 -63 
Q 1069 -63 651 482 
Q 234 1028 234 2100 
Q 234 3278 657 3873 
Q 1081 4469 1869 4469 
Q 2428 4469 2751 4222 
Q 3075 3975 3209 3456 
L 2381 3341 
Q 2263 3775 1850 3775 
Q 1497 3775 1295 3422 
Q 1094 3069 1094 2350 
Q 1234 2584 1484 2709 
Q 1734 2834 2050 2834 
Q 2641 2834 2984 2459 
Q 3328 2084 3328 1441 
z
M 2447 1416 
Q 2447 1791 2273 1989 
Q 2100 2188 1797 2188 
Q 1506 2188 1331 2002 
Q 1156 1816 1156 1509 
Q 1156 1125 1339 873 
Q 1522 622 1819 622 
Q 2116 622 2281 833 
Q 2447 1044 2447 1416 
z
" transform="scale(0.015625)"/>
     </defs>
     <use xlink:href="#LiberationSans-Bold-39"/>
     <use xlink:href="#LiberationSans-Bold-36" transform="translate(55.615234 0)"/>
     <use xlink:href="#LiberationSans-Bold-25" transform="translate(111.230469 0)"/>
    </g>
   </g>
   <g id="text_21">
    <!-- 98% -->
    <g style="fill: #262626" transform="translate(339.067597 123.438083) scale(0.1 -0.1)">
     <use xlink:href="#LiberationSans-Bold-39"/>
     <use xlink:href="#LiberationSans-Bold-38" transform="translate(55.615234 0)"/>
     <use xlink:href="#LiberationSans-Bold-25" transform="translate(111.230469 0)"/>
    </g>
   </g>
   <g id="text_22">
    <!-- 95% -->
    <g style="fill: #262626" transform="translate(392.326654 204.430671) scale(0.1 -0.1)">
     <defs>
      <path id="LiberationSans-Bold-35" d="M 3381 1466 
Q 3381 766 2945 351 
Q 2509 -63 1750 -63 
Q 1088 -63 689 235 
Q 291 534 197 1100 
L 1075 1172 
Q 1144 891 1319 762 
Q 1494 634 1759 634 
Q 2088 634 2283 843 
Q 2478 1053 2478 1447 
Q 2478 1794 2293 2001 
Q 2109 2209 1778 2209 
Q 1413 2209 1181 1925 
L 325 1925 
L 478 4403 
L 3125 4403 
L 3125 3750 
L 1275 3750 
L 1203 2638 
Q 1522 2919 2000 2919 
Q 2628 2919 3004 2528 
Q 3381 2138 3381 1466 
z
" transform="scale(0.015625)"/>
     </defs>
     <use xlink:href="#LiberationSans-Bold-39"/>
     <use xlink:href="#LiberationSans-Bold-35" transform="translate(55.615234 0)"/>
     <use xlink:href="#LiberationSans-Bold-25" transform="translate(111.230469 0)"/>
    </g>
   </g>
   <g id="text_23">
    <!-- 100% -->
    <g style="fill: #262626" transform="translate(442.805242 69.443024) scale(0.1 -0.1)">
     <use xlink:href="#LiberationSans-Bold-31"/>
     <use xlink:href="#LiberationSans-Bold-30" transform="translate(55.615234 0)"/>
     <use xlink:href="#LiberationSans-Bold-30" transform="translate(111.230469 0)"/>
     <use xlink:href="#LiberationSans-Bold-25" transform="translate(166.845703 0)"/>
    </g>
   </g>
   <g id="text_24">
    <!-- Pathogenic Motif Detection Sensitivity -->
    <g style="fill: #262626" transform="translate(168.807917 43.92) scale(0.12 -0.12)">
     <defs>
      <path id="LiberationSans-50" d="M 3931 3078 
Q 3931 2453 3523 2084 
Q 3116 1716 2416 1716 
L 1122 1716 
L 1122 0 
L 525 0 
L 525 4403 
L 2378 4403 
Q 3119 4403 3525 4056 
Q 3931 3709 3931 3078 
z
M 3331 3072 
Q 3331 3925 2306 3925 
L 1122 3925 
L 1122 2188 
L 2331 2188 
Q 3331 2188 3331 3072 
z
" transform="scale(0.015625)"/>
      <path id="LiberationSans-66" d="M 1128 2972 
L 1128 0 
L 566 0 
L 566 2972 
L 91 2972 
L 91 3381 
L 566 3381 
L 566 3763 
Q 566 4225 769 4428 
Q 972 4631 1391 4631 
Q 1625 4631 1788 4594 
L 1788 4166 
Q 1647 4191 1538 4191 
Q 1322 4191 1225 4081 
Q 1128 3972 1128 3684 
L 1128 3381 
L 1788 3381 
L 1788 2972 
L 1128 2972 
z
" transform="scale(0.015625)"/>
      <path id="LiberationSans-76" d="M 1916 0 
L 1250 0 
L 22 3381 
L 622 3381 
L 1366 1181 
Q 1406 1056 1581 441 
L 1691 806 
L 1813 1175 
L 2581 3381 
L 3178 3381 
L 1916 0 
z
" transform="scale(0.015625)"/>
     </defs>
     <use xlink:href="#LiberationSans-50"/>
     <use xlink:href="#LiberationSans-61" transform="translate(66.699219 0)"/>
     <use xlink:href="#LiberationSans-74" transform="translate(122.314453 0)"/>
     <use xlink:href="#LiberationSans-68" transform="translate(150.097656 0)"/>
     <use xlink:href="#LiberationSans-6f" transform="translate(205.712891 0)"/>
     <use xlink:href="#LiberationSans-67" transform="translate(261.328125 0)"/>
     <use xlink:href="#LiberationSans-65" transform="translate(316.943359 0)"/>
     <use xlink:href="#LiberationSans-6e" transform="translate(372.558594 0)"/>
     <use xlink:href="#LiberationSans-69" transform="translate(428.173828 0)"/>
     <use xlink:href="#LiberationSans-63" transform="translate(450.390625 0)"/>
     <use xlink:href="#LiberationSans-20" transform="translate(500.390625 0)"/>
     <use xlink:href="#LiberationSans-4d" transform="translate(528.173828 0)"/>
     <use xlink:href="#LiberationSans-6f" transform="translate(611.474609 0)"/>
     <use xlink:href="#LiberationSans-74" transform="translate(667.089844 0)"/>
     <use xlink:href="#LiberationSans-69" transform="translate(694.873047 0)"/>
     <use xlink:href="#LiberationSans-66" transform="translate(717.089844 0)"/>
     <use xlink:href="#LiberationSans-20" transform="translate(744.873047 0)"/>
     <use xlink:href="#LiberationSans-44" transform="translate(772.65625 0)"/>
     <use xlink:href="#LiberationSans-65" transform="translate(844.873047 0)"/>
     <use xlink:href="#LiberationSans-74" transform="translate(900.488281 0)"/>
     <use xlink:href="#LiberationSans-65" transform="translate(928.271484 0)"/>
     <use xlink:href="#LiberationSans-63" transform="translate(983.886719 0)"/>
     <use xlink:href="#LiberationSans-74" transform="translate(1033.886719 0)"/>
     <use xlink:href="#LiberationSans-69" transform="translate(1061.669922 0)"/>
     <use xlink:href="#LiberationSans-6f" transform="translate(1083.886719 0)"/>
     <use xlink:href="#LiberationSans-6e" transform="translate(1139.501953 0)"/>
     <use xlink:href="#LiberationSans-20" transform="translate(1195.117188 0)"/>
     <use xlink:href="#LiberationSans-53" transform="translate(1222.900391 0)"/>
     <use xlink:href="#LiberationSans-65" transform="translate(1289.599609 0)"/>
     <use xlink:href="#LiberationSans-6e" transform="translate(1345.214844 0)"/>
     <use xlink:href="#LiberationSans-73" transform="translate(1400.830078 0)"/>
     <use xlink:href="#LiberationSans-69" transform="translate(1450.830078 0)"/>
     <use xlink:href="#LiberationSans-74" transform="translate(1473.046875 0)"/>
     <use xlink:href="#LiberationSans-69" transform="translate(1500.830078 0)"/>
     <use xlink:href="#LiberationSans-76" transform="translate(1523.046875 0)"/>
     <use xlink:href="#LiberationSans-69" transform="translate(1573.046875 0)"/>
     <use xlink:href="#LiberationSans-74" transform="translate(1595.263672 0)"/>
     <use xlink:href="#LiberationSans-79" transform="translate(1623.046875 0)"/>
    </g>
   </g>
  </g>
  <g id="axes_2">
   <g id="patch_15">
    <path d="M 535.911978 346.892825 
L 992.874688 346.892825 
L 992.874688 49.92 
L 535.911978 49.92 
z
" style="fill: #ffffff"/>
   </g>
   <g id="matplotlib.axis_3">
    <g id="xtick_9">
     <g id="line2d_29">
      <path d="M 577.986633 346.892825 
L 577.986633 49.92 
" clip-path="url(#pca7da61d96)" style="fill: none; stroke: #cccccc; stroke-opacity: 0.3; stroke-width: 0.8; stroke-linecap: round"/>
     </g>
     <g id="line2d_30"/>
     <g id="text_25">
      <!-- Friedreich Ataxia -->
      <g style="fill: #262626" transform="translate(523.857609 408.178917) rotate(-45) scale(0.1 -0.1)">
       <use xlink:href="#LiberationSans-46"/>
       <use xlink:href="#LiberationSans-72" transform="translate(61.083984 0)"/>
       <use xlink:href="#LiberationSans-69" transform="translate(94.384766 0)"/>
       <use xlink:href="#LiberationSans-65" transform="translate(116.601562 0)"/>
       <use xlink:href="#LiberationSans-64" transform="translate(172.216797 0)"/>
       <use xlink:href="#LiberationSans-72" transform="translate(227.832031 0)"/>
       <use xlink:href="#LiberationSans-65" transform="translate(261.132812 0)"/>
       <use xlink:href="#LiberationSans-69" transform="translate(316.748047 0)"/>
       <use xlink:href="#LiberationSans-63" transform="translate(338.964844 0)"/>
       <use xlink:href="#LiberationSans-68" transform="translate(388.964844 0)"/>
       <use xlink:href="#LiberationSans-20" transform="translate(444.580078 0)"/>
       <use xlink:href="#LiberationSans-41" transform="translate(466.863281 0)"/>
       <use xlink:href="#LiberationSans-74" transform="translate(533.5625 0)"/>
       <use xlink:href="#LiberationSans-61" transform="translate(561.345703 0)"/>
       <use xlink:href="#LiberationSans-78" transform="translate(616.960938 0)"/>
       <use xlink:href="#LiberationSans-69" transform="translate(666.960938 0)"/>
       <use xlink:href="#LiberationSans-61" transform="translate(689.177734 0)"/>
      </g>
     </g>
    </g>
    <g id="xtick_10">
     <g id="line2d_31">
      <path d="M 631.24569 346.892825 
L 631.24569 49.92 
" clip-path="url(#pca7da61d96)" style="fill: none; stroke: #cccccc; stroke-opacity: 0.3; stroke-width: 0.8; stroke-linecap: round"/>
     </g>
     <g id="line2d_32"/>
     <g id="text_26">
      <!-- Fragile X -->
      <g style="fill: #262626" transform="translate(601.485334 383.810249) rotate(-45) scale(0.1 -0.1)">
       <use xlink:href="#LiberationSans-46"/>
       <use xlink:href="#LiberationSans-72" transform="translate(61.083984 0)"/>
       <use xlink:href="#LiberationSans-61" transform="translate(94.384766 0)"/>
       <use xlink:href="#LiberationSans-67" transform="translate(150 0)"/>
       <use xlink:href="#LiberationSans-69" transform="translate(205.615234 0)"/>
       <use xlink:href="#LiberationSans-6c" transform="translate(227.832031 0)"/>
       <use xlink:href="#LiberationSans-65" transform="translate(250.048828 0)"/>
       <use xlink:href="#LiberationSans-20" transform="translate(305.664062 0)"/>
       <use xlink:href="#LiberationSans-58" transform="translate(333.447266 0)"/>
      </g>
     </g>
    </g>
    <g id="xtick_11">
     <g id="line2d_33">
      <path d="M 684.504747 346.892825 
L 684.504747 49.92 
" clip-path="url(#pca7da61d96)" style="fill: none; stroke: #cccccc; stroke-opacity: 0.3; stroke-width: 0.8; stroke-linecap: round"/>
     </g>
     <g id="line2d_34"/>
     <g id="text_27">
      <!-- Huntington -->
      <g style="fill: #262626" transform="translate(648.837839 389.716801) rotate(-45) scale(0.1 -0.1)">
       <use xlink:href="#LiberationSans-48"/>
       <use xlink:href="#LiberationSans-75" transform="translate(72.216797 0)"/>
       <use xlink:href="#LiberationSans-6e" transform="translate(127.832031 0)"/>
       <use xlink:href="#LiberationSans-74" transform="translate(183.447266 0)"/>
       <use xlink:href="#LiberationSans-69" transform="translate(211.230469 0)"/>
       <use xlink:href="#LiberationSans-6e" transform="translate(233.447266 0)"/>
       <use xlink:href="#LiberationSans-67" transform="translate(289.0625 0)"/>
       <use xlink:href="#LiberationSans-74" transform="translate(344.677734 0)"/>
       <use xlink:href="#LiberationSans-6f" transform="translate(372.460938 0)"/>
       <use xlink:href="#LiberationSans-6e" transform="translate(428.076172 0)"/>
      </g>
     </g>
    </g>
    <g id="xtick_12">
     <g id="line2d_35">
      <path d="M 737.763804 346.892825 
L 737.763804 49.92 
" clip-path="url(#pca7da61d96)" style="fill: none; stroke: #cccccc; stroke-opacity: 0.3; stroke-width: 0.8; stroke-linecap: round"/>
     </g>
     <g id="line2d_36"/>
     <g id="text_28">
      <!-- Myotonic Dystrophy -->
      <g style="fill: #262626" transform="translate(674.210373 417.603324) rotate(-45) scale(0.1 -0.1)">
       <use xlink:href="#LiberationSans-4d"/>
       <use xlink:href="#LiberationSans-79" transform="translate(83.300781 0)"/>
       <use xlink:href="#LiberationSans-6f" transform="translate(133.300781 0)"/>
       <use xlink:href="#LiberationSans-74" transform="translate(188.916016 0)"/>
       <use xlink:href="#LiberationSans-6f" transform="translate(216.699219 0)"/>
       <use xlink:href="#LiberationSans-6e" transform="translate(272.314453 0)"/>
       <use xlink:href="#LiberationSans-69" transform="translate(327.929688 0)"/>
       <use xlink:href="#LiberationSans-63" transform="translate(350.146484 0)"/>
       <use xlink:href="#LiberationSans-20" transform="translate(400.146484 0)"/>
       <use xlink:href="#LiberationSans-44" transform="translate(427.929688 0)"/>
       <use xlink:href="#LiberationSans-79" transform="translate(500.146484 0)"/>
       <use xlink:href="#LiberationSans-73" transform="translate(550.146484 0)"/>
       <use xlink:href="#LiberationSans-74" transform="translate(600.146484 0)"/>
       <use xlink:href="#LiberationSans-72" transform="translate(627.929688 0)"/>
       <use xlink:href="#LiberationSans-6f" transform="translate(661.230469 0)"/>
       <use xlink:href="#LiberationSans-70" transform="translate(716.845703 0)"/>
       <use xlink:href="#LiberationSans-68" transform="translate(772.460938 0)"/>
       <use xlink:href="#LiberationSans-79" transform="translate(828.076172 0)"/>
      </g>
     </g>
    </g>
    <g id="xtick_13">
     <g id="line2d_37">
      <path d="M 791.022861 346.892825 
L 791.022861 49.92 
" clip-path="url(#pca7da61d96)" style="fill: none; stroke: #cccccc; stroke-opacity: 0.3; stroke-width: 0.8; stroke-linecap: round"/>
     </g>
     <g id="line2d_38"/>
     <g id="text_29">
      <!-- SCA1 -->
      <g style="fill: #262626" transform="translate(771.083555 373.989199) rotate(-45) scale(0.1 -0.1)">
       <use xlink:href="#LiberationSans-53"/>
       <use xlink:href="#LiberationSans-43" transform="translate(66.699219 0)"/>
       <use xlink:href="#LiberationSans-41" transform="translate(138.916016 0)"/>
       <use xlink:href="#LiberationSans-31" transform="translate(205.615234 0)"/>
      </g>
     </g>
    </g>
    <g id="xtick_14">
     <g id="line2d_39">
      <path d="M 844.281918 346.892825 
L 844.281918 49.92 
" clip-path="url(#pca7da61d96)" style="fill: none; stroke: #cccccc; stroke-opacity: 0.3; stroke-width: 0.8; stroke-linecap: round"/>
     </g>
     <g id="line2d_40"/>
     <g id="text_30">
      <!-- SCA2 -->
      <g style="fill: #262626" transform="translate(824.342612 373.989199) rotate(-45) scale(0.1 -0.1)">
       <use xlink:href="#LiberationSans-53"/>
       <use xlink:href="#LiberationSans-43" transform="translate(66.699219 0)"/>
       <use xlink:href="#LiberationSans-41" transform="translate(138.916016 0)"/>
       <use xlink:href="#LiberationSans-32" transform="translate(205.615234 0)"/>
      </g>
     </g>
    </g>
    <g id="xtick_15">
     <g id="line2d_41">
      <path d="M 897.540975 346.892825 
L 897.540975 49.92 
" clip-path="url(#pca7da61d96)" style="fill: none; stroke: #cccccc; stroke-opacity: 0.3; stroke-width: 0.8; stroke-linecap: round"/>
     </g>
     <g id="line2d_42"/>
     <g id="text_31">
      <!-- FXTAS -->
      <g style="fill: #262626" transform="translate(873.807599 377.783269) rotate(-45) scale(0.1 -0.1)">
       <use xlink:href="#LiberationSans-46"/>
       <use xlink:href="#LiberationSans-58" transform="translate(61.083984 0)"/>
       <use xlink:href="#LiberationSans-54" transform="translate(127.783203 0)"/>
       <use xlink:href="#LiberationSans-41" transform="translate(181.492188 0)"/>
       <use xlink:href="#LiberationSans-53" transform="translate(248.191406 0)"/>
      </g>
     </g>
    </g>
    <g id="xtick_16">
     <g id="line2d_43">
      <path d="M 950.800032 346.892825 
L 950.800032 49.92 
" clip-path="url(#pca7da61d96)" style="fill: none; stroke: #cccccc; stroke-opacity: 0.3; stroke-width: 0.8; stroke-linecap: round"/>
     </g>
     <g id="line2d_44"/>
     <g id="text_32">
      <!-- FRDA -->
      <g style="fill: #262626" transform="translate(930.084013 374.765912) rotate(-45) scale(0.1 -0.1)">
       <use xlink:href="#LiberationSans-46"/>
       <use xlink:href="#LiberationSans-52" transform="translate(61.083984 0)"/>
       <use xlink:href="#LiberationSans-44" transform="translate(133.300781 0)"/>
       <use xlink:href="#LiberationSans-41" transform="translate(205.517578 0)"/>
      </g>
     </g>
    </g>
   </g>
   <g id="matplotlib.axis_4">
    <g id="ytick_7">
     <g id="line2d_45">
      <path d="M 535.911978 346.892825 
L 992.874688 346.892825 
" clip-path="url(#pca7da61d96)" style="fill: none; stroke: #cccccc; stroke-opacity: 0.3; stroke-width: 0.8; stroke-linecap: round"/>
     </g>
     <g id="line2d_46"/>
     <g id="text_33">
      <!-- 0 -->
      <g style="fill: #262626" transform="translate(526.851041 350.516262) scale(0.1 -0.1)">
       <use xlink:href="#LiberationSans-30"/>
      </g>
     </g>
    </g>
    <g id="ytick_8">
     <g id="line2d_47">
      <path d="M 535.911978 304.468136 
L 992.874688 304.468136 
" clip-path="url(#pca7da61d96)" style="fill: none; stroke: #cccccc; stroke-opacity: 0.3; stroke-width: 0.8; stroke-linecap: round"/>
     </g>
     <g id="line2d_48"/>
     <g id="text_34">
      <!-- 1 -->
      <g style="fill: #262626" transform="translate(526.851041 308.091573) scale(0.1 -0.1)">
       <use xlink:href="#LiberationSans-31"/>
      </g>
     </g>
    </g>
    <g id="ytick_9">
     <g id="line2d_49">
      <path d="M 535.911978 262.043446 
L 992.874688 262.043446 
" clip-path="url(#pca7da61d96)" style="fill: none; stroke: #cccccc; stroke-opacity: 0.3; stroke-width: 0.8; stroke-linecap: round"/>
     </g>
     <g id="line2d_50"/>
     <g id="text_35">
      <!-- 2 -->
      <g style="fill: #262626" transform="translate(526.851041 265.666884) scale(0.1 -0.1)">
       <use xlink:href="#LiberationSans-32"/>
      </g>
     </g>
    </g>
    <g id="ytick_10">
     <g id="line2d_51">
      <path d="M 535.911978 219.618757 
L 992.874688 219.618757 
" clip-path="url(#pca7da61d96)" style="fill: none; stroke: #cccccc; stroke-opacity: 0.3; stroke-width: 0.8; stroke-linecap: round"/>
     </g>
     <g id="line2d_52"/>
     <g id="text_36">
      <!-- 3 -->
      <g style="fill: #262626" transform="translate(526.851041 223.242195) scale(0.1 -0.1)">
       <defs>
        <path id="LiberationSans-33" d="M 3278 1216 
Q 3278 606 2890 271 
Q 2503 -63 1784 -63 
Q 1116 -63 717 239 
Q 319 541 244 1131 
L 825 1184 
Q 938 403 1784 403 
Q 2209 403 2451 612 
Q 2694 822 2694 1234 
Q 2694 1594 2417 1795 
Q 2141 1997 1619 1997 
L 1300 1997 
L 1300 2484 
L 1606 2484 
Q 2069 2484 2323 2686 
Q 2578 2888 2578 3244 
Q 2578 3597 2370 3801 
Q 2163 4006 1753 4006 
Q 1381 4006 1151 3815 
Q 922 3625 884 3278 
L 319 3322 
Q 381 3863 767 4166 
Q 1153 4469 1759 4469 
Q 2422 4469 2789 4161 
Q 3156 3853 3156 3303 
Q 3156 2881 2920 2617 
Q 2684 2353 2234 2259 
L 2234 2247 
Q 2728 2194 3003 1916 
Q 3278 1638 3278 1216 
z
" transform="scale(0.015625)"/>
       </defs>
       <use xlink:href="#LiberationSans-33"/>
      </g>
     </g>
    </g>
    <g id="ytick_11">
     <g id="line2d_53">
      <path d="M 535.911978 177.194068 
L 992.874688 177.194068 
" clip-path="url(#pca7da61d96)" style="fill: none; stroke: #cccccc; stroke-opacity: 0.3; stroke-width: 0.8; stroke-linecap: round"/>
     </g>
     <g id="line2d_54"/>
     <g id="text_37">
      <!-- 4 -->
      <g style="fill: #262626" transform="translate(526.851041 180.817505) scale(0.1 -0.1)">
       <use xlink:href="#LiberationSans-34"/>
      </g>
     </g>
    </g>
    <g id="ytick_12">
     <g id="line2d_55">
      <path d="M 535.911978 134.769379 
L 992.874688 134.769379 
" clip-path="url(#pca7da61d96)" style="fill: none; stroke: #cccccc; stroke-opacity: 0.3; stroke-width: 0.8; stroke-linecap: round"/>
     </g>
     <g id="line2d_56"/>
     <g id="text_38">
      <!-- 5 -->
      <g style="fill: #262626" transform="translate(526.851041 138.392816) scale(0.1 -0.1)">
       <defs>
        <path id="LiberationSans-35" d="M 3291 1434 
Q 3291 738 2877 337 
Q 2463 -63 1728 -63 
Q 1113 -63 734 206 
Q 356 475 256 984 
L 825 1050 
Q 1003 397 1741 397 
Q 2194 397 2450 670 
Q 2706 944 2706 1422 
Q 2706 1838 2448 2094 
Q 2191 2350 1753 2350 
Q 1525 2350 1328 2278 
Q 1131 2206 934 2034 
L 384 2034 
L 531 4403 
L 3034 4403 
L 3034 3925 
L 1044 3925 
L 959 2528 
Q 1325 2809 1869 2809 
Q 2519 2809 2905 2428 
Q 3291 2047 3291 1434 
z
" transform="scale(0.015625)"/>
       </defs>
       <use xlink:href="#LiberationSans-35"/>
      </g>
     </g>
    </g>
    <g id="ytick_13">
     <g id="line2d_57">
      <path d="M 535.911978 92.344689 
L 992.874688 92.344689 
" clip-path="url(#pca7da61d96)" style="fill: none; stroke: #cccccc; stroke-opacity: 0.3; stroke-width: 0.8; stroke-linecap: round"/>
     </g>
     <g id="line2d_58"/>
     <g id="text_39">
      <!-- 6 -->
      <g style="fill: #262626" transform="translate(526.851041 95.968127) scale(0.1 -0.1)">
       <use xlink:href="#LiberationSans-36"/>
      </g>
     </g>
    </g>
    <g id="ytick_14">
     <g id="line2d_59">
      <path d="M 535.911978 49.92 
L 992.874688 49.92 
" clip-path="url(#pca7da61d96)" style="fill: none; stroke: #cccccc; stroke-opacity: 0.3; stroke-width: 0.8; stroke-linecap: round"/>
     </g>
     <g id="line2d_60"/>
     <g id="text_40">
      <!-- 7 -->
      <g style="fill: #262626" transform="translate(526.851041 53.543438) scale(0.1 -0.1)">
       <defs>
        <path id="LiberationSans-37" d="M 3238 3947 
Q 2563 2916 2284 2331 
Q 2006 1747 1867 1178 
Q 1728 609 1728 0 
L 1141 0 
Q 1141 844 1498 1776 
Q 1856 2709 2694 3925 
L 328 3925 
L 328 4403 
L 3238 4403 
L 3238 3947 
z
" transform="scale(0.015625)"/>
       </defs>
       <use xlink:href="#LiberationSans-37"/>
      </g>
     </g>
    </g>
    <g id="text_41">
     <!-- False Positive Rate (%) -->
     <g style="fill: #262626" transform="translate(520.776041 250.643131) rotate(-90) scale(0.1 -0.1)">
      <use xlink:href="#LiberationSans-46"/>
      <use xlink:href="#LiberationSans-61" transform="translate(61.083984 0)"/>
      <use xlink:href="#LiberationSans-6c" transform="translate(116.699219 0)"/>
      <use xlink:href="#LiberationSans-73" transform="translate(138.916016 0)"/>
      <use xlink:href="#LiberationSans-65" transform="translate(188.916016 0)"/>
      <use xlink:href="#LiberationSans-20" transform="translate(244.53125 0)"/>
      <use xlink:href="#LiberationSans-50" transform="translate(272.314453 0)"/>
      <use xlink:href="#LiberationSans-6f" transform="translate(339.013672 0)"/>
      <use xlink:href="#LiberationSans-73" transform="translate(394.628906 0)"/>
      <use xlink:href="#LiberationSans-69" transform="translate(444.628906 0)"/>
      <use xlink:href="#LiberationSans-74" transform="translate(466.845703 0)"/>
      <use xlink:href="#LiberationSans-69" transform="translate(494.628906 0)"/>
      <use xlink:href="#LiberationSans-76" transform="translate(516.845703 0)"/>
      <use xlink:href="#LiberationSans-65" transform="translate(566.845703 0)"/>
      <use xlink:href="#LiberationSans-20" transform="translate(622.460938 0)"/>
      <use xlink:href="#LiberationSans-52" transform="translate(650.244141 0)"/>
      <use xlink:href="#LiberationSans-61" transform="translate(722.460938 0)"/>
      <use xlink:href="#LiberationSans-74" transform="translate(778.076172 0)"/>
      <use xlink:href="#LiberationSans-65" transform="translate(805.859375 0)"/>
      <use xlink:href="#LiberationSans-20" transform="translate(861.474609 0)"/>
      <use xlink:href="#LiberationSans-28" transform="translate(889.257812 0)"/>
      <use xlink:href="#LiberationSans-25" transform="translate(922.558594 0)"/>
      <use xlink:href="#LiberationSans-29" transform="translate(1011.474609 0)"/>
     </g>
    </g>
   </g>
   <g id="patch_16">
    <path d="M 556.68301 346.892825 
L 599.290256 346.892825 
L 599.290256 262.043446 
L 556.68301 262.043446 
z
" clip-path="url(#pca7da61d96)" style="fill: #ff0000; opacity: 0.7"/>
   </g>
   <g id="patch_17">
    <path d="M 609.942067 346.892825 
L 652.549313 346.892825 
L 652.549313 219.618757 
L 609.942067 219.618757 
z
" clip-path="url(#pca7da61d96)" style="fill: #ff0000; opacity: 0.7"/>
   </g>
   <g id="patch_18">
    <path d="M 663.201124 346.892825 
L 705.80837 346.892825 
L 705.80837 304.468136 
L 663.201124 304.468136 
z
" clip-path="url(#pca7da61d96)" style="fill: #ff0000; opacity: 0.7"/>
   </g>
   <g id="patch_19">
    <path d="M 716.460181 346.892825 
L 759.067427 346.892825 
L 759.067427 177.194068 
L 716.460181 177.194068 
z
" clip-path="url(#pca7da61d96)" style="fill: #ff0000; opacity: 0.7"/>
   </g>
   <g id="patch_20">
    <path d="M 769.719238 346.892825 
L 812.326484 346.892825 
L 812.326484 134.769379 
L 769.719238 134.769379 
z
" clip-path="url(#pca7da61d96)" style="fill: #ff0000; opacity: 0.7"/>
   </g>
   <g id="patch_21">
    <path d="M 822.978296 346.892825 
L 865.585541 346.892825 
L 865.585541 262.043446 
L 822.978296 262.043446 
z
" clip-path="url(#pca7da61d96)" style="fill: #ff0000; opacity: 0.7"/>
   </g>
   <g id="patch_22">
    <path d="M 876.237353 346.892825 
L 918.844598 346.892825 
L 918.844598 92.344689 
L 876.237353 92.344689 
z
" clip-path="url(#pca7da61d96)" style="fill: #ff0000; opacity: 0.7"/>
   </g>
   <g id="patch_23">
    <path d="M 929.49641 346.892825 
L 972.103655 346.892825 
L 972.103655 304.468136 
L 929.49641 304.468136 
z
" clip-path="url(#pca7da61d96)" style="fill: #ff0000; opacity: 0.7"/>
   </g>
   <g id="patch_24">
    <path d="M 535.911978 346.892825 
L 535.911978 49.92 
" style="fill: none; stroke: #cccccc; stroke-linejoin: miter; stroke-linecap: square"/>
   </g>
   <g id="patch_25">
    <path d="M 992.874688 346.892825 
L 992.874688 49.92 
" style="fill: none; stroke: #cccccc; stroke-linejoin: miter; stroke-linecap: square"/>
   </g>
   <g id="patch_26">
    <path d="M 535.911978 346.892825 
L 992.874688 346.892825 
" style="fill: none; stroke: #cccccc; stroke-linejoin: miter; stroke-linecap: square"/>
   </g>
   <g id="patch_27">
    <path d="M 535.911978 49.92 
L 992.874688 49.92 
" style="fill: none; stroke: #cccccc; stroke-linejoin: miter; stroke-linecap: square"/>
   </g>
   <g id="text_42">
    <!-- Specificity Analysis -->
    <g style="fill: #262626" transform="translate(713.706458 43.92) scale(0.12 -0.12)">
     <use xlink:href="#LiberationSans-53"/>
     <use xlink:href="#LiberationSans-70" transform="translate(66.699219 0)"/>
     <use xlink:href="#LiberationSans-65" transform="translate(122.314453 0)"/>
     <use xlink:href="#LiberationSans-63" transform="translate(177.929688 0)"/>
     <use xlink:href="#LiberationSans-69" transform="translate(227.929688 0)"/>
     <use xlink:href="#LiberationSans-66" transform="translate(250.146484 0)"/>
     <use xlink:href="#LiberationSans-69" transform="translate(277.929688 0)"/>
     <use xlink:href="#LiberationSans-63" transform="translate(300.146484 0)"/>
     <use xlink:href="#LiberationSans-69" transform="translate(350.146484 0)"/>
     <use xlink:href="#LiberationSans-74" transform="translate(372.363281 0)"/>
     <use xlink:href="#LiberationSans-79" transform="translate(400.146484 0)"/>
     <use xlink:href="#LiberationSans-20" transform="translate(450.146484 0)"/>
     <use xlink:href="#LiberationSans-41" transform="translate(472.429688 0)"/>
     <use xlink:href="#LiberationSans-6e" transform="translate(539.128906 0)"/>
     <use xlink:href="#LiberationSans-61" transform="translate(594.744141 0)"/>
     <use xlink:href="#LiberationSans-6c" transform="translate(650.359375 0)"/>
     <use xlink:href="#LiberationSans-79" transform="translate(672.576172 0)"/>
     <use xlink:href="#LiberationSans-73" transform="translate(722.576172 0)"/>
     <use xlink:href="#LiberationSans-69" transform="translate(772.576172 0)"/>
     <use xlink:href="#LiberationSans-73" transform="translate(794.792969 0)"/>
    </g>
   </g>
  </g>
  <g id="text_43">
   <!-- NBDFinder Validation on Pathogenic Sequences -->
   <g style="fill: #262626" transform="translate(316.099687 18.795) scale(0.16 -0.16)">
    <defs>
     <path id="LiberationSans-Bold-4e" d="M 3109 0 
L 1191 3391 
Q 1247 2897 1247 2597 
L 1247 0 
L 428 0 
L 428 4403 
L 1481 4403 
L 3428 984 
Q 3372 1456 3372 1844 
L 3372 4403 
L 4191 4403 
L 4191 0 
L 3109 0 
z
" transform="scale(0.015625)"/>
     <path id="LiberationSans-Bold-42" d="M 4331 1256 
Q 4331 656 3881 328 
Q 3431 0 2631 0 
L 428 0 
L 428 4403 
L 2444 4403 
Q 3250 4403 3664 4123 
Q 4078 3844 4078 3297 
Q 4078 2922 3870 2664 
Q 3663 2406 3238 2316 
Q 3772 2253 4051 1979 
Q 4331 1706 4331 1256 
z
M 3150 3172 
Q 3150 3469 2961 3594 
Q 2772 3719 2400 3719 
L 1350 3719 
L 1350 2628 
L 2406 2628 
Q 2797 2628 2973 2764 
Q 3150 2900 3150 3172 
z
M 3406 1328 
Q 3406 1947 2519 1947 
L 1350 1947 
L 1350 684 
L 2553 684 
Q 2997 684 3201 845 
Q 3406 1006 3406 1328 
z
" transform="scale(0.015625)"/>
     <path id="LiberationSans-Bold-44" d="M 4353 2234 
Q 4353 1553 4086 1045 
Q 3819 538 3330 269 
Q 2841 0 2209 0 
L 428 0 
L 428 4403 
L 2022 4403 
Q 3134 4403 3743 3842 
Q 4353 3281 4353 2234 
z
M 3425 2234 
Q 3425 2944 3056 3317 
Q 2688 3691 2003 3691 
L 1350 3691 
L 1350 713 
L 2131 713 
Q 2725 713 3075 1122 
Q 3425 1531 3425 2234 
z
" transform="scale(0.015625)"/>
     <path id="LiberationSans-Bold-46" d="M 1350 3691 
L 1350 2328 
L 3603 2328 
L 3603 1616 
L 1350 1616 
L 1350 0 
L 428 0 
L 428 4403 
L 3675 4403 
L 3675 3691 
L 1350 3691 
z
" transform="scale(0.015625)"/>
     <path id="LiberationSans-Bold-69" d="M 447 3991 
L 447 4638 
L 1325 4638 
L 1325 3991 
L 447 3991 
z
M 447 0 
L 447 3381 
L 1325 3381 
L 1325 0 
L 447 0 
z
" transform="scale(0.015625)"/>
     <path id="LiberationSans-Bold-6e" d="M 2638 0 
L 2638 1897 
Q 2638 2788 2034 2788 
Q 1716 2788 1520 2514 
Q 1325 2241 1325 1813 
L 1325 0 
L 447 0 
L 447 2625 
Q 447 2897 439 3070 
Q 431 3244 422 3381 
L 1259 3381 
Q 1269 3322 1284 3064 
Q 1300 2806 1300 2709 
L 1313 2709 
Q 1491 3097 1759 3272 
Q 2028 3447 2400 3447 
Q 2938 3447 3225 3115 
Q 3513 2784 3513 2147 
L 3513 0 
L 2638 0 
z
" transform="scale(0.015625)"/>
     <path id="LiberationSans-Bold-64" d="M 2638 0 
Q 2625 47 2608 236 
Q 2591 425 2591 550 
L 2578 550 
Q 2294 -63 1497 -63 
Q 906 -63 584 398 
Q 263 859 263 1688 
Q 263 2528 602 2986 
Q 941 3444 1563 3444 
Q 1922 3444 2183 3294 
Q 2444 3144 2584 2847 
L 2591 2847 
L 2584 3403 
L 2584 4638 
L 3463 4638 
L 3463 738 
Q 3463 425 3488 0 
L 2638 0 
z
M 2597 1709 
Q 2597 2256 2414 2551 
Q 2231 2847 1875 2847 
Q 1522 2847 1350 2561 
Q 1178 2275 1178 1688 
Q 1178 538 1869 538 
Q 2216 538 2406 842 
Q 2597 1147 2597 1709 
z
" transform="scale(0.015625)"/>
     <path id="LiberationSans-Bold-65" d="M 1831 -63 
Q 1069 -63 659 389 
Q 250 841 250 1706 
Q 250 2544 665 2994 
Q 1081 3444 1844 3444 
Q 2572 3444 2956 2961 
Q 3341 2478 3341 1547 
L 3341 1522 
L 1172 1522 
Q 1172 1028 1355 776 
Q 1538 525 1875 525 
Q 2341 525 2463 928 
L 3291 856 
Q 2931 -63 1831 -63 
z
M 1831 2891 
Q 1522 2891 1355 2675 
Q 1188 2459 1178 2072 
L 2491 2072 
Q 2466 2481 2294 2686 
Q 2122 2891 1831 2891 
z
" transform="scale(0.015625)"/>
     <path id="LiberationSans-Bold-72" d="M 447 0 
L 447 2588 
Q 447 2866 439 3052 
Q 431 3238 422 3381 
L 1259 3381 
Q 1269 3325 1284 3039 
Q 1300 2753 1300 2659 
L 1313 2659 
Q 1441 3016 1541 3161 
Q 1641 3306 1778 3376 
Q 1916 3447 2122 3447 
Q 2291 3447 2394 3400 
L 2394 2666 
Q 2181 2713 2019 2713 
Q 1691 2713 1508 2447 
Q 1325 2181 1325 1659 
L 1325 0 
L 447 0 
z
" transform="scale(0.015625)"/>
     <path id="LiberationSans-Bold-20" transform="scale(0.015625)"/>
     <path id="LiberationSans-Bold-56" d="M 2606 0 
L 1672 0 
L 44 4403 
L 1006 4403 
L 1913 1575 
Q 1997 1300 2144 744 
L 2209 1013 
L 2369 1575 
L 3272 4403 
L 4225 4403 
L 2606 0 
z
" transform="scale(0.015625)"/>
     <path id="LiberationSans-Bold-61" d="M 1228 -63 
Q 738 -63 463 204 
Q 188 472 188 956 
Q 188 1481 530 1756 
Q 872 2031 1522 2038 
L 2250 2050 
L 2250 2222 
Q 2250 2553 2134 2714 
Q 2019 2875 1756 2875 
Q 1513 2875 1398 2764 
Q 1284 2653 1256 2397 
L 341 2441 
Q 425 2934 792 3189 
Q 1159 3444 1794 3444 
Q 2434 3444 2781 3128 
Q 3128 2813 3128 2231 
L 3128 1000 
Q 3128 716 3192 608 
Q 3256 500 3406 500 
Q 3506 500 3600 519 
L 3600 44 
Q 3522 25 3459 9 
Q 3397 -6 3334 -15 
Q 3272 -25 3201 -31 
Q 3131 -38 3038 -38 
Q 2706 -38 2548 125 
Q 2391 288 2359 603 
L 2341 603 
Q 1972 -63 1228 -63 
z
M 2250 1566 
L 1800 1559 
Q 1494 1547 1366 1492 
Q 1238 1438 1170 1325 
Q 1103 1213 1103 1025 
Q 1103 784 1214 667 
Q 1325 550 1509 550 
Q 1716 550 1886 662 
Q 2056 775 2153 973 
Q 2250 1172 2250 1394 
L 2250 1566 
z
" transform="scale(0.015625)"/>
     <path id="LiberationSans-Bold-6c" d="M 447 0 
L 447 4638 
L 1325 4638 
L 1325 0 
L 447 0 
z
" transform="scale(0.015625)"/>
     <path id="LiberationSans-Bold-74" d="M 1313 -56 
Q 925 -56 715 155 
Q 506 366 506 794 
L 506 2788 
L 78 2788 
L 78 3381 
L 550 3381 
L 825 4175 
L 1375 4175 
L 1375 3381 
L 2016 3381 
L 2016 2788 
L 1375 2788 
L 1375 1031 
Q 1375 784 1469 667 
Q 1563 550 1759 550 
Q 1863 550 2053 594 
L 2053 50 
Q 1728 -56 1313 -56 
z
" transform="scale(0.015625)"/>
     <path id="LiberationSans-Bold-6f" d="M 3659 1694 
Q 3659 872 3203 404 
Q 2747 -63 1941 -63 
Q 1150 -63 700 406 
Q 250 875 250 1694 
Q 250 2509 700 2976 
Q 1150 3444 1959 3444 
Q 2788 3444 3223 2992 
Q 3659 2541 3659 1694 
z
M 2741 1694 
Q 2741 2297 2544 2569 
Q 2347 2841 1972 2841 
Q 1172 2841 1172 1694 
Q 1172 1128 1367 833 
Q 1563 538 1931 538 
Q 2741 538 2741 1694 
z
" transform="scale(0.015625)"/>
     <path id="LiberationSans-Bold-50" d="M 4050 3009 
Q 4050 2584 3856 2250 
Q 3663 1916 3302 1733 
Q 2941 1550 2444 1550 
L 1350 1550 
L 1350 0 
L 428 0 
L 428 4403 
L 2406 4403 
Q 3197 4403 3623 4039 
Q 4050 3675 4050 3009 
z
M 3122 2994 
Q 3122 3688 2303 3688 
L 1350 3688 
L 1350 2259 
L 2328 2259 
Q 2709 2259 2915 2448 
Q 3122 2638 3122 2994 
z
" transform="scale(0.015625)"/>
     <path id="LiberationSans-Bold-68" d="M 1313 2706 
Q 1491 3094 1759 3269 
Q 2028 3444 2400 3444 
Q 2938 3444 3225 3112 
Q 3513 2781 3513 2144 
L 3513 0 
L 2638 0 
L 2638 1894 
Q 2638 2784 2034 2784 
Q 1716 2784 1520 2511 
Q 1325 2238 1325 1809 
L 1325 0 
L 447 0 
L 447 4638 
L 1325 4638 
L 1325 3372 
Q 1325 3031 1300 2706 
L 1313 2706 
z
" transform="scale(0.015625)"/>
     <path id="LiberationSans-Bold-67" d="M 1863 -1356 
Q 1244 -1356 867 -1120 
Q 491 -884 403 -447 
L 1281 -344 
Q 1328 -547 1483 -662 
Q 1638 -778 1888 -778 
Q 2253 -778 2422 -553 
Q 2591 -328 2591 116 
L 2591 294 
L 2597 628 
L 2591 628 
Q 2300 6 1503 6 
Q 913 6 588 450 
Q 263 894 263 1719 
Q 263 2547 597 2997 
Q 931 3447 1569 3447 
Q 2306 3447 2591 2838 
L 2606 2838 
Q 2606 2947 2620 3134 
Q 2634 3322 2650 3381 
L 3481 3381 
Q 3463 3044 3463 2600 
L 3463 103 
Q 3463 -619 3053 -987 
Q 2644 -1356 1863 -1356 
z
M 2597 1738 
Q 2597 2259 2411 2551 
Q 2225 2844 1881 2844 
Q 1178 2844 1178 1719 
Q 1178 616 1875 616 
Q 2225 616 2411 908 
Q 2597 1200 2597 1738 
z
" transform="scale(0.015625)"/>
     <path id="LiberationSans-Bold-63" d="M 1856 -63 
Q 1088 -63 669 395 
Q 250 853 250 1672 
Q 250 2509 672 2976 
Q 1094 3444 1869 3444 
Q 2466 3444 2856 3144 
Q 3247 2844 3347 2316 
L 2463 2272 
Q 2425 2531 2275 2686 
Q 2125 2841 1850 2841 
Q 1172 2841 1172 1706 
Q 1172 538 1863 538 
Q 2113 538 2281 695 
Q 2450 853 2491 1166 
L 3372 1125 
Q 3325 778 3123 506 
Q 2922 234 2594 85 
Q 2266 -63 1856 -63 
z
" transform="scale(0.015625)"/>
     <path id="LiberationSans-Bold-53" d="M 4019 1269 
Q 4019 622 3539 279 
Q 3059 -63 2131 -63 
Q 1284 -63 803 237 
Q 322 538 184 1147 
L 1075 1294 
Q 1166 944 1428 786 
Q 1691 628 2156 628 
Q 3122 628 3122 1216 
Q 3122 1403 3011 1525 
Q 2900 1647 2698 1728 
Q 2497 1809 1925 1925 
Q 1431 2041 1237 2111 
Q 1044 2181 887 2276 
Q 731 2372 622 2506 
Q 513 2641 452 2822 
Q 391 3003 391 3238 
Q 391 3834 839 4151 
Q 1288 4469 2144 4469 
Q 2963 4469 3373 4212 
Q 3784 3956 3903 3366 
L 3009 3244 
Q 2941 3528 2730 3672 
Q 2519 3816 2125 3816 
Q 1288 3816 1288 3291 
Q 1288 3119 1377 3009 
Q 1466 2900 1641 2823 
Q 1816 2747 2350 2631 
Q 2984 2497 3257 2383 
Q 3531 2269 3690 2117 
Q 3850 1966 3934 1755 
Q 4019 1544 4019 1269 
z
" transform="scale(0.015625)"/>
     <path id="LiberationSans-Bold-71" d="M 263 1688 
Q 263 2525 605 2986 
Q 947 3447 1569 3447 
Q 2306 3447 2591 2838 
Q 2591 2981 2608 3157 
Q 2625 3334 2638 3381 
L 3481 3381 
Q 3463 3044 3463 2603 
L 3463 -1328 
L 2591 -1328 
L 2591 78 
L 2606 563 
L 2600 563 
Q 2309 -63 1497 -63 
Q 906 -63 584 398 
Q 263 859 263 1688 
z
M 2597 1706 
Q 2597 2247 2415 2545 
Q 2234 2844 1881 2844 
Q 1178 2844 1178 1688 
Q 1178 538 1875 538 
Q 2219 538 2408 842 
Q 2597 1147 2597 1706 
z
" transform="scale(0.015625)"/>
     <path id="LiberationSans-Bold-75" d="M 1275 3381 
L 1275 1484 
Q 1275 594 1875 594 
Q 2194 594 2389 867 
Q 2584 1141 2584 1569 
L 2584 3381 
L 3463 3381 
L 3463 756 
Q 3463 325 3488 0 
L 2650 0 
Q 2613 450 2613 672 
L 2597 672 
Q 2422 288 2151 112 
Q 1881 -63 1509 -63 
Q 972 -63 684 267 
Q 397 597 397 1234 
L 397 3381 
L 1275 3381 
z
" transform="scale(0.015625)"/>
     <path id="LiberationSans-Bold-73" d="M 3297 988 
Q 3297 497 2895 217 
Q 2494 -63 1784 -63 
Q 1088 -63 717 157 
Q 347 378 225 844 
L 997 959 
Q 1063 719 1223 619 
Q 1384 519 1784 519 
Q 2153 519 2322 612 
Q 2491 706 2491 906 
Q 2491 1069 2355 1164 
Q 2219 1259 1894 1325 
Q 1150 1472 890 1598 
Q 631 1725 495 1926 
Q 359 2128 359 2422 
Q 359 2906 732 3176 
Q 1106 3447 1791 3447 
Q 2394 3447 2761 3212 
Q 3128 2978 3219 2534 
L 2441 2453 
Q 2403 2659 2256 2761 
Q 2109 2863 1791 2863 
Q 1478 2863 1322 2783 
Q 1166 2703 1166 2516 
Q 1166 2369 1286 2283 
Q 1406 2197 1691 2141 
Q 2088 2059 2395 1973 
Q 2703 1888 2889 1769 
Q 3075 1650 3186 1464 
Q 3297 1278 3297 988 
z
" transform="scale(0.015625)"/>
    </defs>
    <use xlink:href="#LiberationSans-Bold-4e"/>
    <use xlink:href="#LiberationSans-Bold-42" transform="translate(72.216797 0)"/>
    <use xlink:href="#LiberationSans-Bold-44" transform="translate(144.433594 0)"/>
    <use xlink:href="#LiberationSans-Bold-46" transform="translate(216.650391 0)"/>
    <use xlink:href="#LiberationSans-Bold-69" transform="translate(277.734375 0)"/>
    <use xlink:href="#LiberationSans-Bold-6e" transform="translate(305.517578 0)"/>
    <use xlink:href="#LiberationSans-Bold-64" transform="translate(366.601562 0)"/>
    <use xlink:href="#LiberationSans-Bold-65" transform="translate(427.685547 0)"/>
    <use xlink:href="#LiberationSans-Bold-72" transform="translate(483.300781 0)"/>
    <use xlink:href="#LiberationSans-Bold-20" transform="translate(522.216797 0)"/>
    <use xlink:href="#LiberationSans-Bold-56" transform="translate(550 0)"/>
    <use xlink:href="#LiberationSans-Bold-61" transform="translate(611.199219 0)"/>
    <use xlink:href="#LiberationSans-Bold-6c" transform="translate(666.814453 0)"/>
    <use xlink:href="#LiberationSans-Bold-69" transform="translate(694.597656 0)"/>
    <use xlink:href="#LiberationSans-Bold-64" transform="translate(722.380859 0)"/>
    <use xlink:href="#LiberationSans-Bold-61" transform="translate(783.464844 0)"/>
    <use xlink:href="#LiberationSans-Bold-74" transform="translate(839.080078 0)"/>
    <use xlink:href="#LiberationSans-Bold-69" transform="translate(872.380859 0)"/>
    <use xlink:href="#LiberationSans-Bold-6f" transform="translate(900.164062 0)"/>
    <use xlink:href="#LiberationSans-Bold-6e" transform="translate(961.248047 0)"/>
    <use xlink:href="#LiberationSans-Bold-20" transform="translate(1022.332031 0)"/>
    <use xlink:href="#LiberationSans-Bold-6f" transform="translate(1050.115234 0)"/>
    <use xlink:href="#LiberationSans-Bold-6e" transform="translate(1111.199219 0)"/>
    <use xlink:href="#LiberationSans-Bold-20" transform="translate(1172.283203 0)"/>
    <use xlink:href="#LiberationSans-Bold-50" transform="translate(1200.066406 0)"/>
    <use xlink:href="#LiberationSans-Bold-61" transform="translate(1266.765625 0)"/>
    <use xlink:href="#LiberationSans-Bold-74" transform="translate(1322.380859 0)"/>
    <use xlink:href="#LiberationSans-Bold-68" transform="translate(1355.681641 0)"/>
    <use xlink:href="#LiberationSans-Bold-6f" transform="translate(1416.765625 0)"/>
    <use xlink:href="#LiberationSans-Bold-67" transform="translate(1477.849609 0)"/>
    <use xlink:href="#LiberationSans-Bold-65" transform="translate(1538.933594 0)"/>
    <use xlink:href="#LiberationSans-Bold-6e" transform="translate(1594.548828 0)"/>
    <use xlink:href="#LiberationSans-Bold-69" transform="translate(1655.632812 0)"/>
    <use xlink:href="#LiberationSans-Bold-63" transform="translate(1683.416016 0)"/>
    <use xlink:href="#LiberationSans-Bold-20" transform="translate(1739.03125 0)"/>
    <use xlink:href="#LiberationSans-Bold-53" transform="translate(1766.814453 0)"/>
    <use xlink:href="#LiberationSans-Bold-65" transform="translate(1833.513672 0)"/>
    <use xlink:href="#LiberationSans-Bold-71" transform="translate(1889.128906 0)"/>
    <use xlink:href="#LiberationSans-Bold-75" transform="translate(1950.212891 0)"/>
    <use xlink:href="#LiberationSans-Bold-65" transform="translate(2011.296875 0)"/>
    <use xlink:href="#LiberationSans-Bold-6e" transform="translate(2066.912109 0)"/>
    <use xlink:href="#LiberationSans-Bold-63" transform="translate(2127.996094 0)"/>
    <use xlink:href="#LiberationSans-Bold-65" transform="translate(2183.611328 0)"/>
    <use xlink:href="#LiberationSans-Bold-73" transform="translate(2239.226562 0)"/>
   </g>
  </g>
 </g>
 <defs>
  <clipPath id="pdfd9359e51">
   <rect x="40.704688" y="49.92" width="456.962709" height="296.972825"/>
  </clipPath>
  <clipPath id="pca7da61d96">
   <rect x="535.911978" y="49.92" width="456.962709" height="296.972825"/>
  </clipPath>
 </defs>
</svg>
