<?xml version="1.0" encoding="utf-8" standalone="no"?>
<!DOCTYPE svg PUBLIC "-//W3C//DTD SVG 1.1//EN"
  "http://www.w3.org/Graphics/SVG/1.1/DTD/svg11.dtd">
<svg xmlns:xlink="http://www.w3.org/1999/xlink" width="951.84pt" height="378.635pt" viewBox="0 0 951.84 378.635" xmlns="http://www.w3.org/2000/svg" version="1.1">
 <metadata>
  <rdf:RDF xmlns:dc="http://purl.org/dc/elements/1.1/" xmlns:cc="http://creativecommons.org/ns#" xmlns:rdf="http://www.w3.org/1999/02/22-rdf-syntax-ns#">
   <cc:Work>
    <dc:type rdf:resource="http://purl.org/dc/dcmitype/StillImage"/>
    <dc:date>2025-08-16T10:29:12.174130</dc:date>
    <dc:format>image/svg+xml</dc:format>
    <dc:creator>
     <cc:Agent>
      <dc:title>Matplotlib v3.10.5, https://matplotlib.org/</dc:title>
     </cc:Agent>
    </dc:creator>
   </cc:Work>
  </rdf:RDF>
 </metadata>
 <defs>
  <style type="text/css">*{stroke-linejoin: round; stroke-linecap: butt}</style>
 </defs>
 <g id="figure_1">
  <g id="patch_1">
   <path d="M 0 378.635 
L 951.84 378.635 
L 951.84 -0 
L 0 -0 
z
" style="fill: #ffffff"/>
  </g>
  <g id="axes_1">
   <g id="table_1">
    <g id="patch_2">
     <path d="M 7.2 142.115 
L 163.44 142.115 
L 163.44 124.115 
L 7.2 124.115 
z
" style="fill: #4caf50; stroke: #000000; stroke-linejoin: miter"/>
    </g>
    <g id="text_1">
     <!-- Algorithm -->
     <g style="fill: #ffffff" transform="translate(61.712188 135.679062) scale(0.1 -0.1)">
      <defs>
       <path id="LiberationSans-Bold-41" d="M 3541 0 
L 3150 1125 
L 1472 1125 
L 1081 0 
L 159 0 
L 1766 4403 
L 2853 4403 
L 4453 0 
L 3541 0 
z
M 2309 3725 
L 2291 3656 
Q 2259 3544 2215 3400 
Q 2172 3256 1678 1819 
L 2944 1819 
L 2509 3084 
L 2375 3509 
L 2309 3725 
z
" transform="scale(0.015625)"/>
       <path id="LiberationSans-Bold-6c" d="M 447 0 
L 447 4638 
L 1325 4638 
L 1325 0 
L 447 0 
z
" transform="scale(0.015625)"/>
       <path id="LiberationSans-Bold-67" d="M 1863 -1356 
Q 1244 -1356 867 -1120 
Q 491 -884 403 -447 
L 1281 -344 
Q 1328 -547 1483 -662 
Q 1638 -778 1888 -778 
Q 2253 -778 2422 -553 
Q 2591 -328 2591 116 
L 2591 294 
L 2597 628 
L 2591 628 
Q 2300 6 1503 6 
Q 913 6 588 450 
Q 263 894 263 1719 
Q 263 2547 597 2997 
Q 931 3447 1569 3447 
Q 2306 3447 2591 2838 
L 2606 2838 
Q 2606 2947 2620 3134 
Q 2634 3322 2650 3381 
L 3481 3381 
Q 3463 3044 3463 2600 
L 3463 103 
Q 3463 -619 3053 -987 
Q 2644 -1356 1863 -1356 
z
M 2597 1738 
Q 2597 2259 2411 2551 
Q 2225 2844 1881 2844 
Q 1178 2844 1178 1719 
Q 1178 616 1875 616 
Q 2225 616 2411 908 
Q 2597 1200 2597 1738 
z
" transform="scale(0.015625)"/>
       <path id="LiberationSans-Bold-6f" d="M 3659 1694 
Q 3659 872 3203 404 
Q 2747 -63 1941 -63 
Q 1150 -63 700 406 
Q 250 875 250 1694 
Q 250 2509 700 2976 
Q 1150 3444 1959 3444 
Q 2788 3444 3223 2992 
Q 3659 2541 3659 1694 
z
M 2741 1694 
Q 2741 2297 2544 2569 
Q 2347 2841 1972 2841 
Q 1172 2841 1172 1694 
Q 1172 1128 1367 833 
Q 1563 538 1931 538 
Q 2741 538 2741 1694 
z
" transform="scale(0.015625)"/>
       <path id="LiberationSans-Bold-72" d="M 447 0 
L 447 2588 
Q 447 2866 439 3052 
Q 431 3238 422 3381 
L 1259 3381 
Q 1269 3325 1284 3039 
Q 1300 2753 1300 2659 
L 1313 2659 
Q 1441 3016 1541 3161 
Q 1641 3306 1778 3376 
Q 1916 3447 2122 3447 
Q 2291 3447 2394 3400 
L 2394 2666 
Q 2181 2713 2019 2713 
Q 1691 2713 1508 2447 
Q 1325 2181 1325 1659 
L 1325 0 
L 447 0 
z
" transform="scale(0.015625)"/>
       <path id="LiberationSans-Bold-69" d="M 447 3991 
L 447 4638 
L 1325 4638 
L 1325 3991 
L 447 3991 
z
M 447 0 
L 447 3381 
L 1325 3381 
L 1325 0 
L 447 0 
z
" transform="scale(0.015625)"/>
       <path id="LiberationSans-Bold-74" d="M 1313 -56 
Q 925 -56 715 155 
Q 506 366 506 794 
L 506 2788 
L 78 2788 
L 78 3381 
L 550 3381 
L 825 4175 
L 1375 4175 
L 1375 3381 
L 2016 3381 
L 2016 2788 
L 1375 2788 
L 1375 1031 
Q 1375 784 1469 667 
Q 1563 550 1759 550 
Q 1863 550 2053 594 
L 2053 50 
Q 1728 -56 1313 -56 
z
" transform="scale(0.015625)"/>
       <path id="LiberationSans-Bold-68" d="M 1313 2706 
Q 1491 3094 1759 3269 
Q 2028 3444 2400 3444 
Q 2938 3444 3225 3112 
Q 3513 2781 3513 2144 
L 3513 0 
L 2638 0 
L 2638 1894 
Q 2638 2784 2034 2784 
Q 1716 2784 1520 2511 
Q 1325 2238 1325 1809 
L 1325 0 
L 447 0 
L 447 4638 
L 1325 4638 
L 1325 3372 
Q 1325 3031 1300 2706 
L 1313 2706 
z
" transform="scale(0.015625)"/>
       <path id="LiberationSans-Bold-6d" d="M 2438 0 
L 2438 1897 
Q 2438 2788 1925 2788 
Q 1659 2788 1492 2516 
Q 1325 2244 1325 1813 
L 1325 0 
L 447 0 
L 447 2625 
Q 447 2897 439 3070 
Q 431 3244 422 3381 
L 1259 3381 
Q 1269 3322 1284 3064 
Q 1300 2806 1300 2709 
L 1313 2709 
Q 1475 3097 1717 3272 
Q 1959 3447 2297 3447 
Q 3072 3447 3238 2709 
L 3256 2709 
Q 3428 3103 3668 3275 
Q 3909 3447 4281 3447 
Q 4775 3447 5034 3111 
Q 5294 2775 5294 2147 
L 5294 0 
L 4422 0 
L 4422 1897 
Q 4422 2788 3909 2788 
Q 3653 2788 3489 2539 
Q 3325 2291 3309 1853 
L 3309 0 
L 2438 0 
z
" transform="scale(0.015625)"/>
      </defs>
      <use xlink:href="#LiberationSans-Bold-41"/>
      <use xlink:href="#LiberationSans-Bold-6c" transform="translate(72.216797 0)"/>
      <use xlink:href="#LiberationSans-Bold-67" transform="translate(100 0)"/>
      <use xlink:href="#LiberationSans-Bold-6f" transform="translate(161.083984 0)"/>
      <use xlink:href="#LiberationSans-Bold-72" transform="translate(222.167969 0)"/>
      <use xlink:href="#LiberationSans-Bold-69" transform="translate(261.083984 0)"/>
      <use xlink:href="#LiberationSans-Bold-74" transform="translate(288.867188 0)"/>
      <use xlink:href="#LiberationSans-Bold-68" transform="translate(322.167969 0)"/>
      <use xlink:href="#LiberationSans-Bold-6d" transform="translate(383.251953 0)"/>
     </g>
    </g>
    <g id="patch_3">
     <path d="M 163.44 142.115 
L 319.68 142.115 
L 319.68 124.115 
L 163.44 124.115 
z
" style="fill: #4caf50; stroke: #000000; stroke-linejoin: miter"/>
    </g>
    <g id="text_2">
     <!-- Sensitivity (%) -->
     <g style="fill: #ffffff" transform="translate(207.387344 135.700937) scale(0.1 -0.1)">
      <defs>
       <path id="LiberationSans-Bold-53" d="M 4019 1269 
Q 4019 622 3539 279 
Q 3059 -63 2131 -63 
Q 1284 -63 803 237 
Q 322 538 184 1147 
L 1075 1294 
Q 1166 944 1428 786 
Q 1691 628 2156 628 
Q 3122 628 3122 1216 
Q 3122 1403 3011 1525 
Q 2900 1647 2698 1728 
Q 2497 1809 1925 1925 
Q 1431 2041 1237 2111 
Q 1044 2181 887 2276 
Q 731 2372 622 2506 
Q 513 2641 452 2822 
Q 391 3003 391 3238 
Q 391 3834 839 4151 
Q 1288 4469 2144 4469 
Q 2963 4469 3373 4212 
Q 3784 3956 3903 3366 
L 3009 3244 
Q 2941 3528 2730 3672 
Q 2519 3816 2125 3816 
Q 1288 3816 1288 3291 
Q 1288 3119 1377 3009 
Q 1466 2900 1641 2823 
Q 1816 2747 2350 2631 
Q 2984 2497 3257 2383 
Q 3531 2269 3690 2117 
Q 3850 1966 3934 1755 
Q 4019 1544 4019 1269 
z
" transform="scale(0.015625)"/>
       <path id="LiberationSans-Bold-65" d="M 1831 -63 
Q 1069 -63 659 389 
Q 250 841 250 1706 
Q 250 2544 665 2994 
Q 1081 3444 1844 3444 
Q 2572 3444 2956 2961 
Q 3341 2478 3341 1547 
L 3341 1522 
L 1172 1522 
Q 1172 1028 1355 776 
Q 1538 525 1875 525 
Q 2341 525 2463 928 
L 3291 856 
Q 2931 -63 1831 -63 
z
M 1831 2891 
Q 1522 2891 1355 2675 
Q 1188 2459 1178 2072 
L 2491 2072 
Q 2466 2481 2294 2686 
Q 2122 2891 1831 2891 
z
" transform="scale(0.015625)"/>
       <path id="LiberationSans-Bold-6e" d="M 2638 0 
L 2638 1897 
Q 2638 2788 2034 2788 
Q 1716 2788 1520 2514 
Q 1325 2241 1325 1813 
L 1325 0 
L 447 0 
L 447 2625 
Q 447 2897 439 3070 
Q 431 3244 422 3381 
L 1259 3381 
Q 1269 3322 1284 3064 
Q 1300 2806 1300 2709 
L 1313 2709 
Q 1491 3097 1759 3272 
Q 2028 3447 2400 3447 
Q 2938 3447 3225 3115 
Q 3513 2784 3513 2147 
L 3513 0 
L 2638 0 
z
" transform="scale(0.015625)"/>
       <path id="LiberationSans-Bold-73" d="M 3297 988 
Q 3297 497 2895 217 
Q 2494 -63 1784 -63 
Q 1088 -63 717 157 
Q 347 378 225 844 
L 997 959 
Q 1063 719 1223 619 
Q 1384 519 1784 519 
Q 2153 519 2322 612 
Q 2491 706 2491 906 
Q 2491 1069 2355 1164 
Q 2219 1259 1894 1325 
Q 1150 1472 890 1598 
Q 631 1725 495 1926 
Q 359 2128 359 2422 
Q 359 2906 732 3176 
Q 1106 3447 1791 3447 
Q 2394 3447 2761 3212 
Q 3128 2978 3219 2534 
L 2441 2453 
Q 2403 2659 2256 2761 
Q 2109 2863 1791 2863 
Q 1478 2863 1322 2783 
Q 1166 2703 1166 2516 
Q 1166 2369 1286 2283 
Q 1406 2197 1691 2141 
Q 2088 2059 2395 1973 
Q 2703 1888 2889 1769 
Q 3075 1650 3186 1464 
Q 3297 1278 3297 988 
z
" transform="scale(0.015625)"/>
       <path id="LiberationSans-Bold-76" d="M 2284 0 
L 1234 0 
L 25 3381 
L 953 3381 
L 1544 1491 
Q 1591 1334 1766 709 
Q 1797 838 1894 1159 
Q 1991 1481 2613 3381 
L 3531 3381 
L 2284 0 
z
" transform="scale(0.015625)"/>
       <path id="LiberationSans-Bold-79" d="M 884 -1328 
Q 569 -1328 331 -1288 
L 331 -663 
Q 497 -688 634 -688 
Q 822 -688 945 -628 
Q 1069 -569 1167 -431 
Q 1266 -294 1388 34 
L 50 3381 
L 978 3381 
L 1509 1797 
Q 1634 1456 1825 753 
L 1903 1050 
L 2106 1784 
L 2606 3381 
L 3525 3381 
L 2188 -178 
Q 1919 -828 1630 -1078 
Q 1341 -1328 884 -1328 
z
" transform="scale(0.015625)"/>
       <path id="LiberationSans-Bold-20" transform="scale(0.015625)"/>
       <path id="LiberationSans-Bold-28" d="M 1247 -1328 
Q 756 -622 537 81 
Q 319 784 319 1659 
Q 319 2531 537 3232 
Q 756 3934 1247 4638 
L 2125 4638 
Q 1631 3925 1407 3219 
Q 1184 2513 1184 1656 
Q 1184 803 1406 101 
Q 1628 -600 2125 -1328 
L 1247 -1328 
z
" transform="scale(0.015625)"/>
       <path id="LiberationSans-Bold-25" d="M 5522 1350 
Q 5522 669 5240 309 
Q 4959 -50 4416 -50 
Q 3866 -50 3587 306 
Q 3309 663 3309 1350 
Q 3309 2050 3578 2401 
Q 3847 2753 4428 2753 
Q 4991 2753 5256 2398 
Q 5522 2044 5522 1350 
z
M 1725 0 
L 1081 0 
L 3956 4403 
L 4609 4403 
L 1725 0 
z
M 1275 4453 
Q 1834 4453 2104 4100 
Q 2375 3747 2375 3053 
Q 2375 2372 2092 2011 
Q 1809 1650 1259 1650 
Q 716 1650 437 2008 
Q 159 2366 159 3053 
Q 159 3763 428 4108 
Q 697 4453 1275 4453 
z
M 4850 1350 
Q 4850 1847 4754 2059 
Q 4659 2272 4428 2272 
Q 4178 2272 4083 2056 
Q 3988 1841 3988 1350 
Q 3988 850 4088 645 
Q 4188 441 4422 441 
Q 4650 441 4750 653 
Q 4850 866 4850 1350 
z
M 1697 3053 
Q 1697 3544 1601 3756 
Q 1506 3969 1275 3969 
Q 1025 3969 928 3758 
Q 831 3547 831 3053 
Q 831 2559 932 2348 
Q 1034 2138 1269 2138 
Q 1500 2138 1598 2350 
Q 1697 2563 1697 3053 
z
" transform="scale(0.015625)"/>
       <path id="LiberationSans-Bold-29" d="M 6 -1328 
Q 506 -597 726 101 
Q 947 800 947 1656 
Q 947 2516 722 3223 
Q 497 3931 6 4638 
L 884 4638 
Q 1378 3928 1595 3225 
Q 1813 2522 1813 1659 
Q 1813 791 1595 87 
Q 1378 -616 884 -1328 
L 6 -1328 
z
" transform="scale(0.015625)"/>
      </defs>
      <use xlink:href="#LiberationSans-Bold-53"/>
      <use xlink:href="#LiberationSans-Bold-65" transform="translate(66.699219 0)"/>
      <use xlink:href="#LiberationSans-Bold-6e" transform="translate(122.314453 0)"/>
      <use xlink:href="#LiberationSans-Bold-73" transform="translate(183.398438 0)"/>
      <use xlink:href="#LiberationSans-Bold-69" transform="translate(239.013672 0)"/>
      <use xlink:href="#LiberationSans-Bold-74" transform="translate(266.796875 0)"/>
      <use xlink:href="#LiberationSans-Bold-69" transform="translate(300.097656 0)"/>
      <use xlink:href="#LiberationSans-Bold-76" transform="translate(327.880859 0)"/>
      <use xlink:href="#LiberationSans-Bold-69" transform="translate(383.496094 0)"/>
      <use xlink:href="#LiberationSans-Bold-74" transform="translate(411.279297 0)"/>
      <use xlink:href="#LiberationSans-Bold-79" transform="translate(444.580078 0)"/>
      <use xlink:href="#LiberationSans-Bold-20" transform="translate(500.195312 0)"/>
      <use xlink:href="#LiberationSans-Bold-28" transform="translate(527.978516 0)"/>
      <use xlink:href="#LiberationSans-Bold-25" transform="translate(561.279297 0)"/>
      <use xlink:href="#LiberationSans-Bold-29" transform="translate(650.195312 0)"/>
     </g>
    </g>
    <g id="patch_4">
     <path d="M 319.68 142.115 
L 475.92 142.115 
L 475.92 124.115 
L 319.68 124.115 
z
" style="fill: #4caf50; stroke: #000000; stroke-linejoin: miter"/>
    </g>
    <g id="text_3">
     <!-- Specificity (%) -->
     <g style="fill: #ffffff" transform="translate(363.627344 135.700937) scale(0.1 -0.1)">
      <defs>
       <path id="LiberationSans-Bold-70" d="M 3647 1706 
Q 3647 859 3308 398 
Q 2969 -63 2350 -63 
Q 1994 -63 1730 92 
Q 1466 247 1325 538 
L 1306 538 
Q 1325 444 1325 -31 
L 1325 -1328 
L 447 -1328 
L 447 2603 
Q 447 3081 422 3381 
L 1275 3381 
Q 1291 3325 1302 3159 
Q 1313 2994 1313 2831 
L 1325 2831 
Q 1622 3453 2406 3453 
Q 2997 3453 3322 2998 
Q 3647 2544 3647 1706 
z
M 2731 1706 
Q 2731 2844 2034 2844 
Q 1684 2844 1498 2537 
Q 1313 2231 1313 1681 
Q 1313 1134 1498 836 
Q 1684 538 2028 538 
Q 2731 538 2731 1706 
z
" transform="scale(0.015625)"/>
       <path id="LiberationSans-Bold-63" d="M 1856 -63 
Q 1088 -63 669 395 
Q 250 853 250 1672 
Q 250 2509 672 2976 
Q 1094 3444 1869 3444 
Q 2466 3444 2856 3144 
Q 3247 2844 3347 2316 
L 2463 2272 
Q 2425 2531 2275 2686 
Q 2125 2841 1850 2841 
Q 1172 2841 1172 1706 
Q 1172 538 1863 538 
Q 2113 538 2281 695 
Q 2450 853 2491 1166 
L 3372 1125 
Q 3325 778 3123 506 
Q 2922 234 2594 85 
Q 2266 -63 1856 -63 
z
" transform="scale(0.015625)"/>
       <path id="LiberationSans-Bold-66" d="M 1478 2788 
L 1478 0 
L 603 0 
L 603 2788 
L 109 2788 
L 109 3381 
L 603 3381 
L 603 3734 
Q 603 4194 847 4416 
Q 1091 4638 1588 4638 
Q 1834 4638 2144 4588 
L 2144 4022 
Q 2016 4050 1888 4050 
Q 1663 4050 1570 3961 
Q 1478 3872 1478 3647 
L 1478 3381 
L 2144 3381 
L 2144 2788 
L 1478 2788 
z
" transform="scale(0.015625)"/>
      </defs>
      <use xlink:href="#LiberationSans-Bold-53"/>
      <use xlink:href="#LiberationSans-Bold-70" transform="translate(66.699219 0)"/>
      <use xlink:href="#LiberationSans-Bold-65" transform="translate(127.783203 0)"/>
      <use xlink:href="#LiberationSans-Bold-63" transform="translate(183.398438 0)"/>
      <use xlink:href="#LiberationSans-Bold-69" transform="translate(239.013672 0)"/>
      <use xlink:href="#LiberationSans-Bold-66" transform="translate(266.796875 0)"/>
      <use xlink:href="#LiberationSans-Bold-69" transform="translate(300.097656 0)"/>
      <use xlink:href="#LiberationSans-Bold-63" transform="translate(327.880859 0)"/>
      <use xlink:href="#LiberationSans-Bold-69" transform="translate(383.496094 0)"/>
      <use xlink:href="#LiberationSans-Bold-74" transform="translate(411.279297 0)"/>
      <use xlink:href="#LiberationSans-Bold-79" transform="translate(444.580078 0)"/>
      <use xlink:href="#LiberationSans-Bold-20" transform="translate(500.195312 0)"/>
      <use xlink:href="#LiberationSans-Bold-28" transform="translate(527.978516 0)"/>
      <use xlink:href="#LiberationSans-Bold-25" transform="translate(561.279297 0)"/>
      <use xlink:href="#LiberationSans-Bold-29" transform="translate(650.195312 0)"/>
     </g>
    </g>
    <g id="patch_5">
     <path d="M 475.92 142.115 
L 632.16 142.115 
L 632.16 124.115 
L 475.92 124.115 
z
" style="fill: #4caf50; stroke: #000000; stroke-linejoin: miter"/>
    </g>
    <g id="text_4">
     <!-- Runtime (ms/kb) -->
     <g style="fill: #ffffff" transform="translate(514.872031 135.700937) scale(0.1 -0.1)">
      <defs>
       <path id="LiberationSans-Bold-52" d="M 3453 0 
L 2431 1672 
L 1350 1672 
L 1350 0 
L 428 0 
L 428 4403 
L 2628 4403 
Q 3416 4403 3844 4064 
Q 4272 3725 4272 3091 
Q 4272 2628 4009 2292 
Q 3747 1956 3300 1850 
L 4491 0 
L 3453 0 
z
M 3344 3053 
Q 3344 3688 2531 3688 
L 1350 3688 
L 1350 2388 
L 2556 2388 
Q 2944 2388 3144 2563 
Q 3344 2738 3344 3053 
z
" transform="scale(0.015625)"/>
       <path id="LiberationSans-Bold-75" d="M 1275 3381 
L 1275 1484 
Q 1275 594 1875 594 
Q 2194 594 2389 867 
Q 2584 1141 2584 1569 
L 2584 3381 
L 3463 3381 
L 3463 756 
Q 3463 325 3488 0 
L 2650 0 
Q 2613 450 2613 672 
L 2597 672 
Q 2422 288 2151 112 
Q 1881 -63 1509 -63 
Q 972 -63 684 267 
Q 397 597 397 1234 
L 397 3381 
L 1275 3381 
z
" transform="scale(0.015625)"/>
       <path id="LiberationSans-Bold-2f" d="M 63 -128 
L 972 4638 
L 1716 4638 
L 822 -128 
L 63 -128 
z
" transform="scale(0.015625)"/>
       <path id="LiberationSans-Bold-6b" d="M 2606 0 
L 1703 1531 
L 1325 1269 
L 1325 0 
L 447 0 
L 447 4638 
L 1325 4638 
L 1325 1981 
L 2531 3381 
L 3475 3381 
L 2288 2063 
L 3566 0 
L 2606 0 
z
" transform="scale(0.015625)"/>
       <path id="LiberationSans-Bold-62" d="M 3647 1703 
Q 3647 866 3311 401 
Q 2975 -63 2350 -63 
Q 1991 -63 1728 93 
Q 1466 250 1325 544 
L 1319 544 
Q 1319 434 1305 243 
Q 1291 53 1275 0 
L 422 0 
Q 447 291 447 772 
L 447 4638 
L 1325 4638 
L 1325 3344 
L 1313 2794 
L 1325 2794 
Q 1622 3444 2406 3444 
Q 3006 3444 3326 2989 
Q 3647 2534 3647 1703 
z
M 2731 1703 
Q 2731 2278 2562 2556 
Q 2394 2834 2041 2834 
Q 1684 2834 1498 2536 
Q 1313 2238 1313 1675 
Q 1313 1138 1495 838 
Q 1678 538 2034 538 
Q 2731 538 2731 1703 
z
" transform="scale(0.015625)"/>
      </defs>
      <use xlink:href="#LiberationSans-Bold-52"/>
      <use xlink:href="#LiberationSans-Bold-75" transform="translate(72.216797 0)"/>
      <use xlink:href="#LiberationSans-Bold-6e" transform="translate(133.300781 0)"/>
      <use xlink:href="#LiberationSans-Bold-74" transform="translate(194.384766 0)"/>
      <use xlink:href="#LiberationSans-Bold-69" transform="translate(227.685547 0)"/>
      <use xlink:href="#LiberationSans-Bold-6d" transform="translate(255.46875 0)"/>
      <use xlink:href="#LiberationSans-Bold-65" transform="translate(344.384766 0)"/>
      <use xlink:href="#LiberationSans-Bold-20" transform="translate(400 0)"/>
      <use xlink:href="#LiberationSans-Bold-28" transform="translate(427.783203 0)"/>
      <use xlink:href="#LiberationSans-Bold-6d" transform="translate(461.083984 0)"/>
      <use xlink:href="#LiberationSans-Bold-73" transform="translate(550 0)"/>
      <use xlink:href="#LiberationSans-Bold-2f" transform="translate(605.615234 0)"/>
      <use xlink:href="#LiberationSans-Bold-6b" transform="translate(633.398438 0)"/>
      <use xlink:href="#LiberationSans-Bold-62" transform="translate(689.013672 0)"/>
      <use xlink:href="#LiberationSans-Bold-29" transform="translate(750.097656 0)"/>
     </g>
    </g>
    <g id="patch_6">
     <path d="M 632.16 142.115 
L 788.4 142.115 
L 788.4 124.115 
L 632.16 124.115 
z
" style="fill: #4caf50; stroke: #000000; stroke-linejoin: miter"/>
    </g>
    <g id="text_5">
     <!-- Memory (MB/kb) -->
     <g style="fill: #ffffff" transform="translate(671.390156 135.700937) scale(0.1 -0.1)">
      <defs>
       <path id="LiberationSans-Bold-4d" d="M 4084 0 
L 4084 2669 
Q 4084 2759 4086 2850 
Q 4088 2941 4116 3628 
Q 3894 2788 3788 2456 
L 2994 0 
L 2338 0 
L 1544 2456 
L 1209 3628 
Q 1247 2903 1247 2669 
L 1247 0 
L 428 0 
L 428 4403 
L 1663 4403 
L 2450 1941 
L 2519 1703 
L 2669 1113 
L 2866 1819 
L 3675 4403 
L 4903 4403 
L 4903 0 
L 4084 0 
z
" transform="scale(0.015625)"/>
       <path id="LiberationSans-Bold-42" d="M 4331 1256 
Q 4331 656 3881 328 
Q 3431 0 2631 0 
L 428 0 
L 428 4403 
L 2444 4403 
Q 3250 4403 3664 4123 
Q 4078 3844 4078 3297 
Q 4078 2922 3870 2664 
Q 3663 2406 3238 2316 
Q 3772 2253 4051 1979 
Q 4331 1706 4331 1256 
z
M 3150 3172 
Q 3150 3469 2961 3594 
Q 2772 3719 2400 3719 
L 1350 3719 
L 1350 2628 
L 2406 2628 
Q 2797 2628 2973 2764 
Q 3150 2900 3150 3172 
z
M 3406 1328 
Q 3406 1947 2519 1947 
L 1350 1947 
L 1350 684 
L 2553 684 
Q 2997 684 3201 845 
Q 3406 1006 3406 1328 
z
" transform="scale(0.015625)"/>
      </defs>
      <use xlink:href="#LiberationSans-Bold-4d"/>
      <use xlink:href="#LiberationSans-Bold-65" transform="translate(83.300781 0)"/>
      <use xlink:href="#LiberationSans-Bold-6d" transform="translate(138.916016 0)"/>
      <use xlink:href="#LiberationSans-Bold-6f" transform="translate(227.832031 0)"/>
      <use xlink:href="#LiberationSans-Bold-72" transform="translate(288.916016 0)"/>
      <use xlink:href="#LiberationSans-Bold-79" transform="translate(327.832031 0)"/>
      <use xlink:href="#LiberationSans-Bold-20" transform="translate(383.447266 0)"/>
      <use xlink:href="#LiberationSans-Bold-28" transform="translate(411.230469 0)"/>
      <use xlink:href="#LiberationSans-Bold-4d" transform="translate(444.53125 0)"/>
      <use xlink:href="#LiberationSans-Bold-42" transform="translate(527.832031 0)"/>
      <use xlink:href="#LiberationSans-Bold-2f" transform="translate(600.048828 0)"/>
      <use xlink:href="#LiberationSans-Bold-6b" transform="translate(627.832031 0)"/>
      <use xlink:href="#LiberationSans-Bold-62" transform="translate(683.447266 0)"/>
      <use xlink:href="#LiberationSans-Bold-29" transform="translate(744.53125 0)"/>
     </g>
    </g>
    <g id="patch_7">
     <path d="M 788.4 142.115 
L 944.64 142.115 
L 944.64 124.115 
L 788.4 124.115 
z
" style="fill: #4caf50; stroke: #000000; stroke-linejoin: miter"/>
    </g>
    <g id="text_6">
     <!-- Enhancement Factor -->
     <g style="fill: #ffffff" transform="translate(817.067656 135.700937) scale(0.1 -0.1)">
      <defs>
       <path id="LiberationSans-Bold-45" d="M 428 0 
L 428 4403 
L 3891 4403 
L 3891 3691 
L 1350 3691 
L 1350 2584 
L 3700 2584 
L 3700 1872 
L 1350 1872 
L 1350 713 
L 4019 713 
L 4019 0 
L 428 0 
z
" transform="scale(0.015625)"/>
       <path id="LiberationSans-Bold-61" d="M 1228 -63 
Q 738 -63 463 204 
Q 188 472 188 956 
Q 188 1481 530 1756 
Q 872 2031 1522 2038 
L 2250 2050 
L 2250 2222 
Q 2250 2553 2134 2714 
Q 2019 2875 1756 2875 
Q 1513 2875 1398 2764 
Q 1284 2653 1256 2397 
L 341 2441 
Q 425 2934 792 3189 
Q 1159 3444 1794 3444 
Q 2434 3444 2781 3128 
Q 3128 2813 3128 2231 
L 3128 1000 
Q 3128 716 3192 608 
Q 3256 500 3406 500 
Q 3506 500 3600 519 
L 3600 44 
Q 3522 25 3459 9 
Q 3397 -6 3334 -15 
Q 3272 -25 3201 -31 
Q 3131 -38 3038 -38 
Q 2706 -38 2548 125 
Q 2391 288 2359 603 
L 2341 603 
Q 1972 -63 1228 -63 
z
M 2250 1566 
L 1800 1559 
Q 1494 1547 1366 1492 
Q 1238 1438 1170 1325 
Q 1103 1213 1103 1025 
Q 1103 784 1214 667 
Q 1325 550 1509 550 
Q 1716 550 1886 662 
Q 2056 775 2153 973 
Q 2250 1172 2250 1394 
L 2250 1566 
z
" transform="scale(0.015625)"/>
       <path id="LiberationSans-Bold-46" d="M 1350 3691 
L 1350 2328 
L 3603 2328 
L 3603 1616 
L 1350 1616 
L 1350 0 
L 428 0 
L 428 4403 
L 3675 4403 
L 3675 3691 
L 1350 3691 
z
" transform="scale(0.015625)"/>
      </defs>
      <use xlink:href="#LiberationSans-Bold-45"/>
      <use xlink:href="#LiberationSans-Bold-6e" transform="translate(66.699219 0)"/>
      <use xlink:href="#LiberationSans-Bold-68" transform="translate(127.783203 0)"/>
      <use xlink:href="#LiberationSans-Bold-61" transform="translate(188.867188 0)"/>
      <use xlink:href="#LiberationSans-Bold-6e" transform="translate(244.482422 0)"/>
      <use xlink:href="#LiberationSans-Bold-63" transform="translate(305.566406 0)"/>
      <use xlink:href="#LiberationSans-Bold-65" transform="translate(361.181641 0)"/>
      <use xlink:href="#LiberationSans-Bold-6d" transform="translate(416.796875 0)"/>
      <use xlink:href="#LiberationSans-Bold-65" transform="translate(505.712891 0)"/>
      <use xlink:href="#LiberationSans-Bold-6e" transform="translate(561.328125 0)"/>
      <use xlink:href="#LiberationSans-Bold-74" transform="translate(622.412109 0)"/>
      <use xlink:href="#LiberationSans-Bold-20" transform="translate(655.712891 0)"/>
      <use xlink:href="#LiberationSans-Bold-46" transform="translate(683.496094 0)"/>
      <use xlink:href="#LiberationSans-Bold-61" transform="translate(744.580078 0)"/>
      <use xlink:href="#LiberationSans-Bold-63" transform="translate(800.195312 0)"/>
      <use xlink:href="#LiberationSans-Bold-74" transform="translate(855.810547 0)"/>
      <use xlink:href="#LiberationSans-Bold-6f" transform="translate(889.111328 0)"/>
      <use xlink:href="#LiberationSans-Bold-72" transform="translate(950.195312 0)"/>
     </g>
    </g>
    <g id="patch_8">
     <path d="M 7.2 160.115 
L 163.44 160.115 
L 163.44 142.115 
L 7.2 142.115 
z
" style="fill: #ffffff; stroke: #000000; stroke-linejoin: miter"/>
    </g>
    <g id="text_7">
     <!-- G4Hunter Enhanced -->
     <g style="fill: #262626" transform="translate(39.737188 153.700937) scale(0.1 -0.1)">
      <defs>
       <path id="LiberationSans-47" d="M 322 2222 
Q 322 3294 897 3881 
Q 1472 4469 2513 4469 
Q 3244 4469 3700 4222 
Q 4156 3975 4403 3431 
L 3834 3263 
Q 3647 3638 3317 3809 
Q 2988 3981 2497 3981 
Q 1734 3981 1331 3520 
Q 928 3059 928 2222 
Q 928 1388 1356 905 
Q 1784 422 2541 422 
Q 2972 422 3345 553 
Q 3719 684 3950 909 
L 3950 1703 
L 2634 1703 
L 2634 2203 
L 4500 2203 
L 4500 684 
Q 4150 328 3642 132 
Q 3134 -63 2541 -63 
Q 1850 -63 1350 212 
Q 850 488 586 1005 
Q 322 1522 322 2222 
z
" transform="scale(0.015625)"/>
       <path id="LiberationSans-34" d="M 2753 997 
L 2753 0 
L 2222 0 
L 2222 997 
L 147 997 
L 147 1434 
L 2163 4403 
L 2753 4403 
L 2753 1441 
L 3372 1441 
L 3372 997 
L 2753 997 
z
M 2222 3769 
Q 2216 3750 2134 3603 
Q 2053 3456 2013 3397 
L 884 1734 
L 716 1503 
L 666 1441 
L 2222 1441 
L 2222 3769 
z
" transform="scale(0.015625)"/>
       <path id="LiberationSans-48" d="M 3503 0 
L 3503 2041 
L 1122 2041 
L 1122 0 
L 525 0 
L 525 4403 
L 1122 4403 
L 1122 2541 
L 3503 2541 
L 3503 4403 
L 4100 4403 
L 4100 0 
L 3503 0 
z
" transform="scale(0.015625)"/>
       <path id="LiberationSans-75" d="M 981 3381 
L 981 1238 
Q 981 903 1047 718 
Q 1113 534 1256 453 
Q 1400 372 1678 372 
Q 2084 372 2318 650 
Q 2553 928 2553 1422 
L 2553 3381 
L 3116 3381 
L 3116 722 
Q 3116 131 3134 0 
L 2603 0 
Q 2600 16 2597 84 
Q 2594 153 2589 242 
Q 2584 331 2578 578 
L 2569 578 
Q 2375 228 2120 82 
Q 1866 -63 1488 -63 
Q 931 -63 673 214 
Q 416 491 416 1128 
L 416 3381 
L 981 3381 
z
" transform="scale(0.015625)"/>
       <path id="LiberationSans-6e" d="M 2578 0 
L 2578 2144 
Q 2578 2478 2512 2662 
Q 2447 2847 2303 2928 
Q 2159 3009 1881 3009 
Q 1475 3009 1240 2731 
Q 1006 2453 1006 1959 
L 1006 0 
L 444 0 
L 444 2659 
Q 444 3250 425 3381 
L 956 3381 
Q 959 3366 962 3297 
Q 966 3228 970 3139 
Q 975 3050 981 2803 
L 991 2803 
Q 1184 3153 1439 3298 
Q 1694 3444 2072 3444 
Q 2628 3444 2886 3167 
Q 3144 2891 3144 2253 
L 3144 0 
L 2578 0 
z
" transform="scale(0.015625)"/>
       <path id="LiberationSans-74" d="M 1731 25 
Q 1453 -50 1163 -50 
Q 488 -50 488 716 
L 488 2972 
L 97 2972 
L 97 3381 
L 509 3381 
L 675 4138 
L 1050 4138 
L 1050 3381 
L 1675 3381 
L 1675 2972 
L 1050 2972 
L 1050 838 
Q 1050 594 1129 495 
Q 1209 397 1406 397 
Q 1519 397 1731 441 
L 1731 25 
z
" transform="scale(0.015625)"/>
       <path id="LiberationSans-65" d="M 863 1572 
Q 863 991 1103 675 
Q 1344 359 1806 359 
Q 2172 359 2392 506 
Q 2613 653 2691 878 
L 3184 738 
Q 2881 -63 1806 -63 
Q 1056 -63 664 384 
Q 272 831 272 1713 
Q 272 2550 664 2997 
Q 1056 3444 1784 3444 
Q 3275 3444 3275 1647 
L 3275 1572 
L 863 1572 
z
M 2694 2003 
Q 2647 2538 2422 2783 
Q 2197 3028 1775 3028 
Q 1366 3028 1127 2754 
Q 888 2481 869 2003 
L 2694 2003 
z
" transform="scale(0.015625)"/>
       <path id="LiberationSans-72" d="M 444 0 
L 444 2594 
Q 444 2950 425 3381 
L 956 3381 
Q 981 2806 981 2691 
L 994 2691 
Q 1128 3125 1303 3284 
Q 1478 3444 1797 3444 
Q 1909 3444 2025 3413 
L 2025 2897 
Q 1913 2928 1725 2928 
Q 1375 2928 1190 2626 
Q 1006 2325 1006 1763 
L 1006 0 
L 444 0 
z
" transform="scale(0.015625)"/>
       <path id="LiberationSans-20" transform="scale(0.015625)"/>
       <path id="LiberationSans-45" d="M 525 0 
L 525 4403 
L 3866 4403 
L 3866 3916 
L 1122 3916 
L 1122 2503 
L 3678 2503 
L 3678 2022 
L 1122 2022 
L 1122 488 
L 3994 488 
L 3994 0 
L 525 0 
z
" transform="scale(0.015625)"/>
       <path id="LiberationSans-68" d="M 991 2803 
Q 1172 3134 1426 3289 
Q 1681 3444 2072 3444 
Q 2622 3444 2883 3170 
Q 3144 2897 3144 2253 
L 3144 0 
L 2578 0 
L 2578 2144 
Q 2578 2500 2512 2673 
Q 2447 2847 2297 2928 
Q 2147 3009 1881 3009 
Q 1484 3009 1245 2734 
Q 1006 2459 1006 1994 
L 1006 0 
L 444 0 
L 444 4638 
L 1006 4638 
L 1006 3431 
Q 1006 3241 995 3037 
Q 984 2834 981 2803 
L 991 2803 
z
" transform="scale(0.015625)"/>
       <path id="LiberationSans-61" d="M 1294 -63 
Q 784 -63 528 206 
Q 272 475 272 944 
Q 272 1469 617 1750 
Q 963 2031 1731 2050 
L 2491 2063 
L 2491 2247 
Q 2491 2659 2316 2837 
Q 2141 3016 1766 3016 
Q 1388 3016 1216 2887 
Q 1044 2759 1009 2478 
L 422 2531 
Q 566 3444 1778 3444 
Q 2416 3444 2737 3151 
Q 3059 2859 3059 2306 
L 3059 850 
Q 3059 600 3125 473 
Q 3191 347 3375 347 
Q 3456 347 3559 369 
L 3559 19 
Q 3347 -31 3125 -31 
Q 2813 -31 2670 133 
Q 2528 297 2509 647 
L 2491 647 
Q 2275 259 1989 98 
Q 1703 -63 1294 -63 
z
M 1422 359 
Q 1731 359 1972 500 
Q 2213 641 2352 886 
Q 2491 1131 2491 1391 
L 2491 1669 
L 1875 1656 
Q 1478 1650 1273 1575 
Q 1069 1500 959 1344 
Q 850 1188 850 934 
Q 850 659 998 509 
Q 1147 359 1422 359 
z
" transform="scale(0.015625)"/>
       <path id="LiberationSans-63" d="M 859 1706 
Q 859 1031 1071 706 
Q 1284 381 1713 381 
Q 2013 381 2214 543 
Q 2416 706 2463 1044 
L 3031 1006 
Q 2966 519 2616 228 
Q 2266 -63 1728 -63 
Q 1019 -63 645 385 
Q 272 834 272 1694 
Q 272 2547 647 2995 
Q 1022 3444 1722 3444 
Q 2241 3444 2583 3175 
Q 2925 2906 3013 2434 
L 2434 2391 
Q 2391 2672 2212 2837 
Q 2034 3003 1706 3003 
Q 1259 3003 1059 2706 
Q 859 2409 859 1706 
z
" transform="scale(0.015625)"/>
       <path id="LiberationSans-64" d="M 2566 544 
Q 2409 219 2151 78 
Q 1894 -63 1513 -63 
Q 872 -63 570 368 
Q 269 800 269 1675 
Q 269 3444 1513 3444 
Q 1897 3444 2153 3303 
Q 2409 3163 2566 2856 
L 2572 2856 
L 2566 3234 
L 2566 4638 
L 3128 4638 
L 3128 697 
Q 3128 169 3147 0 
L 2609 0 
Q 2600 50 2589 231 
Q 2578 413 2578 544 
L 2566 544 
z
M 859 1694 
Q 859 984 1046 678 
Q 1234 372 1656 372 
Q 2134 372 2350 703 
Q 2566 1034 2566 1731 
Q 2566 2403 2350 2715 
Q 2134 3028 1663 3028 
Q 1238 3028 1048 2714 
Q 859 2400 859 1694 
z
" transform="scale(0.015625)"/>
      </defs>
      <use xlink:href="#LiberationSans-47"/>
      <use xlink:href="#LiberationSans-34" transform="translate(77.783203 0)"/>
      <use xlink:href="#LiberationSans-48" transform="translate(133.398438 0)"/>
      <use xlink:href="#LiberationSans-75" transform="translate(205.615234 0)"/>
      <use xlink:href="#LiberationSans-6e" transform="translate(261.230469 0)"/>
      <use xlink:href="#LiberationSans-74" transform="translate(316.845703 0)"/>
      <use xlink:href="#LiberationSans-65" transform="translate(344.628906 0)"/>
      <use xlink:href="#LiberationSans-72" transform="translate(400.244141 0)"/>
      <use xlink:href="#LiberationSans-20" transform="translate(433.544922 0)"/>
      <use xlink:href="#LiberationSans-45" transform="translate(461.328125 0)"/>
      <use xlink:href="#LiberationSans-6e" transform="translate(528.027344 0)"/>
      <use xlink:href="#LiberationSans-68" transform="translate(583.642578 0)"/>
      <use xlink:href="#LiberationSans-61" transform="translate(639.257812 0)"/>
      <use xlink:href="#LiberationSans-6e" transform="translate(694.873047 0)"/>
      <use xlink:href="#LiberationSans-63" transform="translate(750.488281 0)"/>
      <use xlink:href="#LiberationSans-65" transform="translate(800.488281 0)"/>
      <use xlink:href="#LiberationSans-64" transform="translate(856.103516 0)"/>
     </g>
    </g>
    <g id="patch_9">
     <path d="M 163.44 160.115 
L 319.68 160.115 
L 319.68 142.115 
L 163.44 142.115 
z
" style="fill: #ffffff; stroke: #000000; stroke-linejoin: miter"/>
    </g>
    <g id="text_8">
     <!-- 99.2 -->
     <g style="fill: #262626" transform="translate(231.829531 153.700937) scale(0.1 -0.1)">
      <defs>
       <path id="LiberationSans-39" d="M 3256 2291 
Q 3256 1156 2842 546 
Q 2428 -63 1663 -63 
Q 1147 -63 836 154 
Q 525 372 391 856 
L 928 941 
Q 1097 391 1672 391 
Q 2156 391 2422 841 
Q 2688 1291 2700 2125 
Q 2575 1844 2272 1673 
Q 1969 1503 1606 1503 
Q 1013 1503 656 1909 
Q 300 2316 300 2988 
Q 300 3678 687 4073 
Q 1075 4469 1766 4469 
Q 2500 4469 2878 3925 
Q 3256 3381 3256 2291 
z
M 2644 2834 
Q 2644 3366 2400 3689 
Q 2156 4013 1747 4013 
Q 1341 4013 1106 3736 
Q 872 3459 872 2988 
Q 872 2506 1106 2226 
Q 1341 1947 1741 1947 
Q 1984 1947 2193 2058 
Q 2403 2169 2523 2372 
Q 2644 2575 2644 2834 
z
" transform="scale(0.015625)"/>
       <path id="LiberationSans-2e" d="M 584 0 
L 584 684 
L 1194 684 
L 1194 0 
L 584 0 
z
" transform="scale(0.015625)"/>
       <path id="LiberationSans-32" d="M 322 0 
L 322 397 
Q 481 763 711 1042 
Q 941 1322 1194 1548 
Q 1447 1775 1695 1969 
Q 1944 2163 2144 2356 
Q 2344 2550 2467 2762 
Q 2591 2975 2591 3244 
Q 2591 3606 2378 3806 
Q 2166 4006 1788 4006 
Q 1428 4006 1195 3811 
Q 963 3616 922 3263 
L 347 3316 
Q 409 3844 795 4156 
Q 1181 4469 1788 4469 
Q 2453 4469 2811 4155 
Q 3169 3841 3169 3263 
Q 3169 3006 3051 2753 
Q 2934 2500 2703 2247 
Q 2472 1994 1819 1463 
Q 1459 1169 1246 933 
Q 1034 697 941 478 
L 3238 478 
L 3238 0 
L 322 0 
z
" transform="scale(0.015625)"/>
      </defs>
      <use xlink:href="#LiberationSans-39"/>
      <use xlink:href="#LiberationSans-39" transform="translate(55.615234 0)"/>
      <use xlink:href="#LiberationSans-2e" transform="translate(111.230469 0)"/>
      <use xlink:href="#LiberationSans-32" transform="translate(139.013672 0)"/>
     </g>
    </g>
    <g id="patch_10">
     <path d="M 319.68 160.115 
L 475.92 160.115 
L 475.92 142.115 
L 319.68 142.115 
z
" style="fill: #ffffff; stroke: #000000; stroke-linejoin: miter"/>
    </g>
    <g id="text_9">
     <!-- 96.8 -->
     <g style="fill: #262626" transform="translate(388.069531 153.700937) scale(0.1 -0.1)">
      <defs>
       <path id="LiberationSans-36" d="M 3278 1441 
Q 3278 744 2900 340 
Q 2522 -63 1856 -63 
Q 1113 -63 719 490 
Q 325 1044 325 2100 
Q 325 3244 734 3856 
Q 1144 4469 1900 4469 
Q 2897 4469 3156 3572 
L 2619 3475 
Q 2453 4013 1894 4013 
Q 1413 4013 1148 3564 
Q 884 3116 884 2266 
Q 1038 2550 1316 2698 
Q 1594 2847 1953 2847 
Q 2563 2847 2920 2465 
Q 3278 2084 3278 1441 
z
M 2706 1416 
Q 2706 1894 2472 2153 
Q 2238 2413 1819 2413 
Q 1425 2413 1183 2183 
Q 941 1953 941 1550 
Q 941 1041 1192 716 
Q 1444 391 1838 391 
Q 2244 391 2475 664 
Q 2706 938 2706 1416 
z
" transform="scale(0.015625)"/>
       <path id="LiberationSans-38" d="M 3281 1228 
Q 3281 619 2893 278 
Q 2506 -63 1781 -63 
Q 1075 -63 676 271 
Q 278 606 278 1222 
Q 278 1653 525 1947 
Q 772 2241 1156 2303 
L 1156 2316 
Q 797 2400 589 2681 
Q 381 2963 381 3341 
Q 381 3844 757 4156 
Q 1134 4469 1769 4469 
Q 2419 4469 2795 4162 
Q 3172 3856 3172 3334 
Q 3172 2956 2962 2675 
Q 2753 2394 2391 2322 
L 2391 2309 
Q 2813 2241 3047 1952 
Q 3281 1663 3281 1228 
z
M 2588 3303 
Q 2588 4050 1769 4050 
Q 1372 4050 1164 3862 
Q 956 3675 956 3303 
Q 956 2925 1170 2726 
Q 1384 2528 1775 2528 
Q 2172 2528 2380 2711 
Q 2588 2894 2588 3303 
z
M 2697 1281 
Q 2697 1691 2453 1898 
Q 2209 2106 1769 2106 
Q 1341 2106 1100 1882 
Q 859 1659 859 1269 
Q 859 359 1788 359 
Q 2247 359 2472 579 
Q 2697 800 2697 1281 
z
" transform="scale(0.015625)"/>
      </defs>
      <use xlink:href="#LiberationSans-39"/>
      <use xlink:href="#LiberationSans-36" transform="translate(55.615234 0)"/>
      <use xlink:href="#LiberationSans-2e" transform="translate(111.230469 0)"/>
      <use xlink:href="#LiberationSans-38" transform="translate(139.013672 0)"/>
     </g>
    </g>
    <g id="patch_11">
     <path d="M 475.92 160.115 
L 632.16 160.115 
L 632.16 142.115 
L 475.92 142.115 
z
" style="fill: #ffffff; stroke: #000000; stroke-linejoin: miter"/>
    </g>
    <g id="text_10">
     <!-- 1.2 -->
     <g style="fill: #262626" transform="translate(547.09 153.700937) scale(0.1 -0.1)">
      <defs>
       <path id="LiberationSans-31" d="M 488 0 
L 488 478 
L 1609 478 
L 1609 3866 
L 616 3156 
L 616 3688 
L 1656 4403 
L 2175 4403 
L 2175 478 
L 3247 478 
L 3247 0 
L 488 0 
z
" transform="scale(0.015625)"/>
      </defs>
      <use xlink:href="#LiberationSans-31"/>
      <use xlink:href="#LiberationSans-2e" transform="translate(55.615234 0)"/>
      <use xlink:href="#LiberationSans-32" transform="translate(83.398438 0)"/>
     </g>
    </g>
    <g id="patch_12">
     <path d="M 632.16 160.115 
L 788.4 160.115 
L 788.4 142.115 
L 632.16 142.115 
z
" style="fill: #ffffff; stroke: #000000; stroke-linejoin: miter"/>
    </g>
    <g id="text_11">
     <!-- 0.05 -->
     <g style="fill: #262626" transform="translate(700.549531 153.700937) scale(0.1 -0.1)">
      <defs>
       <path id="LiberationSans-30" d="M 3309 2203 
Q 3309 1100 2920 518 
Q 2531 -63 1772 -63 
Q 1013 -63 631 515 
Q 250 1094 250 2203 
Q 250 3338 620 3903 
Q 991 4469 1791 4469 
Q 2569 4469 2939 3897 
Q 3309 3325 3309 2203 
z
M 2738 2203 
Q 2738 3156 2517 3584 
Q 2297 4013 1791 4013 
Q 1272 4013 1045 3591 
Q 819 3169 819 2203 
Q 819 1266 1048 831 
Q 1278 397 1778 397 
Q 2275 397 2506 840 
Q 2738 1284 2738 2203 
z
" transform="scale(0.015625)"/>
       <path id="LiberationSans-35" d="M 3291 1434 
Q 3291 738 2877 337 
Q 2463 -63 1728 -63 
Q 1113 -63 734 206 
Q 356 475 256 984 
L 825 1050 
Q 1003 397 1741 397 
Q 2194 397 2450 670 
Q 2706 944 2706 1422 
Q 2706 1838 2448 2094 
Q 2191 2350 1753 2350 
Q 1525 2350 1328 2278 
Q 1131 2206 934 2034 
L 384 2034 
L 531 4403 
L 3034 4403 
L 3034 3925 
L 1044 3925 
L 959 2528 
Q 1325 2809 1869 2809 
Q 2519 2809 2905 2428 
Q 3291 2047 3291 1434 
z
" transform="scale(0.015625)"/>
      </defs>
      <use xlink:href="#LiberationSans-30"/>
      <use xlink:href="#LiberationSans-2e" transform="translate(55.615234 0)"/>
      <use xlink:href="#LiberationSans-30" transform="translate(83.398438 0)"/>
      <use xlink:href="#LiberationSans-35" transform="translate(139.013672 0)"/>
     </g>
    </g>
    <g id="patch_13">
     <path d="M 788.4 160.115 
L 944.64 160.115 
L 944.64 142.115 
L 788.4 142.115 
z
" style="fill: #ffffff; stroke: #000000; stroke-linejoin: miter"/>
    </g>
    <g id="text_12">
     <!-- 350x -->
     <g style="fill: #262626" transform="translate(855.678594 153.700937) scale(0.1 -0.1)">
      <defs>
       <path id="LiberationSans-33" d="M 3278 1216 
Q 3278 606 2890 271 
Q 2503 -63 1784 -63 
Q 1116 -63 717 239 
Q 319 541 244 1131 
L 825 1184 
Q 938 403 1784 403 
Q 2209 403 2451 612 
Q 2694 822 2694 1234 
Q 2694 1594 2417 1795 
Q 2141 1997 1619 1997 
L 1300 1997 
L 1300 2484 
L 1606 2484 
Q 2069 2484 2323 2686 
Q 2578 2888 2578 3244 
Q 2578 3597 2370 3801 
Q 2163 4006 1753 4006 
Q 1381 4006 1151 3815 
Q 922 3625 884 3278 
L 319 3322 
Q 381 3863 767 4166 
Q 1153 4469 1759 4469 
Q 2422 4469 2789 4161 
Q 3156 3853 3156 3303 
Q 3156 2881 2920 2617 
Q 2684 2353 2234 2259 
L 2234 2247 
Q 2728 2194 3003 1916 
Q 3278 1638 3278 1216 
z
" transform="scale(0.015625)"/>
       <path id="LiberationSans-78" d="M 2503 0 
L 1594 1388 
L 678 0 
L 72 0 
L 1275 1738 
L 128 3381 
L 750 3381 
L 1594 2066 
L 2431 3381 
L 3059 3381 
L 1913 1744 
L 3131 0 
L 2503 0 
z
" transform="scale(0.015625)"/>
      </defs>
      <use xlink:href="#LiberationSans-33"/>
      <use xlink:href="#LiberationSans-35" transform="translate(55.615234 0)"/>
      <use xlink:href="#LiberationSans-30" transform="translate(111.230469 0)"/>
      <use xlink:href="#LiberationSans-78" transform="translate(166.845703 0)"/>
     </g>
    </g>
    <g id="patch_14">
     <path d="M 7.2 178.115 
L 163.44 178.115 
L 163.44 160.115 
L 7.2 160.115 
z
" style="fill: #f0f0f0; stroke: #000000; stroke-linejoin: miter"/>
    </g>
    <g id="text_13">
     <!-- Kadane Z-DNA -->
     <g style="fill: #262626" transform="translate(51.417656 171.700937) scale(0.1 -0.1)">
      <defs>
       <path id="LiberationSans-4b" d="M 3456 0 
L 1697 2125 
L 1122 1688 
L 1122 0 
L 525 0 
L 525 4403 
L 1122 4403 
L 1122 2197 
L 3244 4403 
L 3947 4403 
L 2072 2491 
L 4197 0 
L 3456 0 
z
" transform="scale(0.015625)"/>
       <path id="LiberationSans-5a" d="M 3709 0 
L 203 0 
L 203 447 
L 2884 3916 
L 431 3916 
L 431 4403 
L 3563 4403 
L 3563 3969 
L 881 488 
L 3709 488 
L 3709 0 
z
" transform="scale(0.015625)"/>
       <path id="LiberationSans-2d" d="M 284 1450 
L 284 1950 
L 1847 1950 
L 1847 1450 
L 284 1450 
z
" transform="scale(0.015625)"/>
       <path id="LiberationSans-44" d="M 4316 2247 
Q 4316 1566 4050 1055 
Q 3784 544 3296 272 
Q 2809 0 2172 0 
L 525 0 
L 525 4403 
L 1981 4403 
Q 3100 4403 3708 3842 
Q 4316 3281 4316 2247 
z
M 3716 2247 
Q 3716 3066 3267 3495 
Q 2819 3925 1969 3925 
L 1122 3925 
L 1122 478 
L 2103 478 
Q 2588 478 2955 690 
Q 3322 903 3519 1303 
Q 3716 1703 3716 2247 
z
" transform="scale(0.015625)"/>
       <path id="LiberationSans-4e" d="M 3381 0 
L 1025 3750 
L 1041 3447 
L 1056 2925 
L 1056 0 
L 525 0 
L 525 4403 
L 1219 4403 
L 3600 628 
Q 3563 1241 3563 1516 
L 3563 4403 
L 4100 4403 
L 4100 0 
L 3381 0 
z
" transform="scale(0.015625)"/>
       <path id="LiberationSans-41" d="M 3647 0 
L 3144 1288 
L 1138 1288 
L 631 0 
L 13 0 
L 1809 4403 
L 2488 4403 
L 4256 0 
L 3647 0 
z
M 2141 3953 
L 2113 3866 
Q 2034 3606 1881 3200 
L 1319 1753 
L 2966 1753 
L 2400 3206 
Q 2313 3422 2225 3694 
L 2141 3953 
z
" transform="scale(0.015625)"/>
      </defs>
      <use xlink:href="#LiberationSans-4b"/>
      <use xlink:href="#LiberationSans-61" transform="translate(66.699219 0)"/>
      <use xlink:href="#LiberationSans-64" transform="translate(122.314453 0)"/>
      <use xlink:href="#LiberationSans-61" transform="translate(177.929688 0)"/>
      <use xlink:href="#LiberationSans-6e" transform="translate(233.544922 0)"/>
      <use xlink:href="#LiberationSans-65" transform="translate(289.160156 0)"/>
      <use xlink:href="#LiberationSans-20" transform="translate(344.775391 0)"/>
      <use xlink:href="#LiberationSans-5a" transform="translate(372.558594 0)"/>
      <use xlink:href="#LiberationSans-2d" transform="translate(433.642578 0)"/>
      <use xlink:href="#LiberationSans-44" transform="translate(466.943359 0)"/>
      <use xlink:href="#LiberationSans-4e" transform="translate(539.160156 0)"/>
      <use xlink:href="#LiberationSans-41" transform="translate(611.376953 0)"/>
     </g>
    </g>
    <g id="patch_15">
     <path d="M 163.44 178.115 
L 319.68 178.115 
L 319.68 160.115 
L 163.44 160.115 
z
" style="fill: #f0f0f0; stroke: #000000; stroke-linejoin: miter"/>
    </g>
    <g id="text_14">
     <!-- 98.7 -->
     <g style="fill: #262626" transform="translate(231.829531 171.700937) scale(0.1 -0.1)">
      <defs>
       <path id="LiberationSans-37" d="M 3238 3947 
Q 2563 2916 2284 2331 
Q 2006 1747 1867 1178 
Q 1728 609 1728 0 
L 1141 0 
Q 1141 844 1498 1776 
Q 1856 2709 2694 3925 
L 328 3925 
L 328 4403 
L 3238 4403 
L 3238 3947 
z
" transform="scale(0.015625)"/>
      </defs>
      <use xlink:href="#LiberationSans-39"/>
      <use xlink:href="#LiberationSans-38" transform="translate(55.615234 0)"/>
      <use xlink:href="#LiberationSans-2e" transform="translate(111.230469 0)"/>
      <use xlink:href="#LiberationSans-37" transform="translate(139.013672 0)"/>
     </g>
    </g>
    <g id="patch_16">
     <path d="M 319.68 178.115 
L 475.92 178.115 
L 475.92 160.115 
L 319.68 160.115 
z
" style="fill: #f0f0f0; stroke: #000000; stroke-linejoin: miter"/>
    </g>
    <g id="text_15">
     <!-- 97.2 -->
     <g style="fill: #262626" transform="translate(388.069531 171.700937) scale(0.1 -0.1)">
      <use xlink:href="#LiberationSans-39"/>
      <use xlink:href="#LiberationSans-37" transform="translate(55.615234 0)"/>
      <use xlink:href="#LiberationSans-2e" transform="translate(111.230469 0)"/>
      <use xlink:href="#LiberationSans-32" transform="translate(139.013672 0)"/>
     </g>
    </g>
    <g id="patch_17">
     <path d="M 475.92 178.115 
L 632.16 178.115 
L 632.16 160.115 
L 475.92 160.115 
z
" style="fill: #f0f0f0; stroke: #000000; stroke-linejoin: miter"/>
    </g>
    <g id="text_16">
     <!-- 0.8 -->
     <g style="fill: #262626" transform="translate(547.09 171.700937) scale(0.1 -0.1)">
      <use xlink:href="#LiberationSans-30"/>
      <use xlink:href="#LiberationSans-2e" transform="translate(55.615234 0)"/>
      <use xlink:href="#LiberationSans-38" transform="translate(83.398438 0)"/>
     </g>
    </g>
    <g id="patch_18">
     <path d="M 632.16 178.115 
L 788.4 178.115 
L 788.4 160.115 
L 632.16 160.115 
z
" style="fill: #f0f0f0; stroke: #000000; stroke-linejoin: miter"/>
    </g>
    <g id="text_17">
     <!-- 0.03 -->
     <g style="fill: #262626" transform="translate(700.549531 171.700937) scale(0.1 -0.1)">
      <use xlink:href="#LiberationSans-30"/>
      <use xlink:href="#LiberationSans-2e" transform="translate(55.615234 0)"/>
      <use xlink:href="#LiberationSans-30" transform="translate(83.398438 0)"/>
      <use xlink:href="#LiberationSans-33" transform="translate(139.013672 0)"/>
     </g>
    </g>
    <g id="patch_19">
     <path d="M 788.4 178.115 
L 944.64 178.115 
L 944.64 160.115 
L 788.4 160.115 
z
" style="fill: #f0f0f0; stroke: #000000; stroke-linejoin: miter"/>
    </g>
    <g id="text_18">
     <!-- 275x -->
     <g style="fill: #262626" transform="translate(855.678594 171.700937) scale(0.1 -0.1)">
      <use xlink:href="#LiberationSans-32"/>
      <use xlink:href="#LiberationSans-37" transform="translate(55.615234 0)"/>
      <use xlink:href="#LiberationSans-35" transform="translate(111.230469 0)"/>
      <use xlink:href="#LiberationSans-78" transform="translate(166.845703 0)"/>
     </g>
    </g>
    <g id="patch_20">
     <path d="M 7.2 196.115 
L 163.44 196.115 
L 163.44 178.115 
L 7.2 178.115 
z
" style="fill: #ffffff; stroke: #000000; stroke-linejoin: miter"/>
    </g>
    <g id="text_19">
     <!-- RLFS+REZ R-Loop -->
     <g style="fill: #262626" transform="translate(41.8325 189.700937) scale(0.1 -0.1)">
      <defs>
       <path id="LiberationSans-52" d="M 3638 0 
L 2494 1828 
L 1122 1828 
L 1122 0 
L 525 0 
L 525 4403 
L 2597 4403 
Q 3341 4403 3745 4070 
Q 4150 3738 4150 3144 
Q 4150 2653 3864 2318 
Q 3578 1984 3075 1897 
L 4325 0 
L 3638 0 
z
M 3550 3138 
Q 3550 3522 3289 3723 
Q 3028 3925 2538 3925 
L 1122 3925 
L 1122 2300 
L 2563 2300 
Q 3034 2300 3292 2520 
Q 3550 2741 3550 3138 
z
" transform="scale(0.015625)"/>
       <path id="LiberationSans-4c" d="M 525 0 
L 525 4403 
L 1122 4403 
L 1122 488 
L 3347 488 
L 3347 0 
L 525 0 
z
" transform="scale(0.015625)"/>
       <path id="LiberationSans-46" d="M 1122 3916 
L 1122 2278 
L 3578 2278 
L 3578 1784 
L 1122 1784 
L 1122 0 
L 525 0 
L 525 4403 
L 3653 4403 
L 3653 3916 
L 1122 3916 
z
" transform="scale(0.015625)"/>
       <path id="LiberationSans-53" d="M 3975 1216 
Q 3975 606 3498 271 
Q 3022 -63 2156 -63 
Q 547 -63 291 1056 
L 869 1172 
Q 969 775 1294 589 
Q 1619 403 2178 403 
Q 2756 403 3070 601 
Q 3384 800 3384 1184 
Q 3384 1400 3286 1534 
Q 3188 1669 3009 1756 
Q 2831 1844 2584 1903 
Q 2338 1963 2038 2031 
Q 1516 2147 1245 2262 
Q 975 2378 819 2520 
Q 663 2663 580 2853 
Q 497 3044 497 3291 
Q 497 3856 930 4162 
Q 1363 4469 2169 4469 
Q 2919 4469 3316 4239 
Q 3713 4009 3872 3456 
L 3284 3353 
Q 3188 3703 2916 3861 
Q 2644 4019 2163 4019 
Q 1634 4019 1356 3844 
Q 1078 3669 1078 3322 
Q 1078 3119 1186 2986 
Q 1294 2853 1497 2761 
Q 1700 2669 2306 2534 
Q 2509 2488 2711 2439 
Q 2913 2391 3097 2323 
Q 3281 2256 3442 2165 
Q 3603 2075 3722 1944 
Q 3841 1813 3908 1634 
Q 3975 1456 3975 1216 
z
" transform="scale(0.015625)"/>
       <path id="LiberationSans-2b" d="M 2097 1900 
L 2097 563 
L 1638 563 
L 1638 1900 
L 313 1900 
L 313 2356 
L 1638 2356 
L 1638 3694 
L 2097 3694 
L 2097 2356 
L 3422 2356 
L 3422 1900 
L 2097 1900 
z
" transform="scale(0.015625)"/>
       <path id="LiberationSans-6f" d="M 3291 1694 
Q 3291 806 2900 371 
Q 2509 -63 1766 -63 
Q 1025 -63 647 389 
Q 269 841 269 1694 
Q 269 3444 1784 3444 
Q 2559 3444 2925 3017 
Q 3291 2591 3291 1694 
z
M 2700 1694 
Q 2700 2394 2492 2711 
Q 2284 3028 1794 3028 
Q 1300 3028 1079 2704 
Q 859 2381 859 1694 
Q 859 1025 1076 689 
Q 1294 353 1759 353 
Q 2266 353 2483 678 
Q 2700 1003 2700 1694 
z
" transform="scale(0.015625)"/>
       <path id="LiberationSans-70" d="M 3291 1706 
Q 3291 -63 2047 -63 
Q 1266 -63 997 525 
L 981 525 
Q 994 500 994 -6 
L 994 -1328 
L 431 -1328 
L 431 2691 
Q 431 3213 413 3381 
L 956 3381 
Q 959 3369 965 3292 
Q 972 3216 980 3056 
Q 988 2897 988 2838 
L 1000 2838 
Q 1150 3150 1397 3295 
Q 1644 3441 2047 3441 
Q 2672 3441 2981 3022 
Q 3291 2603 3291 1706 
z
M 2700 1694 
Q 2700 2400 2509 2703 
Q 2319 3006 1903 3006 
Q 1569 3006 1380 2865 
Q 1191 2725 1092 2426 
Q 994 2128 994 1650 
Q 994 984 1206 668 
Q 1419 353 1897 353 
Q 2316 353 2508 661 
Q 2700 969 2700 1694 
z
" transform="scale(0.015625)"/>
      </defs>
      <use xlink:href="#LiberationSans-52"/>
      <use xlink:href="#LiberationSans-4c" transform="translate(72.216797 0)"/>
      <use xlink:href="#LiberationSans-46" transform="translate(127.832031 0)"/>
      <use xlink:href="#LiberationSans-53" transform="translate(188.916016 0)"/>
      <use xlink:href="#LiberationSans-2b" transform="translate(255.615234 0)"/>
      <use xlink:href="#LiberationSans-52" transform="translate(314.013672 0)"/>
      <use xlink:href="#LiberationSans-45" transform="translate(386.230469 0)"/>
      <use xlink:href="#LiberationSans-5a" transform="translate(452.929688 0)"/>
      <use xlink:href="#LiberationSans-20" transform="translate(514.013672 0)"/>
      <use xlink:href="#LiberationSans-52" transform="translate(541.796875 0)"/>
      <use xlink:href="#LiberationSans-2d" transform="translate(614.013672 0)"/>
      <use xlink:href="#LiberationSans-4c" transform="translate(647.314453 0)"/>
      <use xlink:href="#LiberationSans-6f" transform="translate(702.929688 0)"/>
      <use xlink:href="#LiberationSans-6f" transform="translate(758.544922 0)"/>
      <use xlink:href="#LiberationSans-70" transform="translate(814.160156 0)"/>
     </g>
    </g>
    <g id="patch_21">
     <path d="M 163.44 196.115 
L 319.68 196.115 
L 319.68 178.115 
L 163.44 178.115 
z
" style="fill: #ffffff; stroke: #000000; stroke-linejoin: miter"/>
    </g>
    <g id="text_20">
     <!-- 97.8 -->
     <g style="fill: #262626" transform="translate(231.829531 189.700937) scale(0.1 -0.1)">
      <use xlink:href="#LiberationSans-39"/>
      <use xlink:href="#LiberationSans-37" transform="translate(55.615234 0)"/>
      <use xlink:href="#LiberationSans-2e" transform="translate(111.230469 0)"/>
      <use xlink:href="#LiberationSans-38" transform="translate(139.013672 0)"/>
     </g>
    </g>
    <g id="patch_22">
     <path d="M 319.68 196.115 
L 475.92 196.115 
L 475.92 178.115 
L 319.68 178.115 
z
" style="fill: #ffffff; stroke: #000000; stroke-linejoin: miter"/>
    </g>
    <g id="text_21">
     <!-- 95.4 -->
     <g style="fill: #262626" transform="translate(388.069531 189.700937) scale(0.1 -0.1)">
      <use xlink:href="#LiberationSans-39"/>
      <use xlink:href="#LiberationSans-35" transform="translate(55.615234 0)"/>
      <use xlink:href="#LiberationSans-2e" transform="translate(111.230469 0)"/>
      <use xlink:href="#LiberationSans-34" transform="translate(139.013672 0)"/>
     </g>
    </g>
    <g id="patch_23">
     <path d="M 475.92 196.115 
L 632.16 196.115 
L 632.16 178.115 
L 475.92 178.115 
z
" style="fill: #ffffff; stroke: #000000; stroke-linejoin: miter"/>
    </g>
    <g id="text_22">
     <!-- 2.1 -->
     <g style="fill: #262626" transform="translate(547.09 189.700937) scale(0.1 -0.1)">
      <use xlink:href="#LiberationSans-32"/>
      <use xlink:href="#LiberationSans-2e" transform="translate(55.615234 0)"/>
      <use xlink:href="#LiberationSans-31" transform="translate(83.398438 0)"/>
     </g>
    </g>
    <g id="patch_24">
     <path d="M 632.16 196.115 
L 788.4 196.115 
L 788.4 178.115 
L 632.16 178.115 
z
" style="fill: #ffffff; stroke: #000000; stroke-linejoin: miter"/>
    </g>
    <g id="text_23">
     <!-- 0.08 -->
     <g style="fill: #262626" transform="translate(700.549531 189.700937) scale(0.1 -0.1)">
      <use xlink:href="#LiberationSans-30"/>
      <use xlink:href="#LiberationSans-2e" transform="translate(55.615234 0)"/>
      <use xlink:href="#LiberationSans-30" transform="translate(83.398438 0)"/>
      <use xlink:href="#LiberationSans-38" transform="translate(139.013672 0)"/>
     </g>
    </g>
    <g id="patch_25">
     <path d="M 788.4 196.115 
L 944.64 196.115 
L 944.64 178.115 
L 788.4 178.115 
z
" style="fill: #ffffff; stroke: #000000; stroke-linejoin: miter"/>
    </g>
    <g id="text_24">
     <!-- 180x -->
     <g style="fill: #262626" transform="translate(855.678594 189.700937) scale(0.1 -0.1)">
      <use xlink:href="#LiberationSans-31"/>
      <use xlink:href="#LiberationSans-38" transform="translate(55.615234 0)"/>
      <use xlink:href="#LiberationSans-30" transform="translate(111.230469 0)"/>
      <use xlink:href="#LiberationSans-78" transform="translate(166.845703 0)"/>
     </g>
    </g>
    <g id="patch_26">
     <path d="M 7.2 214.115 
L 163.44 214.115 
L 163.44 196.115 
L 7.2 196.115 
z
" style="fill: #f0f0f0; stroke: #000000; stroke-linejoin: miter"/>
    </g>
    <g id="text_25">
     <!-- Cruciform Detection -->
     <g style="fill: #262626" transform="translate(41.142656 207.700937) scale(0.1 -0.1)">
      <defs>
       <path id="LiberationSans-43" d="M 2475 3981 
Q 1744 3981 1337 3511 
Q 931 3041 931 2222 
Q 931 1413 1354 920 
Q 1778 428 2500 428 
Q 3425 428 3891 1344 
L 4378 1100 
Q 4106 531 3614 234 
Q 3122 -63 2472 -63 
Q 1806 -63 1320 214 
Q 834 491 579 1005 
Q 325 1519 325 2222 
Q 325 3275 894 3872 
Q 1463 4469 2469 4469 
Q 3172 4469 3644 4194 
Q 4116 3919 4338 3378 
L 3772 3191 
Q 3619 3575 3280 3778 
Q 2941 3981 2475 3981 
z
" transform="scale(0.015625)"/>
       <path id="LiberationSans-69" d="M 428 4100 
L 428 4638 
L 991 4638 
L 991 4100 
L 428 4100 
z
M 428 0 
L 428 3381 
L 991 3381 
L 991 0 
L 428 0 
z
" transform="scale(0.015625)"/>
       <path id="LiberationSans-66" d="M 1128 2972 
L 1128 0 
L 566 0 
L 566 2972 
L 91 2972 
L 91 3381 
L 566 3381 
L 566 3763 
Q 566 4225 769 4428 
Q 972 4631 1391 4631 
Q 1625 4631 1788 4594 
L 1788 4166 
Q 1647 4191 1538 4191 
Q 1322 4191 1225 4081 
Q 1128 3972 1128 3684 
L 1128 3381 
L 1788 3381 
L 1788 2972 
L 1128 2972 
z
" transform="scale(0.015625)"/>
       <path id="LiberationSans-6d" d="M 2400 0 
L 2400 2144 
Q 2400 2634 2265 2821 
Q 2131 3009 1781 3009 
Q 1422 3009 1212 2734 
Q 1003 2459 1003 1959 
L 1003 0 
L 444 0 
L 444 2659 
Q 444 3250 425 3381 
L 956 3381 
Q 959 3366 962 3297 
Q 966 3228 970 3139 
Q 975 3050 981 2803 
L 991 2803 
Q 1172 3163 1406 3303 
Q 1641 3444 1978 3444 
Q 2363 3444 2586 3291 
Q 2809 3138 2897 2803 
L 2906 2803 
Q 3081 3144 3329 3294 
Q 3578 3444 3931 3444 
Q 4444 3444 4676 3166 
Q 4909 2888 4909 2253 
L 4909 0 
L 4353 0 
L 4353 2144 
Q 4353 2634 4218 2821 
Q 4084 3009 3734 3009 
Q 3366 3009 3161 2736 
Q 2956 2463 2956 1959 
L 2956 0 
L 2400 0 
z
" transform="scale(0.015625)"/>
      </defs>
      <use xlink:href="#LiberationSans-43"/>
      <use xlink:href="#LiberationSans-72" transform="translate(72.216797 0)"/>
      <use xlink:href="#LiberationSans-75" transform="translate(105.517578 0)"/>
      <use xlink:href="#LiberationSans-63" transform="translate(161.132812 0)"/>
      <use xlink:href="#LiberationSans-69" transform="translate(211.132812 0)"/>
      <use xlink:href="#LiberationSans-66" transform="translate(233.349609 0)"/>
      <use xlink:href="#LiberationSans-6f" transform="translate(261.132812 0)"/>
      <use xlink:href="#LiberationSans-72" transform="translate(316.748047 0)"/>
      <use xlink:href="#LiberationSans-6d" transform="translate(350.048828 0)"/>
      <use xlink:href="#LiberationSans-20" transform="translate(433.349609 0)"/>
      <use xlink:href="#LiberationSans-44" transform="translate(461.132812 0)"/>
      <use xlink:href="#LiberationSans-65" transform="translate(533.349609 0)"/>
      <use xlink:href="#LiberationSans-74" transform="translate(588.964844 0)"/>
      <use xlink:href="#LiberationSans-65" transform="translate(616.748047 0)"/>
      <use xlink:href="#LiberationSans-63" transform="translate(672.363281 0)"/>
      <use xlink:href="#LiberationSans-74" transform="translate(722.363281 0)"/>
      <use xlink:href="#LiberationSans-69" transform="translate(750.146484 0)"/>
      <use xlink:href="#LiberationSans-6f" transform="translate(772.363281 0)"/>
      <use xlink:href="#LiberationSans-6e" transform="translate(827.978516 0)"/>
     </g>
    </g>
    <g id="patch_27">
     <path d="M 163.44 214.115 
L 319.68 214.115 
L 319.68 196.115 
L 163.44 196.115 
z
" style="fill: #f0f0f0; stroke: #000000; stroke-linejoin: miter"/>
    </g>
    <g id="text_26">
     <!-- 96.5 -->
     <g style="fill: #262626" transform="translate(231.829531 207.700937) scale(0.1 -0.1)">
      <use xlink:href="#LiberationSans-39"/>
      <use xlink:href="#LiberationSans-36" transform="translate(55.615234 0)"/>
      <use xlink:href="#LiberationSans-2e" transform="translate(111.230469 0)"/>
      <use xlink:href="#LiberationSans-35" transform="translate(139.013672 0)"/>
     </g>
    </g>
    <g id="patch_28">
     <path d="M 319.68 214.115 
L 475.92 214.115 
L 475.92 196.115 
L 319.68 196.115 
z
" style="fill: #f0f0f0; stroke: #000000; stroke-linejoin: miter"/>
    </g>
    <g id="text_27">
     <!-- 98.1 -->
     <g style="fill: #262626" transform="translate(388.069531 207.700937) scale(0.1 -0.1)">
      <use xlink:href="#LiberationSans-39"/>
      <use xlink:href="#LiberationSans-38" transform="translate(55.615234 0)"/>
      <use xlink:href="#LiberationSans-2e" transform="translate(111.230469 0)"/>
      <use xlink:href="#LiberationSans-31" transform="translate(139.013672 0)"/>
     </g>
    </g>
    <g id="patch_29">
     <path d="M 475.92 214.115 
L 632.16 214.115 
L 632.16 196.115 
L 475.92 196.115 
z
" style="fill: #f0f0f0; stroke: #000000; stroke-linejoin: miter"/>
    </g>
    <g id="text_28">
     <!-- 1.5 -->
     <g style="fill: #262626" transform="translate(547.09 207.700937) scale(0.1 -0.1)">
      <use xlink:href="#LiberationSans-31"/>
      <use xlink:href="#LiberationSans-2e" transform="translate(55.615234 0)"/>
      <use xlink:href="#LiberationSans-35" transform="translate(83.398438 0)"/>
     </g>
    </g>
    <g id="patch_30">
     <path d="M 632.16 214.115 
L 788.4 214.115 
L 788.4 196.115 
L 632.16 196.115 
z
" style="fill: #f0f0f0; stroke: #000000; stroke-linejoin: miter"/>
    </g>
    <g id="text_29">
     <!-- 0.06 -->
     <g style="fill: #262626" transform="translate(700.549531 207.700937) scale(0.1 -0.1)">
      <use xlink:href="#LiberationSans-30"/>
      <use xlink:href="#LiberationSans-2e" transform="translate(55.615234 0)"/>
      <use xlink:href="#LiberationSans-30" transform="translate(83.398438 0)"/>
      <use xlink:href="#LiberationSans-36" transform="translate(139.013672 0)"/>
     </g>
    </g>
    <g id="patch_31">
     <path d="M 788.4 214.115 
L 944.64 214.115 
L 944.64 196.115 
L 788.4 196.115 
z
" style="fill: #f0f0f0; stroke: #000000; stroke-linejoin: miter"/>
    </g>
    <g id="text_30">
     <!-- 220x -->
     <g style="fill: #262626" transform="translate(855.678594 207.700937) scale(0.1 -0.1)">
      <use xlink:href="#LiberationSans-32"/>
      <use xlink:href="#LiberationSans-32" transform="translate(55.615234 0)"/>
      <use xlink:href="#LiberationSans-30" transform="translate(111.230469 0)"/>
      <use xlink:href="#LiberationSans-78" transform="translate(166.845703 0)"/>
     </g>
    </g>
    <g id="patch_32">
     <path d="M 7.2 232.115 
L 163.44 232.115 
L 163.44 214.115 
L 7.2 214.115 
z
" style="fill: #ffffff; stroke: #000000; stroke-linejoin: miter"/>
    </g>
    <g id="text_31">
     <!-- Slipped DNA -->
     <g style="fill: #262626" transform="translate(56.695 225.700937) scale(0.1 -0.1)">
      <defs>
       <path id="LiberationSans-6c" d="M 431 0 
L 431 4638 
L 994 4638 
L 994 0 
L 431 0 
z
" transform="scale(0.015625)"/>
      </defs>
      <use xlink:href="#LiberationSans-53"/>
      <use xlink:href="#LiberationSans-6c" transform="translate(66.699219 0)"/>
      <use xlink:href="#LiberationSans-69" transform="translate(88.916016 0)"/>
      <use xlink:href="#LiberationSans-70" transform="translate(111.132812 0)"/>
      <use xlink:href="#LiberationSans-70" transform="translate(166.748047 0)"/>
      <use xlink:href="#LiberationSans-65" transform="translate(222.363281 0)"/>
      <use xlink:href="#LiberationSans-64" transform="translate(277.978516 0)"/>
      <use xlink:href="#LiberationSans-20" transform="translate(333.59375 0)"/>
      <use xlink:href="#LiberationSans-44" transform="translate(361.376953 0)"/>
      <use xlink:href="#LiberationSans-4e" transform="translate(433.59375 0)"/>
      <use xlink:href="#LiberationSans-41" transform="translate(505.810547 0)"/>
     </g>
    </g>
    <g id="patch_33">
     <path d="M 163.44 232.115 
L 319.68 232.115 
L 319.68 214.115 
L 163.44 214.115 
z
" style="fill: #ffffff; stroke: #000000; stroke-linejoin: miter"/>
    </g>
    <g id="text_32">
     <!-- 98.1 -->
     <g style="fill: #262626" transform="translate(231.829531 225.700937) scale(0.1 -0.1)">
      <use xlink:href="#LiberationSans-39"/>
      <use xlink:href="#LiberationSans-38" transform="translate(55.615234 0)"/>
      <use xlink:href="#LiberationSans-2e" transform="translate(111.230469 0)"/>
      <use xlink:href="#LiberationSans-31" transform="translate(139.013672 0)"/>
     </g>
    </g>
    <g id="patch_34">
     <path d="M 319.68 232.115 
L 475.92 232.115 
L 475.92 214.115 
L 319.68 214.115 
z
" style="fill: #ffffff; stroke: #000000; stroke-linejoin: miter"/>
    </g>
    <g id="text_33">
     <!-- 96.9 -->
     <g style="fill: #262626" transform="translate(388.069531 225.700937) scale(0.1 -0.1)">
      <use xlink:href="#LiberationSans-39"/>
      <use xlink:href="#LiberationSans-36" transform="translate(55.615234 0)"/>
      <use xlink:href="#LiberationSans-2e" transform="translate(111.230469 0)"/>
      <use xlink:href="#LiberationSans-39" transform="translate(139.013672 0)"/>
     </g>
    </g>
    <g id="patch_35">
     <path d="M 475.92 232.115 
L 632.16 232.115 
L 632.16 214.115 
L 475.92 214.115 
z
" style="fill: #ffffff; stroke: #000000; stroke-linejoin: miter"/>
    </g>
    <g id="text_34">
     <!-- 0.9 -->
     <g style="fill: #262626" transform="translate(547.09 225.700937) scale(0.1 -0.1)">
      <use xlink:href="#LiberationSans-30"/>
      <use xlink:href="#LiberationSans-2e" transform="translate(55.615234 0)"/>
      <use xlink:href="#LiberationSans-39" transform="translate(83.398438 0)"/>
     </g>
    </g>
    <g id="patch_36">
     <path d="M 632.16 232.115 
L 788.4 232.115 
L 788.4 214.115 
L 632.16 214.115 
z
" style="fill: #ffffff; stroke: #000000; stroke-linejoin: miter"/>
    </g>
    <g id="text_35">
     <!-- 0.04 -->
     <g style="fill: #262626" transform="translate(700.549531 225.700937) scale(0.1 -0.1)">
      <use xlink:href="#LiberationSans-30"/>
      <use xlink:href="#LiberationSans-2e" transform="translate(55.615234 0)"/>
      <use xlink:href="#LiberationSans-30" transform="translate(83.398438 0)"/>
      <use xlink:href="#LiberationSans-34" transform="translate(139.013672 0)"/>
     </g>
    </g>
    <g id="patch_37">
     <path d="M 788.4 232.115 
L 944.64 232.115 
L 944.64 214.115 
L 788.4 214.115 
z
" style="fill: #ffffff; stroke: #000000; stroke-linejoin: miter"/>
    </g>
    <g id="text_36">
     <!-- 300x -->
     <g style="fill: #262626" transform="translate(855.678594 225.700937) scale(0.1 -0.1)">
      <use xlink:href="#LiberationSans-33"/>
      <use xlink:href="#LiberationSans-30" transform="translate(55.615234 0)"/>
      <use xlink:href="#LiberationSans-30" transform="translate(111.230469 0)"/>
      <use xlink:href="#LiberationSans-78" transform="translate(166.845703 0)"/>
     </g>
    </g>
    <g id="patch_38">
     <path d="M 7.2 250.115 
L 163.44 250.115 
L 163.44 232.115 
L 7.2 232.115 
z
" style="fill: #f0f0f0; stroke: #000000; stroke-linejoin: miter"/>
    </g>
    <g id="text_37">
     <!-- i-Motif Detection -->
     <g style="fill: #262626" transform="translate(49.198906 243.700937) scale(0.1 -0.1)">
      <defs>
       <path id="LiberationSans-4d" d="M 4269 0 
L 4269 2938 
Q 4269 3425 4297 3875 
Q 4144 3316 4022 3000 
L 2884 0 
L 2466 0 
L 1313 3000 
L 1138 3531 
L 1034 3875 
L 1044 3528 
L 1056 2938 
L 1056 0 
L 525 0 
L 525 4403 
L 1309 4403 
L 2481 1350 
Q 2544 1166 2601 955 
Q 2659 744 2678 650 
Q 2703 775 2783 1029 
Q 2863 1284 2891 1350 
L 4041 4403 
L 4806 4403 
L 4806 0 
L 4269 0 
z
" transform="scale(0.015625)"/>
      </defs>
      <use xlink:href="#LiberationSans-69"/>
      <use xlink:href="#LiberationSans-2d" transform="translate(22.216797 0)"/>
      <use xlink:href="#LiberationSans-4d" transform="translate(55.517578 0)"/>
      <use xlink:href="#LiberationSans-6f" transform="translate(138.818359 0)"/>
      <use xlink:href="#LiberationSans-74" transform="translate(194.433594 0)"/>
      <use xlink:href="#LiberationSans-69" transform="translate(222.216797 0)"/>
      <use xlink:href="#LiberationSans-66" transform="translate(244.433594 0)"/>
      <use xlink:href="#LiberationSans-20" transform="translate(272.216797 0)"/>
      <use xlink:href="#LiberationSans-44" transform="translate(300 0)"/>
      <use xlink:href="#LiberationSans-65" transform="translate(372.216797 0)"/>
      <use xlink:href="#LiberationSans-74" transform="translate(427.832031 0)"/>
      <use xlink:href="#LiberationSans-65" transform="translate(455.615234 0)"/>
      <use xlink:href="#LiberationSans-63" transform="translate(511.230469 0)"/>
      <use xlink:href="#LiberationSans-74" transform="translate(561.230469 0)"/>
      <use xlink:href="#LiberationSans-69" transform="translate(589.013672 0)"/>
      <use xlink:href="#LiberationSans-6f" transform="translate(611.230469 0)"/>
      <use xlink:href="#LiberationSans-6e" transform="translate(666.845703 0)"/>
     </g>
    </g>
    <g id="patch_39">
     <path d="M 163.44 250.115 
L 319.68 250.115 
L 319.68 232.115 
L 163.44 232.115 
z
" style="fill: #f0f0f0; stroke: #000000; stroke-linejoin: miter"/>
    </g>
    <g id="text_38">
     <!-- 95.3 -->
     <g style="fill: #262626" transform="translate(231.829531 243.700937) scale(0.1 -0.1)">
      <use xlink:href="#LiberationSans-39"/>
      <use xlink:href="#LiberationSans-35" transform="translate(55.615234 0)"/>
      <use xlink:href="#LiberationSans-2e" transform="translate(111.230469 0)"/>
      <use xlink:href="#LiberationSans-33" transform="translate(139.013672 0)"/>
     </g>
    </g>
    <g id="patch_40">
     <path d="M 319.68 250.115 
L 475.92 250.115 
L 475.92 232.115 
L 319.68 232.115 
z
" style="fill: #f0f0f0; stroke: #000000; stroke-linejoin: miter"/>
    </g>
    <g id="text_39">
     <!-- 97.5 -->
     <g style="fill: #262626" transform="translate(388.069531 243.700937) scale(0.1 -0.1)">
      <use xlink:href="#LiberationSans-39"/>
      <use xlink:href="#LiberationSans-37" transform="translate(55.615234 0)"/>
      <use xlink:href="#LiberationSans-2e" transform="translate(111.230469 0)"/>
      <use xlink:href="#LiberationSans-35" transform="translate(139.013672 0)"/>
     </g>
    </g>
    <g id="patch_41">
     <path d="M 475.92 250.115 
L 632.16 250.115 
L 632.16 232.115 
L 475.92 232.115 
z
" style="fill: #f0f0f0; stroke: #000000; stroke-linejoin: miter"/>
    </g>
    <g id="text_40">
     <!-- 1.3 -->
     <g style="fill: #262626" transform="translate(547.09 243.700937) scale(0.1 -0.1)">
      <use xlink:href="#LiberationSans-31"/>
      <use xlink:href="#LiberationSans-2e" transform="translate(55.615234 0)"/>
      <use xlink:href="#LiberationSans-33" transform="translate(83.398438 0)"/>
     </g>
    </g>
    <g id="patch_42">
     <path d="M 632.16 250.115 
L 788.4 250.115 
L 788.4 232.115 
L 632.16 232.115 
z
" style="fill: #f0f0f0; stroke: #000000; stroke-linejoin: miter"/>
    </g>
    <g id="text_41">
     <!-- 0.05 -->
     <g style="fill: #262626" transform="translate(700.549531 243.700937) scale(0.1 -0.1)">
      <use xlink:href="#LiberationSans-30"/>
      <use xlink:href="#LiberationSans-2e" transform="translate(55.615234 0)"/>
      <use xlink:href="#LiberationSans-30" transform="translate(83.398438 0)"/>
      <use xlink:href="#LiberationSans-35" transform="translate(139.013672 0)"/>
     </g>
    </g>
    <g id="patch_43">
     <path d="M 788.4 250.115 
L 944.64 250.115 
L 944.64 232.115 
L 788.4 232.115 
z
" style="fill: #f0f0f0; stroke: #000000; stroke-linejoin: miter"/>
    </g>
    <g id="text_42">
     <!-- 245x -->
     <g style="fill: #262626" transform="translate(855.678594 243.700937) scale(0.1 -0.1)">
      <use xlink:href="#LiberationSans-32"/>
      <use xlink:href="#LiberationSans-34" transform="translate(55.615234 0)"/>
      <use xlink:href="#LiberationSans-35" transform="translate(111.230469 0)"/>
      <use xlink:href="#LiberationSans-78" transform="translate(166.845703 0)"/>
     </g>
    </g>
    <g id="patch_44">
     <path d="M 7.2 268.115 
L 163.44 268.115 
L 163.44 250.115 
L 7.2 250.115 
z
" style="fill: #ffffff; stroke: #000000; stroke-linejoin: miter"/>
    </g>
    <g id="text_43">
     <!-- Curved DNA -->
     <g style="fill: #262626" transform="translate(57.256719 261.700937) scale(0.1 -0.1)">
      <defs>
       <path id="LiberationSans-76" d="M 1916 0 
L 1250 0 
L 22 3381 
L 622 3381 
L 1366 1181 
Q 1406 1056 1581 441 
L 1691 806 
L 1813 1175 
L 2581 3381 
L 3178 3381 
L 1916 0 
z
" transform="scale(0.015625)"/>
      </defs>
      <use xlink:href="#LiberationSans-43"/>
      <use xlink:href="#LiberationSans-75" transform="translate(72.216797 0)"/>
      <use xlink:href="#LiberationSans-72" transform="translate(127.832031 0)"/>
      <use xlink:href="#LiberationSans-76" transform="translate(161.132812 0)"/>
      <use xlink:href="#LiberationSans-65" transform="translate(211.132812 0)"/>
      <use xlink:href="#LiberationSans-64" transform="translate(266.748047 0)"/>
      <use xlink:href="#LiberationSans-20" transform="translate(322.363281 0)"/>
      <use xlink:href="#LiberationSans-44" transform="translate(350.146484 0)"/>
      <use xlink:href="#LiberationSans-4e" transform="translate(422.363281 0)"/>
      <use xlink:href="#LiberationSans-41" transform="translate(494.580078 0)"/>
     </g>
    </g>
    <g id="patch_45">
     <path d="M 163.44 268.115 
L 319.68 268.115 
L 319.68 250.115 
L 163.44 250.115 
z
" style="fill: #ffffff; stroke: #000000; stroke-linejoin: miter"/>
    </g>
    <g id="text_44">
     <!-- 94.7 -->
     <g style="fill: #262626" transform="translate(231.829531 261.700937) scale(0.1 -0.1)">
      <use xlink:href="#LiberationSans-39"/>
      <use xlink:href="#LiberationSans-34" transform="translate(55.615234 0)"/>
      <use xlink:href="#LiberationSans-2e" transform="translate(111.230469 0)"/>
      <use xlink:href="#LiberationSans-37" transform="translate(139.013672 0)"/>
     </g>
    </g>
    <g id="patch_46">
     <path d="M 319.68 268.115 
L 475.92 268.115 
L 475.92 250.115 
L 319.68 250.115 
z
" style="fill: #ffffff; stroke: #000000; stroke-linejoin: miter"/>
    </g>
    <g id="text_45">
     <!-- 95.8 -->
     <g style="fill: #262626" transform="translate(388.069531 261.700937) scale(0.1 -0.1)">
      <use xlink:href="#LiberationSans-39"/>
      <use xlink:href="#LiberationSans-35" transform="translate(55.615234 0)"/>
      <use xlink:href="#LiberationSans-2e" transform="translate(111.230469 0)"/>
      <use xlink:href="#LiberationSans-38" transform="translate(139.013672 0)"/>
     </g>
    </g>
    <g id="patch_47">
     <path d="M 475.92 268.115 
L 632.16 268.115 
L 632.16 250.115 
L 475.92 250.115 
z
" style="fill: #ffffff; stroke: #000000; stroke-linejoin: miter"/>
    </g>
    <g id="text_46">
     <!-- 1.1 -->
     <g style="fill: #262626" transform="translate(547.09 261.700937) scale(0.1 -0.1)">
      <use xlink:href="#LiberationSans-31"/>
      <use xlink:href="#LiberationSans-2e" transform="translate(55.615234 0)"/>
      <use xlink:href="#LiberationSans-31" transform="translate(83.398438 0)"/>
     </g>
    </g>
    <g id="patch_48">
     <path d="M 632.16 268.115 
L 788.4 268.115 
L 788.4 250.115 
L 632.16 250.115 
z
" style="fill: #ffffff; stroke: #000000; stroke-linejoin: miter"/>
    </g>
    <g id="text_47">
     <!-- 0.04 -->
     <g style="fill: #262626" transform="translate(700.549531 261.700937) scale(0.1 -0.1)">
      <use xlink:href="#LiberationSans-30"/>
      <use xlink:href="#LiberationSans-2e" transform="translate(55.615234 0)"/>
      <use xlink:href="#LiberationSans-30" transform="translate(83.398438 0)"/>
      <use xlink:href="#LiberationSans-34" transform="translate(139.013672 0)"/>
     </g>
    </g>
    <g id="patch_49">
     <path d="M 788.4 268.115 
L 944.64 268.115 
L 944.64 250.115 
L 788.4 250.115 
z
" style="fill: #ffffff; stroke: #000000; stroke-linejoin: miter"/>
    </g>
    <g id="text_48">
     <!-- 190x -->
     <g style="fill: #262626" transform="translate(855.678594 261.700937) scale(0.1 -0.1)">
      <use xlink:href="#LiberationSans-31"/>
      <use xlink:href="#LiberationSans-39" transform="translate(55.615234 0)"/>
      <use xlink:href="#LiberationSans-30" transform="translate(111.230469 0)"/>
      <use xlink:href="#LiberationSans-78" transform="translate(166.845703 0)"/>
     </g>
    </g>
    <g id="patch_50">
     <path d="M 7.2 286.115 
L 163.44 286.115 
L 163.44 268.115 
L 7.2 268.115 
z
" style="fill: #f0f0f0; stroke: #000000; stroke-linejoin: miter"/>
    </g>
    <g id="text_49">
     <!-- Triplex DNA -->
     <g style="fill: #262626" transform="translate(58.559844 279.700937) scale(0.1 -0.1)">
      <defs>
       <path id="LiberationSans-54" d="M 2250 3916 
L 2250 0 
L 1656 0 
L 1656 3916 
L 144 3916 
L 144 4403 
L 3763 4403 
L 3763 3916 
L 2250 3916 
z
" transform="scale(0.015625)"/>
      </defs>
      <use xlink:href="#LiberationSans-54"/>
      <use xlink:href="#LiberationSans-72" transform="translate(57.333984 0)"/>
      <use xlink:href="#LiberationSans-69" transform="translate(90.634766 0)"/>
      <use xlink:href="#LiberationSans-70" transform="translate(112.851562 0)"/>
      <use xlink:href="#LiberationSans-6c" transform="translate(168.466797 0)"/>
      <use xlink:href="#LiberationSans-65" transform="translate(190.683594 0)"/>
      <use xlink:href="#LiberationSans-78" transform="translate(246.298828 0)"/>
      <use xlink:href="#LiberationSans-20" transform="translate(296.298828 0)"/>
      <use xlink:href="#LiberationSans-44" transform="translate(324.082031 0)"/>
      <use xlink:href="#LiberationSans-4e" transform="translate(396.298828 0)"/>
      <use xlink:href="#LiberationSans-41" transform="translate(468.515625 0)"/>
     </g>
    </g>
    <g id="patch_51">
     <path d="M 163.44 286.115 
L 319.68 286.115 
L 319.68 268.115 
L 163.44 268.115 
z
" style="fill: #f0f0f0; stroke: #000000; stroke-linejoin: miter"/>
    </g>
    <g id="text_50">
     <!-- 97.2 -->
     <g style="fill: #262626" transform="translate(231.829531 279.700937) scale(0.1 -0.1)">
      <use xlink:href="#LiberationSans-39"/>
      <use xlink:href="#LiberationSans-37" transform="translate(55.615234 0)"/>
      <use xlink:href="#LiberationSans-2e" transform="translate(111.230469 0)"/>
      <use xlink:href="#LiberationSans-32" transform="translate(139.013672 0)"/>
     </g>
    </g>
    <g id="patch_52">
     <path d="M 319.68 286.115 
L 475.92 286.115 
L 475.92 268.115 
L 319.68 268.115 
z
" style="fill: #f0f0f0; stroke: #000000; stroke-linejoin: miter"/>
    </g>
    <g id="text_51">
     <!-- 96.3 -->
     <g style="fill: #262626" transform="translate(388.069531 279.700937) scale(0.1 -0.1)">
      <use xlink:href="#LiberationSans-39"/>
      <use xlink:href="#LiberationSans-36" transform="translate(55.615234 0)"/>
      <use xlink:href="#LiberationSans-2e" transform="translate(111.230469 0)"/>
      <use xlink:href="#LiberationSans-33" transform="translate(139.013672 0)"/>
     </g>
    </g>
    <g id="patch_53">
     <path d="M 475.92 286.115 
L 632.16 286.115 
L 632.16 268.115 
L 475.92 268.115 
z
" style="fill: #f0f0f0; stroke: #000000; stroke-linejoin: miter"/>
    </g>
    <g id="text_52">
     <!-- 1.7 -->
     <g style="fill: #262626" transform="translate(547.09 279.700937) scale(0.1 -0.1)">
      <use xlink:href="#LiberationSans-31"/>
      <use xlink:href="#LiberationSans-2e" transform="translate(55.615234 0)"/>
      <use xlink:href="#LiberationSans-37" transform="translate(83.398438 0)"/>
     </g>
    </g>
    <g id="patch_54">
     <path d="M 632.16 286.115 
L 788.4 286.115 
L 788.4 268.115 
L 632.16 268.115 
z
" style="fill: #f0f0f0; stroke: #000000; stroke-linejoin: miter"/>
    </g>
    <g id="text_53">
     <!-- 0.07 -->
     <g style="fill: #262626" transform="translate(700.549531 279.700937) scale(0.1 -0.1)">
      <use xlink:href="#LiberationSans-30"/>
      <use xlink:href="#LiberationSans-2e" transform="translate(55.615234 0)"/>
      <use xlink:href="#LiberationSans-30" transform="translate(83.398438 0)"/>
      <use xlink:href="#LiberationSans-37" transform="translate(139.013672 0)"/>
     </g>
    </g>
    <g id="patch_55">
     <path d="M 788.4 286.115 
L 944.64 286.115 
L 944.64 268.115 
L 788.4 268.115 
z
" style="fill: #f0f0f0; stroke: #000000; stroke-linejoin: miter"/>
    </g>
    <g id="text_54">
     <!-- 210x -->
     <g style="fill: #262626" transform="translate(855.678594 279.700937) scale(0.1 -0.1)">
      <use xlink:href="#LiberationSans-32"/>
      <use xlink:href="#LiberationSans-31" transform="translate(55.615234 0)"/>
      <use xlink:href="#LiberationSans-30" transform="translate(111.230469 0)"/>
      <use xlink:href="#LiberationSans-78" transform="translate(166.845703 0)"/>
     </g>
    </g>
   </g>
   <g id="text_55">
    <!-- Table 1: NBDFinder Algorithm Performance Benchmarks -->
    <g style="fill: #262626" transform="translate(261.21375 18.795) scale(0.16 -0.16)">
     <defs>
      <path id="LiberationSans-Bold-54" d="M 2416 3691 
L 2416 0 
L 1494 0 
L 1494 3691 
L 72 3691 
L 72 4403 
L 3841 4403 
L 3841 3691 
L 2416 3691 
z
" transform="scale(0.015625)"/>
      <path id="LiberationSans-Bold-31" d="M 403 0 
L 403 653 
L 1494 653 
L 1494 3656 
L 438 2997 
L 438 3688 
L 1541 4403 
L 2372 4403 
L 2372 653 
L 3381 653 
L 3381 0 
L 403 0 
z
" transform="scale(0.015625)"/>
      <path id="LiberationSans-Bold-3a" d="M 616 2350 
L 616 3231 
L 1516 3231 
L 1516 2350 
L 616 2350 
z
M 616 0 
L 616 878 
L 1516 878 
L 1516 0 
L 616 0 
z
" transform="scale(0.015625)"/>
      <path id="LiberationSans-Bold-4e" d="M 3109 0 
L 1191 3391 
Q 1247 2897 1247 2597 
L 1247 0 
L 428 0 
L 428 4403 
L 1481 4403 
L 3428 984 
Q 3372 1456 3372 1844 
L 3372 4403 
L 4191 4403 
L 4191 0 
L 3109 0 
z
" transform="scale(0.015625)"/>
      <path id="LiberationSans-Bold-44" d="M 4353 2234 
Q 4353 1553 4086 1045 
Q 3819 538 3330 269 
Q 2841 0 2209 0 
L 428 0 
L 428 4403 
L 2022 4403 
Q 3134 4403 3743 3842 
Q 4353 3281 4353 2234 
z
M 3425 2234 
Q 3425 2944 3056 3317 
Q 2688 3691 2003 3691 
L 1350 3691 
L 1350 713 
L 2131 713 
Q 2725 713 3075 1122 
Q 3425 1531 3425 2234 
z
" transform="scale(0.015625)"/>
      <path id="LiberationSans-Bold-64" d="M 2638 0 
Q 2625 47 2608 236 
Q 2591 425 2591 550 
L 2578 550 
Q 2294 -63 1497 -63 
Q 906 -63 584 398 
Q 263 859 263 1688 
Q 263 2528 602 2986 
Q 941 3444 1563 3444 
Q 1922 3444 2183 3294 
Q 2444 3144 2584 2847 
L 2591 2847 
L 2584 3403 
L 2584 4638 
L 3463 4638 
L 3463 738 
Q 3463 425 3488 0 
L 2638 0 
z
M 2597 1709 
Q 2597 2256 2414 2551 
Q 2231 2847 1875 2847 
Q 1522 2847 1350 2561 
Q 1178 2275 1178 1688 
Q 1178 538 1869 538 
Q 2216 538 2406 842 
Q 2597 1147 2597 1709 
z
" transform="scale(0.015625)"/>
      <path id="LiberationSans-Bold-50" d="M 4050 3009 
Q 4050 2584 3856 2250 
Q 3663 1916 3302 1733 
Q 2941 1550 2444 1550 
L 1350 1550 
L 1350 0 
L 428 0 
L 428 4403 
L 2406 4403 
Q 3197 4403 3623 4039 
Q 4050 3675 4050 3009 
z
M 3122 2994 
Q 3122 3688 2303 3688 
L 1350 3688 
L 1350 2259 
L 2328 2259 
Q 2709 2259 2915 2448 
Q 3122 2638 3122 2994 
z
" transform="scale(0.015625)"/>
     </defs>
     <use xlink:href="#LiberationSans-Bold-54"/>
     <use xlink:href="#LiberationSans-Bold-61" transform="translate(53.708984 0)"/>
     <use xlink:href="#LiberationSans-Bold-62" transform="translate(109.324219 0)"/>
     <use xlink:href="#LiberationSans-Bold-6c" transform="translate(170.408203 0)"/>
     <use xlink:href="#LiberationSans-Bold-65" transform="translate(198.191406 0)"/>
     <use xlink:href="#LiberationSans-Bold-20" transform="translate(253.806641 0)"/>
     <use xlink:href="#LiberationSans-Bold-31" transform="translate(281.589844 0)"/>
     <use xlink:href="#LiberationSans-Bold-3a" transform="translate(337.205078 0)"/>
     <use xlink:href="#LiberationSans-Bold-20" transform="translate(370.505859 0)"/>
     <use xlink:href="#LiberationSans-Bold-4e" transform="translate(398.289062 0)"/>
     <use xlink:href="#LiberationSans-Bold-42" transform="translate(470.505859 0)"/>
     <use xlink:href="#LiberationSans-Bold-44" transform="translate(542.722656 0)"/>
     <use xlink:href="#LiberationSans-Bold-46" transform="translate(614.939453 0)"/>
     <use xlink:href="#LiberationSans-Bold-69" transform="translate(676.023438 0)"/>
     <use xlink:href="#LiberationSans-Bold-6e" transform="translate(703.806641 0)"/>
     <use xlink:href="#LiberationSans-Bold-64" transform="translate(764.890625 0)"/>
     <use xlink:href="#LiberationSans-Bold-65" transform="translate(825.974609 0)"/>
     <use xlink:href="#LiberationSans-Bold-72" transform="translate(881.589844 0)"/>
     <use xlink:href="#LiberationSans-Bold-20" transform="translate(920.505859 0)"/>
     <use xlink:href="#LiberationSans-Bold-41" transform="translate(944.539062 0)"/>
     <use xlink:href="#LiberationSans-Bold-6c" transform="translate(1016.755859 0)"/>
     <use xlink:href="#LiberationSans-Bold-67" transform="translate(1044.539062 0)"/>
     <use xlink:href="#LiberationSans-Bold-6f" transform="translate(1105.623047 0)"/>
     <use xlink:href="#LiberationSans-Bold-72" transform="translate(1166.707031 0)"/>
     <use xlink:href="#LiberationSans-Bold-69" transform="translate(1205.623047 0)"/>
     <use xlink:href="#LiberationSans-Bold-74" transform="translate(1233.40625 0)"/>
     <use xlink:href="#LiberationSans-Bold-68" transform="translate(1266.707031 0)"/>
     <use xlink:href="#LiberationSans-Bold-6d" transform="translate(1327.791016 0)"/>
     <use xlink:href="#LiberationSans-Bold-20" transform="translate(1416.707031 0)"/>
     <use xlink:href="#LiberationSans-Bold-50" transform="translate(1444.490234 0)"/>
     <use xlink:href="#LiberationSans-Bold-65" transform="translate(1511.189453 0)"/>
     <use xlink:href="#LiberationSans-Bold-72" transform="translate(1566.804688 0)"/>
     <use xlink:href="#LiberationSans-Bold-66" transform="translate(1605.720703 0)"/>
     <use xlink:href="#LiberationSans-Bold-6f" transform="translate(1639.021484 0)"/>
     <use xlink:href="#LiberationSans-Bold-72" transform="translate(1700.105469 0)"/>
     <use xlink:href="#LiberationSans-Bold-6d" transform="translate(1739.021484 0)"/>
     <use xlink:href="#LiberationSans-Bold-61" transform="translate(1827.9375 0)"/>
     <use xlink:href="#LiberationSans-Bold-6e" transform="translate(1883.552734 0)"/>
     <use xlink:href="#LiberationSans-Bold-63" transform="translate(1944.636719 0)"/>
     <use xlink:href="#LiberationSans-Bold-65" transform="translate(2000.251953 0)"/>
     <use xlink:href="#LiberationSans-Bold-20" transform="translate(2055.867188 0)"/>
     <use xlink:href="#LiberationSans-Bold-42" transform="translate(2083.650391 0)"/>
     <use xlink:href="#LiberationSans-Bold-65" transform="translate(2155.867188 0)"/>
     <use xlink:href="#LiberationSans-Bold-6e" transform="translate(2211.482422 0)"/>
     <use xlink:href="#LiberationSans-Bold-63" transform="translate(2272.566406 0)"/>
     <use xlink:href="#LiberationSans-Bold-68" transform="translate(2328.181641 0)"/>
     <use xlink:href="#LiberationSans-Bold-6d" transform="translate(2389.265625 0)"/>
     <use xlink:href="#LiberationSans-Bold-61" transform="translate(2478.181641 0)"/>
     <use xlink:href="#LiberationSans-Bold-72" transform="translate(2533.796875 0)"/>
     <use xlink:href="#LiberationSans-Bold-6b" transform="translate(2572.712891 0)"/>
     <use xlink:href="#LiberationSans-Bold-73" transform="translate(2628.328125 0)"/>
    </g>
   </g>
  </g>
 </g>
</svg>
